<?xml version="1.0" encoding="UTF-8"?><svg id="Layer_2" xmlns="http://www.w3.org/2000/svg" xmlns:xlink="http://www.w3.org/1999/xlink" viewBox="0 0 97.16 114.38"><defs><style>.cls-1{fill:none;}.cls-2{fill:#ebc60d;}.cls-3{clip-path:url(#clippath);}</style><clipPath id="clippath"><polygon class="cls-1" points="10.12 114.38 0 114.18 0 0 97.16 0 10.12 114.38"/></clipPath></defs><g id="Layer_4"><g class="cls-3"><path class="cls-2" d="M19.28,66.97c.08-.14.14-.25.19-.34-.03-.01-.05-.03-.08-.04l-.1-.03v.42Z"/><path class="cls-2" d="M16.15,71.5c.07.04.14.04.21.03,0-.04,0-.07,0-.11l-.21.08Z"/><path class="cls-2" d="M15.85,71.11l.45-.1c0-.07,0-.14,0-.22-.17-.05-.45.04-.64-.11-.08,0-.15.03-.22.13l.4.3Z"/><path class="cls-2" d="M38.98,38.05c-.05,0-.11.01-.16.02,0,.09.02.19.03.32.4.06.16-.16.13-.33Z"/><path class="cls-2" d="M27.47,44.41c.04-.07.08-.14.12-.21-.07-.01-.13-.03-.18-.01l-.09.19c0,.3,0,.26.15.03Z"/><path class="cls-2" d="M29.24,43.39c.21-.32.51-2.21.74-3.2-.07.04-.13.09-.19.18-.03.04-.09.06-.15.07-.24,1.03-.36,2.12-.57,3.06.03.04.14-.06.17-.12Z"/><path class="cls-2" d="M29.4,44.36c.11-.21.15-.44.25-.66.2-.44.14-.43.28-.9.43-1.47.8-2.97,1.23-4.44-.07,0-.13,0-.2.01,0,.22-.1.37-.22.5.05.12.09.22.14.33-.09.1-.2.22-.32.35.1.05.17.09.19.1-.08.17-.15.32-.23.49-.09,0-.18-.01-.28-.02-.36,1.4-.49,2.95-1.07,4.25-.03.33.15.1.22-.02Z"/><polygon class="cls-2" points="19.52 95.9 19.52 95.91 19.52 95.9 19.52 95.9"/><path class="cls-2" d="M8.91,60.78l.13.06v-.18s-.09.08-.13.11Z"/><polygon class="cls-2" points="19.94 96.22 19.93 96.22 19.94 96.22 19.94 96.22"/><path class="cls-2" d="M18.01,93.82s.07-.02.1-.03c.11.02.21.04.35.07-.4-.78-.95-1.16-1.32-.95.16.07.32.14.54.24-.2.1-.38.12-.57.07.09.1.17.21.24.34.06.03.12.07.19.11-.05.05-.08.1-.09.14,0,.03.02.06.03.08,0,.02,0,.07,0,.11.04.04.11.08.17.12.02-.03.04-.06.06-.1.05.02.1.06.15.1.05-.1.1-.2.15-.3Z"/><path class="cls-2" d="M16.03,70.38s0,0,0,0c0,0,0,0,0,0Z"/><path class="cls-2" d="M7.7,71.61c-.14.13-.29.26-.44.39.02.22.5.43.05.73.07.04.13.08.19.11.08-.1.21-.19.39-.3l-.24-.64c.39-.12.28.51.35.58l.41-.35.29.35c.15-.43-.56-.64-.23-.93l-.74.12-.03-.07Z"/><path class="cls-2" d="M9.28,60.85l.18-.18c-.07-.03-.14-.08-.22-.16-.02.02-.05.04-.07.06l.11.28Z"/><path class="cls-2" d="M25.23,98.56c-.32-.24-.64-.47-.96-.71-.18-.06-.36-.12-.56-.18.05-.06.07-.1.11-.15-.03-.02-.06-.05-.09-.07-.03.02-.06.04-.09.07-.02-.06-.03-.11-.04-.16-.07-.05-.13-.1-.2-.15-.05.15-.1.3-.15.44,0,0,0,0,0,0h0s0,0,0,.01c.17.07.35.13.52.2-.02.04-.03.09-.05.13-.11-.04-.22-.08-.36-.13-.01.11-.03.22-.04.35-.26-.2-.23-.37-.07-.56,0,0,0,0,0,0,0,0,0,0,0-.01-.19-.12-.38-.24-.56-.36.04-.02.11-.07.19-.12-.16-.04-.31-.05-.42-.12-.62-.41-1.25-.83-1.85-1.28-.34-.25-.62-.58-.96-.84-.12-.09-.31-.09-.47-.19.08-.02.17-.03.22-.04-.35-.52-.89-.39-1.38-.43.11.14.19.28.26.38.14.02.22.14.29.26.06.05.12.1.19.15.06-.01.11-.03.19-.05-.02.07-.02.13-.02.18.07.06.13.14.18.22.06.01.14.01.22,0-.02-.1-.04-.18-.08-.35.2.17.33.29.48.42-.06.06-.11.12-.2.22.12.02.2.04.38.08-.03.01-.05.02-.07.02.22.03.49.09.4.2l-.05.04c.06,0,.11-.02.17-.03,0,.06,0,.12,0,.18.1.02.19.05.27.1.02,0,.04,0,.06,0-.01.01-.02.02-.03.03.09.07.16.17.17.29.05,0,.1-.01.15-.02-.03.02-.05.05-.08.07.04.05.08.11.12.17h.31s-.06.23-.06.23l.35-.12-.09.35s.06.05.08.07c.4-.13.48.39.71.69-.27.15-.32.21-.27.23.06-.05.13-.1.23-.18.1.11.21.23.32.34.12.03.2.05.2.22.04.04.07.08.11.12l.57-.11v-.28s.36-.05.36-.05l.13.69h.1c.05-.1.1-.2.15-.31.11.03.21.08.31.13,0,0,.02,0,.03,0,.23-.08.43-.27.69-.29Z"/><path class="cls-2" d="M9.39,77.32c-.02-.09,0-.14.02-.16-.09-.05-.21-.09-.4-.15.19,0,.38,0,.52.01.07-.19.13-.35.18-.47-.16-.35-.32-.7-.46-1.02.08-.06.15-.11.22-.16-.1-.11-.2-.22-.29-.33.02.06.03.11.05.18-.11-.05-.2-.09-.3-.13l-.23.2s-.01-.05-.02-.07c-.09.15-.04.33.02.52.04.13.05.26.08.47.06.03.19.09.34.16,0,.06,0,.12-.03.16-.51.58-.17,1.1.12,1.62.07.12.12.26.15.39.05.25.18.33.48.25-.03-.08-.07-.16-.1-.23l.35.08c.04.39.28.72.58.97-.07-.22-.18-.59-.28-.78-.21-.38-.93-1.12-1-1.49Z"/><path class="cls-2" d="M16.69,92.99c-.07-.05-.13-.1-.2-.17.05-.04.09-.09.15-.14-.05-.04-.07-.07-.09-.07-.15.03-.27.01-.39-.02.08.14.13.32.11.5.15-.09.29-.12.42-.1Z"/><path class="cls-2" d="M19.28,95.97s0,.02,0,.03c.02,0,.02,0,.03,0-.01-.01-.03-.03-.04-.04Z"/><path class="cls-2" d="M17.47,94.17c0,.11,0,.19.08.1-.03-.03-.05-.06-.08-.1Z"/><path class="cls-2" d="M27.07,42.03c.15-.31.17-.65.31-.97.29-.66.6-1.37.93-2.08,0-.03,0-.06,0-.09-.02-.16-.04-.32-.07-.47-.72,1.73-1.17,3.53-2.56,4.86.35-.05,1.21-.9,1.38-1.24Z"/><path class="cls-2" d="M30.97,31.15s-.03.02-.05.04l.03.03s.01-.04.02-.06Z"/><path class="cls-2" d="M8.24,36.93q-.45-.1-.94.26c.1-.28.16-.5.25-.71.02-.05.15-.1.19-.08.08.05.14.12.21.18.05-.12.1-.24.15-.36,0-.05.02-.08.03-.13-.02,0-.08-.02-.15-.03,0,0,0,0-.01,0h0c-.12.03-.24.08-.35.12-.14-.25.02-.49.07-.74,0,0-.01.02-.02.03,0-.1,0-.23,0-.36-.02-.04-.03-.07-.06-.11-.41.34-.53.73-.28.86-.62.32-.33,1.09-.84,1.52.15.04.23.06.4.11-.09.04-.17.08-.24.12l.1.3.23-.46c.03.23.2.5.47.47l.13-.69h.33c.04.28-.15.56-.12.85,0,.04.02.07.03.1.06-.12.13-.23.18-.34,0,0,.02.02.03.03.04-.11.05-.23.11-.32.07-.1.19-.17.29-.25-.13-.06-.25-.13-.37-.19.07-.03.17-.08.26-.14,0,0,0-.03-.01-.03,0,0-.02,0-.03,0,0,0-.01,0-.02,0,0,0,0,0,0,0Z"/><path class="cls-2" d="M11.54,86.81c-.22-.32-.44-.64-.66-.97l-.09.5.35.06-.23.29.63.12Z"/><path class="cls-2" d="M27.98,42.35c.24-.48.47-.96.68-1.41.13-.3.25-.57.37-.83-.03-.03-.05-.06-.07-.1.21-.31.21-.32-.1-.48h0c.06.09.1.15.16.24-.1,0-.18.01-.26.02l-1.11,2.7c.08-.1.19-.15.35-.14Z"/><path class="cls-2" d="M29.42,38.35l-.07.15c.06,0,.11,0,.17,0-.03-.05-.06-.09-.1-.14Z"/><path class="cls-2" d="M8.18,70.62c.11.01.21.02.29.02.02-.24-.04-.28-.28-.22,0,0,0,0,0,0,.02.08.01.14,0,.19Z"/><path class="cls-2" d="M28.22,42.4s0,0,0,0c0,0,0,0,0,0l-.11.24s.05.02.08.04c-.09.14-.17.26-.26.39,0,0,0,0-.01-.01l-.41.9c.04.06.07.11.12.18.31-.54.62-1.17.87-1.71.14-.3.09-.9.56-.89-.25.87-.6,1.79-.76,2.67-.02.12-.15.38.06.35.29-.92.61-1.81.78-2.77.11-.59.2-1.02.29-1.36-.1-.03-.19-.08-.26-.13l-.96,2.11Z"/><path class="cls-2" d="M26.14,44.11s.05.03.07.04c.04-.03.08-.05.11-.08-.06,0-.11.02-.18.03Z"/><path class="cls-2" d="M27.71,42.85c-.06-.05-.1-.09-.16-.15l-.52,1.26c.24-.34.46-.72.68-1.11Z"/><path class="cls-2" d="M13.04,88.94c-.49-.65-.95-1.32-1.42-2.01,0,.23-.15.64.22.58v.23s-.35.12-.35.12c.68-.17.27.49.93.47l-.22.13.09.33-.21.07c.09.29.73.16.57.68-.03.1-.23.03-.23.24-.01.52.33.51.34.55.02.07-.12.19-.08.31.04.11,1.37.86,1.44,1.19l-.06-.46.93.12v.34s.3,0,.3,0l.05.48c.13-.05.25-.06.36-.03-.88-1.11-1.81-2.18-2.66-3.31Z"/><path class="cls-2" d="M26.63,43.8c.16-.18.29-.39.34-.65-.15.15-.28.29-.41.42.04.06.07.14.06.23Z"/><path class="cls-2" d="M9.73,76.13s.09-.01.13-.02c-.02-.2.08-.1.23-.02l.12-.34c-.07,0-.12-.03-.18-.04.01.07.02.14.04.21-.1.04-.23.09-.36.14,0,.02.01.05.02.07Z"/><path class="cls-2" d="M3.39,55.61c.08-.04.15-.07.22-.1-.01-.1-.04-.21-.04-.31,0,0,0-.02,0-.02-.06.14-.11.28-.18.44Z"/><path class="cls-2" d="M4.36,60.17c0-.07,0-.14-.01-.21-.06.05-.07.12.01.21Z"/><path class="cls-2" d="M5.94,45.54c-.07.21-.14.39-.12.53.02-.03.05-.06.06-.1.04-.14.05-.29.06-.44Z"/><path class="cls-2" d="M4.3,59.69s.03.02.04.03c-.01-.29-.03-.58-.05-.85-.05.05-.09.11-.16.16-.21.16-.09.54.17.67Z"/><path class="cls-2" d="M4.92,51.65l.03-.07s-.05.04-.07.06c0,0,.02,0,.03.01Z"/><path class="cls-2" d="M5.93,47.65c0,.09-.02.18-.01.27,0,.13.05.27.1.41.12-.4.29-.89.38-.96.02-.02.75-.02.09-.32l-.56.6Z"/><path class="cls-2" d="M16.91,50.65s.02-.09.03-.13c-.02.03-.05.07-.07.1,0,0,.03.02.04.02Z"/><path class="cls-2" d="M39.48,37.8l.41-.52-.22.06s.01.02.02.03c-.08.14-.15.27-.23.41l.02.03Z"/><path class="cls-2" d="M11.34,40.87c.06.26.14.51.5.42-.14-.35-.17-.68-.11-.96-.17.25-.29.42-.39.54Z"/><path class="cls-2" d="M6.95,75.41c-.05-.07-.1-.16-.14-.22,0,0,0,0,0,0,.05.06.1.15.14.22Z"/><path class="cls-2" d="M11.49,78.89l-.46-.78c0,.09-.01.19-.02.32.16.22.33.41.48.45Z"/><path class="cls-2" d="M3.97,57.83s-.02-.06-.03-.09c.06-.01.12-.03.17-.04-.13-.54-.31-1.11-.43-1.65-.1.02-.22.04-.35.08.18.07.28.1.31.11-.09.32-.17.63-.26.96.11,0,.19.01.26.02-.07.16-.14.32-.21.49.2.04.37.08.55.11Z"/><path class="cls-2" d="M10.23,76.78c.01.09,0,.19-.14.27-.02.02.04.16.09.31,0,0,.02,0,.03,0,.07-.12.11-.2.18-.33l-.16-.27Z"/><path class="cls-2" d="M8.01,73.76c-.14-.01-.29-.03-.47-.04.12.1.23.18.33.26,0-.12.07-.17.14-.22Z"/><path class="cls-2" d="M7.54,77.58s0,0,0,0c-.14-.32-.28-.64-.41-.97.13.32.27.65.41.97Z"/><path class="cls-2" d="M10.82,77.77c-.03.1-.05.19-.07.28,0,0,0,.01,0,.02.07,0,.15-.01.23-.02l-.16-.27Z"/><path class="cls-2" d="M17.08,55.14c-.2.09-.28.25-.31.43.03,0,.06,0,.09,0-.05.05-.07.08-.1.12-.02.18,0,.38-.05.53-.01.04-.03.13-.06.22.06.04.12.07.21.1.24-.41.49-.8.22-1.4Z"/><path class="cls-2" d="M30.38,38.71c.1-.03.17-.13.23-.18.04.09.07.17.11.26l.14-.42s-.08,0-.13,0c0-.02,0-.04-.01-.06.05,0,.11-.03.17-.04l.04-.12s.02.07.02.11c.1-.03.18-.04.25-.03.09-.3.18-.61.28-.91-.07-.01-.16,0-.23,0-.07.2-.14.38-.23.53-.12.2-.68.66-.81.91.06,0,.12-.01.17-.03Z"/><path class="cls-2" d="M27.71,38.3s-.02.06-.03.09c.05.01.1.03.19.05-.1.11-.19.2-.26.28.04.11.07.22.13.39.11-.3.23-.6.35-.89-.12.02-.25.05-.37.07Z"/><path class="cls-2" d="M29.31,37.9c-.07.09-.14.19-.25.34-.02-.07-.03-.14-.05-.2-.03.07-.06.15-.09.22.06.05.15.08.28.1-.09.07-.14.11-.2.15,0,0,0,0,0,0,0,0,0,0,0,0,.04,0,.08,0,.11,0,.09-.19.19-.37.28-.56-.03-.02-.05-.04-.08-.06Z"/><path class="cls-2" d="M30.55,41.78c-.11.3-.63.56-.14,1.02l.41-.47c.1.92-.92,1.11-1.04,1.93-.03.33.13.08.23,0,.25-.22.32-.38.7-.41,0,.26.07.61-.23.7l-.12-.35-.07.47c-.7-.15-.59.2-.96.52l.27,1.58c.07-.52.2-1.01.58-1.4l.08.33c.43-.12.38.7.73.6.04-.01.44-.54.57-.66.06-.05.24-.02.27-.06.11-.14-.08-.58.37-.56l-.06-.23-.52-.06.47-.18-.12-.46h.7c.1-.14-.42-.62-.06-.7.28-.06.9.66.52-.18l-.35.07v-.47s-.7,0-.7,0l.22-.13-.1-.22c.55.22.97.01,1.51-.12h-.46s0-.58,0-.58c.58.27.56-.41,1.05-.35l-.23.29.46.06-.12.46.35-.23.12.4-.46-.06c.11.75-.95.66-.76,1.28.23-.45,1.04-.55,1.29-.81.21-.22.12-.5.19-.57.05-.05.53,0,.44-.48h-.35s.23-.35.23-.35l-.47-.12c.67-.23.52.07.72.15.22.08.45.08.67.08-.06.29-.7.03-.58.46.31-.08.8.17,1.04-.13.03-.04,0-.86-.01-.94-.14-.56-1.1-1.41-1.68-1.46-.25-.02-1.4.66-1.44.09h-.11c.03.43-.45.39-.55.49-.1.1-.05.4-.17.53-.08.09-.32.07-.41.17-.13.13-.05.45-.26.44l.38-2.47.02-.06s-.08.03-.12.04c-.19.82-.33,1.65-.46,2.49l-.18.11.11-1.51-.41,1.98c-.22.25-.29-.15-.3-.47-.03.04-.07.07-.1.11.02.02.07.09.12.14-.1.08-.2.16-.31.25-.01-.05-.03-.09-.04-.14h0s0,0,0,0c-.06-.19-.11-.38-.17-.57.06,0,.12,0,.17,0,.05-.26.16-.5.22-.77.1-.43.22-.9.36-1.38-.09.09-.19.21-.29.31-.01-.02,0-.03-.02-.05-.07.24-.15.48-.22.72-.18.62-.22,1.28-.44,1.89Z"/><path class="cls-2" d="M19.62,46.01s-.05-.04-.08-.05l-.02.11s.07-.02.1-.06Z"/><path class="cls-2" d="M31.22,41.06s.03,0,.05,0c0-.05,0-.1.01-.12l-.06.12Z"/><path class="cls-2" d="M33.16,37.14c-.1.02-.18.04-.26.05-.13.4-.25.8-.31,1.05-.03.11-.05.23-.08.34.04.01.07.02.11.03l.53-1.48Z"/><path class="cls-2" d="M33.35,35.97c-.04.08-.08.19-.13.3.15.5.08.56-.24.67,0,.01,0,.03-.01.04.06.04.12.08.2.14l.55-1.53c-.16.05-.3.23-.37.38Z"/><path class="cls-2" d="M18.59,49.09c.76-.25,1.58.52,2.38.58l-.41-.7c.33-.11.2.21.23.23.26.17.22-.44.51-.12.11.12.08.22.07.36.42-.43.95.04,1.45.06.09,0,.33-.03.29-.18-.14-.11-.88-.34-.91-.38-.06-.07.04-.29-.09-.33-.19-.06-.6,0-.87-.07-.94-.25-1.64-.75-2.47-1,0,.01,0,.02,0,.03-.08-.04-.16-.07-.25-.11-.02,0-.04-.01-.06-.02,0,0,0,0,0,0-.03-.01-.06-.03-.1-.04-.04.25-.07.48-.11.7l.12.04c.13-.13.27-.25.42-.4-.02.2-.07.39-.16.53.12,0,.21-.06.18-.25h.23s.01.33.01.33l.57.19-.29.41-.06-.35h-.58c.26.36-.2.08-.11.46Z"/><path class="cls-2" d="M6.01,44.95c-.02.05-.03.11-.03.16,0-.05.02-.1.03-.16Z"/><path class="cls-2" d="M7.79,73.61c.1.04.1.04.21-.12.02-.03.07-.06.11-.07,0-.24-.06-.47-.12-.69-.57-.06.31.54-.29.81-.08-.07-.13-.14-.18-.2.02.12.11.22.27.28Z"/><path class="cls-2" d="M5.91,49.16c-.01-.12-.02-.24,0-.36,0-.05.03-.16.06-.29-.05,0-.11-.01-.18-.02-.21.52-.25.64.12.67Z"/><path class="cls-2" d="M17.36,46.19c-.05.05-.1.09-.16.14.07.02.13.04.2.06,0-.07-.03-.13-.04-.2Z"/><path class="cls-2" d="M17.91,46.67c.07.2.13.39.19.58.05,0,.1,0,.15-.01.02-.11.05-.23.07-.35-.12-.11-.27-.2-.42-.22Z"/><path class="cls-2" d="M14.05,66.73l.35-.06-.35.46.58.29-.47.52.64-.46.17.23-.24.06c.21.7.72-.46,1.05.47l-.35.41c.18-.08.83-.18.92-.25.01-.01-.12-.22.06-.34.2-.14.56-.13.77-.34.15.43-.34.33-.35.64l.46.19-.12.67-.57.02-.12-.35c0,.16-.15.3-.07.46.1.2.41.15.42.35l-.58.23-.12-.35c-.11.15-.04.3.02.4.1.06.21.12.31.18-.07.07-.16.16-.26.26l.51-.26.12.46s-.05-.01-.08-.02c-.07.13-.11.21-.18.33.21-.05.35-.09.44-.12-.05.18-.1.38-.16.59-.07-.11-.15-.22-.23-.33-.06,0-.1,0-.13,0,0,.01,0,.02,0,.03l.1.2-.07.03s.01.09.02.13c.1-.02.18-.01.24.09,0,0,0,0,0,0,0,0,0,.01,0,.02.01.03.03.05.04.09h-.05c-.01.08-.02.15-.03.18-.08.03-.15.05-.23.08l.37.2c.34-.2.39-.78.87-.69l-.46.7c.28.13.35-.47.46-.35.18.18.03.67.35.58-.02-.33,0-.77.35-.93l-.11.7.46-.58-.23.64.23.06c-.03-.25.13-.26.35-.23l-.1-.5.57-.66c.03.46-.63,1.81,0,1.86l.24-.52-.23-.44.22-.79.23.06v-.64s-.47.29-.47.29l.49-.59s0-.08,0-.12l-.38-.05.47-.52-.33-.07-.14-.57.53-.07.23.19-.18.81c.37.11.34-.59.48-.68l.45-.02-.35.93c-.13.1-.12-.47-.29-.12-.12.25-.43,1.21-.29,1.4l.58-.35-.23-.17c.42-.49.72-.53.47-1.22.33.12.43.11.7-.12.25.8-.2.59-.32.72-.06.05-.11.65-.14.8.4-.24.86-1.34,1.32-1.15.15.06.35.55.77.45l-.24-.93c-.17.02-.27.11-.45.06-.23-.07-2-1.39-2.22-1.63-.26-.27-.41-.6-.55-.93-.24.09-.46.17-.73.27h0s-.58.13-.58.13c-.08-.39.25-.47.45-.67-.23-.12-.46-.24-.68-.35.13-.48-.01-.89-.25-1.3.35-.2.06-.31-.13-.44.06-.05.11-.1.15-.14,0-.01,0-.03,0-.04,0,0-.01,0-.02,0,.03-.33.06-.66.09-.99,0,0,.01,0,.02,0,0-.15-.06-.31-.17-.48-.04.12-.09.24-.13.35-.16,0-.33-.02-.54-.03.12-.19.6-.13.27-.54.08,0,.15,0,.23,0-.02-.02-.03-.04-.06-.07l.19-.64-.58.46c.08-.34.03-.68.47-.58v-.17c-.83-.99-1.8-3.17-1.4-4.43.05-.16.13-.31.21-.46-.08.06-.14.11-.2.15-.01-.02-.03-.05-.04-.07-.14.54-.34,1.32-.38,1.37-.18.28-.35.1-.34-.18,0-.29.29-.97.5-1.6-.06-.12-.11-.24-.13-.37-.02-.18.12-.27.32-.31.02-.11.03-.21.03-.3,0-.24-.25-.42-.19-.65l.45-.32v-.23s-.23-.06-.23-.06c.38-.07.37-.85,0-.93l.47-.58-.23-.06c.27-.3.25-.44.12-.81l-.41.11-.06-.23c.6.08.36-.4.39-.76-.18-.03-.37-.05-.53-.08.09.1.19.22.23.27-.14.18-.24.3-.35.45-.06-.02-.19-.05-.4-.11.06.08.09.14.12.2.1.01.18.02.19.03-.31.38-.36.78-.37,1.26l-.8.02.06.23-.07-.03c.09.16.19.33.31.52-.2.13-.36.23-.52.33-.32-.19-.33-.44-.29-.7-.18.01-.41-.12-.54-.06-.09.04-.15.11-.18.18.05.02.1.04.15.06-.04.13-.08.28-.13.47-.02-.06-.05-.1-.08-.15,0,.12,0,.23-.04.3-.17.36-1,.49-1.5.35v.04s-.04.01-.06.02c-.02-.03-.04-.06-.07-.11-.04-.02-.07-.03-.1-.05-.02.16-.04.28-.05.39-.09-.05-.2-.1-.34-.17.06-.1.11-.19.18-.3-.13.02-.24.04-.35.06-.01-.04-.03-.07-.04-.11.1-.04.19-.09.29-.13,0-.04-.03-.09-.03-.13.02-.16.04-.33.06-.51-.12-.11-.28-.16-.45-.17-.06.19-.09.43-.21.56-.12.12-.36.12-.61.19.1.09.17.15.31.27-.15.06-.27.14-.38.14-.11,0-.22-.11-.3-.16.18-.27.34-.48.45-.71,0-.02,0-.04,0-.05,0,0-.01,0-.02.01-.36-.16-.24-.49-.31-.8.44.09.79.08,1.05-.35l-.69.22c-.12-.29-.3-.6-.32-.92-.02-.36.32-.44-.05-.93l-.23.35-.29-.35-1.34.75-.27.9c.09.03.17.12.26.19-.22.37-.17.59.21.77-.1.06-.18.11-.27.17.43.54-.12,1.01-.11,1.53,0,.05-.23.11-.48.22.32-.47-.02-.56-.24-.78.05.45.1.86.16,1.38-.15.02-.4.14-.55.07-.27-.15-.34-.79-.12-.97.25-.2.33-.37.1-.64-.05-.07,0-.22,0-.33,0-.1.06-.21.03-.3-.04-.16-.04-.3-.02-.43l-.34-1.7-.58.46c.27-.62-.19-.51-.12-1.05l-.46.12.12-.46c.13-.1.12.47.29.12.1-.2.13-.38.14-.56-.01-.18-.03-.37-.04-.56-.01-.07-.02-.14-.03-.22-.08-.02-.23-.05-.39-.08-.09.49-.17.94-.25,1.4,0,0,.01,0,.02,0-.05.18-.1.36-.15.54-.03.1-.06.21-.1.31.02.01.04.03.05.05.22-.05.47-.15.57.19.08.26-.04.63-.22.86.05.21.1.41.16.51.08.15.25.32.42.51.15.09.31.16.32.25.03.3.41.61-.03.96.14,0,.22,0,.31-.01.01.04.03.08.04.12-.05.01-.1.03-.14.05.03.04.05.09.05.16,0,.15-.32,1.26-.4,1.46-.13.31-.55.8-.61,1.02-.03.09-.05.22-.06.34.01-.01.01-.03.03-.04.01.42.02.72.03,1.12-.07-.06-.12-.12-.16-.19-.04.39-.09.78-.21,1.05-.05.11-.58.16.01.38l-.53,2.04-.06-.47-.23.47s-.05-.09-.08-.13c-.02.47.15,1.21.47,1.5-.21.07-.39.14-.57.2l.03.09c.11-.02.22-.05.39-.08,0,.21,0,.41,0,.64.09-.02.19-.05.24-.06.09.21.18.4.28.63-.18.18-.4.4-.62.61.26-.03.6-.22.8.21-.1.02-.19.04-.26.05.01.12.02.22.03.32,0,.06-.01.18,0,.18.43.1.41.48.46.9.22-.19.37-.31.54-.45.51.59.11,1.31.32,1.92.23.67.18,1.33.04,1.98.1-.11.18-.18.25-.25.04.05.08.11.13.16,0,.12,0,.23-.01.34.21-.07.4-.13.6-.19,0,.03.02.06.03.09-.06.08-.12.16-.18.24.09.04.17.07.26.12.02.01.04.03.06.04l.33-.26c.23.14.59.19.58.53.03-.02.16.02.23,0v-.17c-.22-.24-.43-.49-.72-.59-.06.02-.13.03-.21.04,0-.02,0-.04,0-.07-.04,0-.07-.02-.11-.02.01-.05.05-.08.11-.1,0-.13,0-.27-.01-.4.05,0,.11,0,.16-.01.02.11.04.23.07.38.03,0,.05,0,.08,0,.05-.07.09-.13.13-.18,0,0,0,0,0,0,0,0,0,0,0,0h0s0,0,0,0c-.16-.17-.32-.34-.52-.54.03-.01.13-.08.17-.06.27.17.54.35.79.54.01,0,.02.02.02.04l.29-.87-.24-.12.24-.52-.58.12c.33-.88-.66-.93.23-1.69l-.35-.06c-.03-.09-.02-.15,0-.2,0,0-.02.02-.02.03-.16-.04-.33-.09-.63-.17.09-.17.17-.32.24-.47.15.17.3.35.46.52.09-.1.27-.13.31-.35l-.35.06v-.5c.03-.17.96-.25,1.19-.34.19-.07.28-.27.38-.32.29-.14.06.65.08.75.02.08.17.07.19.15.22.69.17,1.05.13,1.77l.12-.35c.22-.07.37.15.52.17.62.09.46-.27.64-.46.08-.08.19-.15.31-.22-.05-.19-.04-.49,0-.99.19.12.34.22.52.33-.22.1-.36.17-.51.24.03.04.07.08.1.12.14,0,.21.03.24.07.1-.07.19-.15.27-.26.17-.24.16-.56.41-.76.2.77-.4.88-.75,1.38,0,0,0,0,0,.01l.46.07.83-1.45.57.1-.12.23.24.29ZM18.15,70.4c-.11-.05-.26-.07-.32-.16-.19-.27.05-.32.38-.37-.02.17-.04.35-.05.52ZM18.19,65.55q.15.51-.44.38c.15-.14.29-.25.44-.38ZM17.02,65.97c-.11,0-.23,0-.39,0,.12-.13.28-.22.3-.34.01-.09-.15-.21-.24-.34.47.04.51.13.33.67ZM17.07,60.62l.24.81c-.43.12-.18-.53-.46-.58l-.58.81c-.01-.3.47-1.26.81-1.04ZM8,68.09c-.06-.3-.11-.54-.18-.87.46.21.52.5.18.87ZM14.31,58.15c.17-.28.27-.46.38-.64.02.01.04.02.06.03-.01.15-.03.29-.04.44.04,0,.08.01.11.02.03-.11.06-.22.09-.33.03,0,.05-.01.08-.01.04.11.08.23.16.46-.28.01-.52.02-.84.04ZM15.51,66.6c.06-.27.11-.53.16-.79.21.33.16.61-.16.79ZM15.97,59.25c.05.07.03.19.05.29-.04.01-.08.02-.12.03-.03-.08-.05-.18-.1-.25-.05-.07-.14-.13-.2-.19-.06.09-.19.2-.16.26.07.17.2.32.35.55,0,0-.04.05-.09.12-.36-.14-.47-.43-.4-.75.03-.16.22-.29.34-.43.12.12.25.23.35.36ZM14.14,55.06c-.03.15-.05.24-.07.34.03.01.07.03.1.04.08-.1.13-.23.23-.28.16-.09.42-.22.52-.16.17.11.27.35.36.56.05.1.02.25,0,.37-.06.35-.14.7-.2,1.05-.15.09-.32.21-.5.32-.17.1-.44-.07-.54-.31-.05-.12-.14-.21-.22-.32.49-.29.53-.65.11-1.13-.08-.09-.09-.26-.14-.43.12-.02.22-.04.34-.06ZM14.17,58.07c-.02.34.44.71-.06,1.03,0-.24.01-.49.02-.74-.05,0-.1,0-.14,0,0,.12.02.24.03.43-.1-.11-.17-.18-.25-.27-.03.11-.05.2-.08.29-.09-.63.03-.79.49-.76ZM13.97,61.14c.06.17.07.36.1.55-.07.02-.14.04-.21.06-.09-.16-.17-.33-.29-.55.16-.02.4-.08.41-.05ZM13.25,59.01c-.37-.28-.5-.42-.49-.49q.53.31.49.49ZM12.89,57.45s.06.05.09.08c-.01.12-.03.25-.05.38-.17,0-.3,0-.49,0,.17-.17.3-.32.44-.46ZM10.25,54.51c.28.25.56.46.8.72.21.23.03.72-.26.81-.08.03-.14.13-.22.19-.11.09-.22.19-.41.23.01-.1.03-.19.03-.29,0-.07-.04-.15-.07-.22-.04-.09-.09-.18-.13-.27.09-.03.18-.07.27-.1.09-.04.18-.08.32-.15-.54-.25-.6-.42-.34-.93ZM9.86,57.69c.02-.09.13-.25.18-.25.12.02.31.1.32.18.03.22-.03.44-.05.71-.44-.15-.49-.38-.45-.64ZM7.02,58.95s.09,0,.14.01c-.03.24-.06.47-.1.78-.41-.33-.1-.55-.04-.79ZM6.69,62.97c-.02-.3-.04-.52-.06-.82.45.39.47.48.06.82ZM6.49,59.17c-.02-.24-.03-.47-.05-.71l.16-.02c.29.23.25.47-.11.73ZM5.93,57.34c-.03-.08.02-.25.1-.3.24-.17.51-.31.77-.46-.17.37-.34.7-.48,1.04-.13.32-.28.65-.05.99-.03.02-.05.04-.08.06-.04-.07-.09-.15-.13-.22-.05-.09-.11-.17-.15-.26-.03-.08-.09-.21-.06-.25.15-.19.19-.37.09-.6ZM5.78,59.85c.13.71.26,1.36.39,2.05.01,0,.11,0,.28.02-.13.12-.22.21-.33.31.08.03.16.07.2.08-.04.14-.07.27-.13.48-.01,0-.11,0-.13,0-.14-.47-.32-.9-.37-1.35-.04-.42-.25-.76-.37-1.14.13-.13.27-.28.46-.47ZM5.03,63.45c0-.28,0-.52,0-.85.32.36.29.58,0,.85ZM5.34,63.31c.08.07.15.13.23.19.07.05.14.1.21.15-.06.24-.51.38-.11.74-.35-.06-.49-.56-.33-1.08ZM6.29,66.67c-.19-.22-.38-.43-.56-.65,0-.18.01-.39,0-.6,0-.08-.07-.16-.12-.22-.07-.08-.16-.14-.25-.21.09-.09.18-.19.34-.35.02.48.27.82.57.82-.11.17-.2.31-.29.45.47.26.53.41.32.74ZM6.58,66.39c.61,0,.36.53.54.78-.32-.15-.62-.32-.54-.78ZM7.44,66.23c-.24-.16-.41-.27-.58-.38.03-.04.06-.08.08-.12.05.05.09.1.14.16,0-.67-.68-1.12-.44-1.85-.05.01-.1.03-.15.04.02.1.04.21.07.37-.31-.17-.58-.31-.85-.46l.03-.06c.17.01.34.03.63.05-.13-.21-.21-.35-.34-.57.33-.03.64-.05.95-.08.52.87.68,1.79.45,2.9ZM7.54,56.84c-.19-.13-.31-.22-.48-.34.14-.2.28-.38.42-.57.43.29,0,.56.06.91ZM8.03,66.32s-.07.02-.1.04c-.07-.17-.14-.34-.24-.59.21-.02.33-.03.45-.04,0,.03.02.07.03.1-.07.04-.15.08-.23.12.03.11.06.24.09.37ZM10.32,62.71l-.22-.1c0,.31-.4.51-.47.66-.44.9-.05,2.62-1.4,2.59-.03-.32-.12-.61-.16-.9-.05,0-.11-.02-.17-.05.06-.05.11-.09.16-.14,0-.16.02-.33.1-.51.02-.04.29-.11.26-.32-.02-.19-.46-.4-.19-.76l-.35.07c.04.24.08.44.11.64l-.13.06c-.08-.19-.2-.37-.23-.56,0-.03.01-.06.03-.09h0s0-.23,0-.23c.17-.01.26-.09.34-.19-.04-.02-.07-.05-.12-.08.1-.07.2-.14.28-.2.05-.11.11-.21.2-.29-.36-.09-.25-.41-.22-.74l.45-.13.18.7c.09-.07.15-.16.2-.26.27-.55-.18-.41-.14-.49l.23-.29-.35-.06.11-.25c-.01-.38-.27-.35-.6-.29.12-.19.2-.32.3-.48-.09-.07-.19-.15-.24-.19.11-.31.2-.59.3-.88-.32-.4-.43-.84-.26-1.34.02-.06-.02-.19-.04-.19-.1,0-.2.02-.3.03,0,.03,0,.06.01.09.05,0,.1-.02.15-.02l.04.05c-.07.05-.16.15-.2.13-.08-.03-.2-.14-.19-.2.03-.14.1-.3.2-.39.1-.08.26-.09.39-.13-.06-.02-.11-.05-.19-.08.16-.12.3-.22.47-.33.14.12.29.26.46.41-.24.25-.46.15-.69.01.02.13.03.25.05.36.75-.07.17.64.52.75.21.09.42.18.63.27-.09.08-.18.17-.29.26.05.02.15.06.26.11-.14.12-.26.23-.37.33.03.03.06.07.09.1.06-.04.13-.09.27-.19-.07.21-.11.34-.15.46.03.02.06.04.09.06.15-.21.3-.42.5-.71,0,.19,0,.3,0,.42.26.16.39.06.51-.19.04-.08.19-.12.3-.17.05.11.12.21.15.32.07.25.11.5.18.78-.05.07-.13.21-.23.32-.09.1-.22.26-.31.25-.11-.02-.19-.19-.28-.3.03-.02.06-.05.1-.07l.23.28s.07-.02.11-.03c-.05-.2-.11-.41-.17-.66-.08.09-.14.16-.21.24-.07-.04-.15-.09-.21-.12-.16.18-.42.33-.46.53-.05.24-.12.31-.2.3l-.12,1.25.3.19.29-1.04.23.35.23-.58-.12,1.86ZM10.68,63.64l.23-.81-.46.12.02-.45.41-.17.85-1.01c-.15.84-.46,1.68-1.05,2.33ZM11.33,64.58c-.21-.18-.3-1.4-.06-1.66.02.12.04.2.06.35.1-.14.16-.23.28-.39-.14.52-.1.93.23,1.28-.18.15-.34.29-.51.42ZM11.99,59.2c-.13,0-.32-.05-.38-.14-.17-.29-.45-.58-.12-.95-.03-.02-.06-.05-.09-.08.14-.13.26-.3.43-.37.22-.09.35-.02.4.29.06.35.14.68-.03,1.01-.05.09-.13.24-.2.24ZM12.55,62.63c.08.12.16.24.24.36-.04.03-.09.06-.13.09,0-.37-.63-.06-.55-.6.11.05.18.09.26.13.24-.25-.32-.73.22-.88.17-.05.36-.02.5-.03-.07.25-.08.44-.17.59-.08.14-.24.23-.36.34ZM13.05,63.86c-.04-.21-.1-.43-.13-.66-.01-.08.02-.17.04-.26.04,0,.08.02.12.03,0,.31.28.63-.03.89ZM13.07,60.89c-.16-.12-.33-.27-.17-.54.06-.09-.03-.27-.05-.46.13.11.19.19.26.21.43.1.48.25.26.59-.09.13-.06.38-.3.21ZM13.26,62.83c.02-.25.05-.53.07-.8.03,0,.07,0,.1,0,.03.09.07.17.12.31.12-.19.2-.33.29-.46l.1.03c-.06.15-.1.33-.2.46-.13.17-.31.29-.49.46ZM13.65,63.03c.07-.1.26-.15.4-.15.09,0,.18.14.35.28-.21,0-.3,0-.4,0,0,.15,0,.28-.01.41,0-.26-.58-.2-.34-.54Z"/><path class="cls-2" d="M5.96,47.08s0,.07,0,.1l.16-.6c-.06-.14-.14-.16-.22-.15.04.22.05.43.06.65Z"/><path class="cls-2" d="M8.42,74.78c.04.14.12.21.23.24-.1-.34-.31-.73-.47-1.02-.14-.25-.15-.05-.2.06.11.09.2.17.29.26.1.11.12.29.16.45Z"/><path class="cls-2" d="M23.69,40.64s-.09.03-.14.04c-.06.03-.12.06-.17.09-.13.06-.27.11-.39.19-.18.12-.22.25-.05.39l.82-.28c-.03-.18-.05-.31-.08-.43Z"/><path class="cls-2" d="M44.4,20.27s-.02.06-.02.1c.14.04.28.08.42.11-.02-.04-.03-.08-.06-.12-.12-.03-.23-.06-.34-.09Z"/><path class="cls-2" d="M96.82,21.32c-.26-.83.08-1.15-.94-1.62l.23-.29c-.52-.1-.49-.38-.35-.82l-.34.11c-.22-.6-.85-.44-.48-1.28l-.35.18c-.12-.05-.72-.93-.7-1.12-.66.4-.31-.54-.35-.57-.02-.02-.23,0-.34-.07-.11-.08-.53-.41-.59-.46-.23-.22-.24-.64-.65-.75l.18-.7-.35.35c.06-.32-.26-.19-.46-.3-.52-.29-.72-.51-1.01-.97l.18-.47-.35.47c-.72-.05-.28-.31-.47-.81l-.35.23-.25-.68c-.59.12-.87-.63-1.5-.6l.12-.46c-.64.38-.82-.36-1.07-.55-.18-.14-.91.09-.56-.85l-.19.23c-.38.1-.47-.28-.53-.32-.22-.12-.64.12-.69-.37l-.34.1.12-.35c-.44.11-1.08-.31-1.49-.54-.2-.11-.56-.27-.59-.29-.06-.05-.02-.28-.13-.39-.03-.03-.55.02-.66-.38l-.28.09v-.35c-.28.21-.21-.05-.29-.09-.87-.37-1.82-.79-2.75-1.24-.15-.07-.34-.07-.45-.13-.2-.12-.2-.36-.25-.39-.09-.06-1.14.48-1.16-.47l-.69.11.23-.58c-.19,0-.17.32-.31.35-.15.04-1-.19-1.06-.27-.07-.08,0-.29-.02-.32-.01-.02-.24.15-.47.07-.54-.17-1.25-.67-1.84-.85-1-.31-2.49-.35-3.44-.75-.33-.14.07-.12-.58-.25-.37-.07-.58-.25-1.01-.08v-.58c-.04-.05-.22.18-.32.21-.46.11-2.1-.15-2.47-.56l-.17.34-1.21-.35v-.33s-.3.25-.3.25c-.28.05-.46-.18-.7-.23-.23-.05-.44.15-.64.15-.51,0-1.04-.24-1.56-.16l-.07-.36c-.19-.05-.05.21-.19.24-.37.07-1.15-.19-1.51-.2-.43,0-2.13.19-2.35.04-.05-.03-.01-.19-.03-.2-.03-.02-.28.23-.52.25-.32.01-.48-.2-.58-.2-.3-.01-1.02-.02-1.37,0-.25.01-.75,0-.85,0-.11.01-.22.27-.47.31-.45.08-1.17-.21-1.75-.13-.22.03-.15.22-.25.24-.61.14-2.08.01-2.84.17-.28.06-1.05.61-1.34.19-.13-.18.08-.58-.17-.59.02.32.04.67-.32.79-.87.11-1.71.38-2.56.58-.43.1-.98.11-1.46.27-1.38.46-2.94.78-4.46,1.26-.13.04-.25.14-.34.24l-.12-.23c-.22.52-.85.47-1.3.68-1.62.73-3.38,1.47-4.91,2.22-1.73.85-3.39,1.95-5.01,2.87-.4.23-.44.71-1.06.17.21.42-.05.56-.36.85-.6.56-1.4.87-2.05,1.27-.23.15-.98,1.1-1.24,1.32-2.78,2.4-5.56,4.77-7.65,7.87-.21.09-.75.85-.83.88-.06.03-.31-.15-.45-.1.22.55-.24,1.05-.54,1.5-.8,1.2-1.84,2.44-2.58,3.7-1.05,1.79-1.82,4-2.84,5.78-.37.64-.17.35-.35,1.04-.2.76-.79,1.56-1.06,2.29-.69,1.89-1.15,4.04-1.75,5.96-.05.16-.19.29-.3.4l.23.12c-.6.38-.33.73-.39,1.15-.18,1.29-.37,2.52-.65,3.75-.08.37.21.94-.36.99.37.33.07.58.12.98.03.21.22.39.23.59,0,.17-.17.34-.18.52-.03.43.17,1.16-.28,1.34.59.48.06,1.33.02,1.77-.03.41.21,1.4.18,1.96-.05.8-.47,1.55.04,2.33l-.23.11c.22.35.06.68-.02,1.05l.24.13-.24.41c.42-.06,0,.68.34.99-.15.25-.42-.12-.35.29h.47c.06.23-.24.29-.21.5.05.39.44.95.52,1.43.02.15-.12.34-.07.54.09.35.69.46.37,1.22-.07.16-.43.15-.27.61.45-.21.41.34.58.64.01.08-.58.06-.46.4.06-.16.58.16.59.19.03.1-.02.28.02.42.24.79-.04.72,0,.94.07.46.52,1.25.32,1.76l.25.14-.12.4.35-.23c-.06.44.18.83.23,1.24.03.24-.12.45-.07.74.02.12.52,1.78.58,1.91.16.37.63.5.43,1.11l-.47.06c.14.27.77.46.88.64.13.22-.06.45,0,.59.09.21.92.42.55.81l-.26.06c.03.24.43.37.45.47.04.22-.24.24.14.57l-.13.47.11.12.35-.06c.02.42-.22.24-.46.29.29.5.44.92.93,1.28-.6.26-.03.41.11.59.08.11.28.55.39.6.14.06.53,0,.77.28l-.1.56c.59-.33.96.7.93,1.16l.46-.23c.04.57.42.92.23,1.51.04.05.35-.15.51-.11.23.07.8,1.21.77,1.33-.03.15-.38.1-.35.29h.65s-.06-.08-.09-.13c.16-.04.24-.07.34-.1-.06-.18-.12-.37-.19-.58.2,0,.38,0,.54,0,.19.25.4.48.56.73.24.36.22.39-.11.69.17.02.33.03.48.07.14.03.27.1.35.13.02.25.04.47.06.74,0,0-.06.04-.12.09,0,.03.01.06.02.09.13-.01.26-.02.4-.03.09.36.38.43.75.35-.08-.15-.16-.31-.26-.5.13-.08.52-.13.21-.51.01,0,.03-.02.04-.03-.02-.07.09-.23.07-.36-.05-.45-.46-.99-.75-1.5-.05,0-.11,0-.15,0-.64-.04-.77-.59-.99-1.02-.14-.27-.38-.54-.2-.9.06-.12.11-.23.21-.43.08.14.09.18.1.19.44.25.67.68.92,1.09.05.08.08.17.11.26.07.02.12.01.06-.14-.24-.66-1.4-2.2-1.9-2.7-.06-.06-.27.03-.31-.11,0-.03-.18-.72.06-.62.31.29.67,1.02.99,1.22.17.11.31.07.23-.12-.14-.33-.96-1.06-1.1-1.35-.06-.12.05-.29-.05-.41-.12-.15-.31-.13-.36-.17.03.08.23.28.06.35-.49-.18-.69-.69-.88-1.15-.06.18-.12.33-.14.41-.27-.15-.52-.29-.77-.43-.09.18-.17.37-.27.58-.1-.37-.19-.73-.29-1.1.04-.02.08-.05.12-.07.11.14.22.27.34.43,0-.56-.52-1.16-.99-1.17-.1,0-.21.09-.31.14,0,0,0,0,0,0,0,0,0,0,0,0,0,0,0,0,0,0,.13.05.25.03.26.28.01.24.25.47.39.7.06.09.11.19.19.32-.16.04-.26.07-.39.1.12.25.63.31.33.69.08.05.17.1.26.15-.05.04-.09.08-.15.14.11.05.22.1.42.2-.21.08-.31.12-.46.18.19.19.36.35.53.52-.4.27-.41.46-.04.69.35.22.52.66.35.91.46.92.92,1.83,1.38,2.75-.02.02-.04.03-.06.05-.16-.24-.35-.47-.48-.72-.76-1.4-1.51-2.81-2.27-4.22-1.07-1.99-1.84-4.11-2.56-6.25-.61-1.81-1.14-3.65-1.47-5.54-.22-1.28-.49-2.56-.62-3.85-.18-1.77-.26-3.55-.36-5.33-.05-.91-.12-1.83-.09-2.74.05-1.59.14-3.18.26-4.77.1-1.24.25-2.49.41-3.72.1-.74.23-1.48.4-2.2.4-1.68.78-3.37,1.27-5.03.76-2.53,1.63-5.03,2.78-7.42.35-.73.72-1.44,1.08-2.16.07-.13.17-.25.33-.33-.04.1-.09.21-.13.32.03.01.06.02.09.04.11-.33.23-.66.34-.99.04-.1.05-.29.1-.3.38-.07.49-.38.61-.68,0-.02.07-.02.2-.05-.38.73-.74,1.4-1.09,2.07.02.01.03.03.05.04.12-.12.24-.25.36-.37.03.02.06.04.08.07-.07.15-.14.3-.22.44.02.02.04.03.06.04.09-.06.17-.12.26-.18.03.02.05.04.08.06-.26.3-.51.61-.77.91.03.03.05.07.08.1.1-.07.2-.15.39-.28-.05.18-.08.29-.11.4,0,0,0,0,0,0,.11-.17.21-.36.35-.52.1-.11.24-.19.38-.29.11.16.19.27.28.39.07-.06.13-.1.18-.15.02.02.04.04.05.07-.09.08-.18.2-.28.22-.42.06-.45.47-.58.71-.1.2.2.3.44.19.02.04.03.08.05.11-.14.08-.27.24-.41.24-.56.01-.43.51-.6.8-.07.11-.12.24-.16.36-.04.13-.12.31-.07.39.19.29.14.85-.18.9-.52.09-.54.58-.83.84-.02.02-.03.04-.04.06h0,0s0,0,0,0c0,0,0,0,.01,0,.26-.07.53-.15.81-.22-.11-.38.04-.55.34-.61-.26.7-.51,1.37-.76,2.05.05.07.11.14.22.29-.16-.03-.24-.05-.32-.06-.14.25.05.58-.19.81-.03.03-.03.14,0,.19.41.68-.12,1.18-.33,1.74-.02.06-.28.11-.32.07-.08-.08-.11-.24-.11-.37,0-.12.07-.24.13-.44-.01,0,.07-.02.25-.07-.2-.05-.3-.08-.4-.11.19-.26.36-.49.54-.75-.06-.07-.14-.16-.2-.22-.03-.25.36-.44.06-.72-.02-.02.1-.2.22-.42-.16.08-.26.14-.38.2.06.12.14.24.14.38-.01.33-.41.72-.2,1.13-.7-.3-1.18,1.07-1.71.85-.35-.15-.39-.37-.33-.61,0,0,0,.02-.01.02-.19.26-.28.6-.38.92-.03.08.04.2.07.32-.06.11-.15.26-.23.4.2.15.28.07.41-.08.14-.15.39-.21.59-.31.18.41-.02.57-.19.79-.23.29-.35.65-.52.98-.02.04-.08.07-.18.15-.03-.21-.06-.38-.09-.59-.46.3-.12.86-.47,1.15.03.02.06.03.1.05.05-.06.1-.13.15-.19.02.01.04.03.05.04-.1.13-.2.27-.3.4.25.14.21.27-.27.76.19-.07.34-.12.56-.2-.07.18-.11.28-.16.38l.06.04c.11-.11.23-.23.35-.34.05.05.1.1.15.15l.08-.03c-.03-.1-.06-.21-.09-.32.08-.21.19-.46.28-.7-.12-.15-.21-.27-.31-.4.02-.02.04-.04.06-.06.06.05.13.09.18.13.29-.26.4-.74.89-.77.21.28.16.85,0,1.32.06,0,.12,0,.16-.05.08-.12.25-.74.27-.91.07-.61-.27-.26-.32-.72l.33-.02.02-.33.29.35c.34-.18.39-.84.55-1.02.11-.12.34-.02.44-.1.18-.12.37-.61.64-.74l-.06.46.35.17c-.19.21-.61.28-.58.64l.19-.16s-.01-.01-.02-.02c.03-.05.08-.14.11-.13.02,0,.04.01.07.02l.07-.06.07.07c.18-.09.34-.18.49-.26.05-.13.09-.26.11-.4-.04-.07-.08-.15-.1-.23-.03-.14.07-.31.12-.5-.1,0-.22.01-.41.02.14-.13.19-.25.19-.35l-.42.47c-.07-.07.12-.36.36-.65-.05-.07-.12-.13-.22-.18.33-.37.65-.71.97-1.07-.34-.06-.62-.11-.91-.16,0-.05-.01-.09-.02-.14.46.03.91.05.97-.54.22-.15.46-.3.71-.46,0-.03-.02-.06-.03-.09-.15.02-.31.04-.52.06.07-.17.12-.3.18-.44.4.5.42-.13.67-.2.07.2.15.41.25.7.09-.36-.14-.79.4-.85.03.08.05.16.07.24.15-.05.27-.07.38-.08,0,0,.01-.02.02-.03.13-.02.54-.7.68-.54.04.04-.16.37-.4.7.08.12.13.32.14.66.1-.16.17-.27.32-.49.11.24.19.43.26.58-.14.39-.3.77-.4,1.17-.07.27-.21.35-.5.34-.16,0-.32.17-.56.31.21.09.32.13.37.16-.25.3-.5.61-.78.95.1.04.19.08.28.11.12-.52.57-.89,1.27-.99v.7s-.45-.1-.45-.1c-.59.77.07,1.19.1,1.97h-.26c-.31.27.07.3.15.47l-.64.1-.06-.22h-.17s-.52.75-.52.75l.46-.06-.23.7c.54-.08.45.57.93.47l-.11.3h-.44c.1.07.2.13.31.21-.18.07-.33.12-.5.18.26.32.69.18,1.02.25.11.02,0,.33.31.11.18.25-.63.61-.7.81.57-.1.7.36.82.82.27-.02.11-.33.12-.34.54-.3,1.12.08.92.69.3-.19.41.06.7.12l-.29.23-.12-.24-.36.12.07.47-.46.18.11.29.11-.23c.45.21.75,0,1.04-.09.07-.17.13-.34.2-.52-.01-.01-.03-.03-.04-.04-.08.07-.16.14-.23.21.08-.26.13-.55.28-.78.06-.1.32-.08.52-.12-.02.18,0,.28-.04.36-.12.23-.25.43-.19.74.01.06-.02.12-.06.17.29.09.74.25,1.05.39.07-.1.27-.25.65-.59.04.15.07.28.11.41-.03-.02-.06-.04-.09-.06-.11.14-.22.28-.33.41.19.16.15.51.64.21l-.12.93s0,0,0,0c.03.09.05.19.05.28,0,.05,0,.1-.03.15.15-.02.34.1.59.04.06-.01.15-.35.43-.24l-.23-.35.22-.02-.08-.27c.27-.09.38-.46-.01-.41-.07.27-.04.53-.35.4l-.11.12.11.64h-.46c.1-.34-.11-.8.35-.82-.47-.25.04-.88.29-.81.11.03.17.55.64.35l-.17-.23c-.05.04-.11.07-.18.09-.16-.51-.32-1.02-.5-1.57-.15.11-.25.18-.36.26.11.05.22.09.27.11-.4.15-.83.32-1.31.5,0-.32,0-.62,0-.93.1.03.16.04.24.07-.09-.22-.17-.41-.26-.63.13-.06.24-.11.36-.17.02.17.03.31.05.46.23-.15.21-.41-.01-.6.09-.15.43-.23.25-.46-.22-.18-.5-.31-.83-.4-.03-.16.12-.31.23-.42-.26,0-.33-.13-.28-.52.01-.1-.03-.21,0-.3.05-.15.11-.39.22-.42.21-.07.5-.19.66.16.04.09.14.15.21.23.09-.05.18-.02.23-.05.05-.03-.04-.29.26-.19l.09.64c.17-.39.34-.78.52-1.18.23.08.37.13.5.18.12-.09.22-.18.33-.26.02.02.04.04.07.06-.12.15-.24.3-.31.39.11.19.27.33.28.48,0,.17-.03.32-.07.48.03.04.05.08.1.13h-.14c-.1.28-.23.54-.34.82-.04-.01-.08-.02-.12-.03.04-.19.09-.37.12-.56.01-.09-.02-.16-.07-.22h-.03v.47s-.41-.23-.41-.23l-.17.46.59.18c.13.12-.25.45.6.18-.02-.01-.04-.03-.06-.04.1-.25.24-.56.36-.86-.06-.17-.05-.36.2-.61l.18.7c.16-.09.24-.07.28,0,0,0,0,0,.01,0,.06.05.06.11.04.19.02.1.03.21.08.29.17.26.73.59,1.04.71l-.17-.35.46.06c-.98-.67-.37-1.4.06-.29.6-.43,1.34.43,1.69-.11l-.35-.12.23-.12-1.4-.47c1.18.27,1.75.43,2.94.08.21-.06.45-.14.68-.23-.04-.06-.09-.11-.13-.16-.91.37-1.84.49-2.79.12-.19-.07-.55-.12-.47-.4,1.08.5,2.18.44,3.15.01.22-.22.37-.41.56-.51.13-.07.28-.1.44-.11.57-.45,1.06-1.03,1.4-1.7.24-.47.36-1.02.6-1.5.08-.16.16-.32.24-.48-.06,0-.11-.02-.17-.04-.89,2.25-1.89,4.36-4.76,4.45-.19,0-.71,0-.76-.24,1.07.03,2.11.07,2.91-.7-.07.01-.24.04-.23-.06.35-.45.81-.86,1.09-1.35.45-.79.8-1.75,1.17-2.71-.09-.1-.17-.2-.21-.29-.54,1.5-1.07,3.14-2.16,4.12-.16.14-.82.64-.99.64-.54,0-1.23.06-1.75,0-.05,0-.45-.11-.41-.23.46-.05.87.14,1.34.12,1.57-.05,2.41-1.52,3.08-2.74l-.23-.06c-.74,1.5-1.64,2.54-3.44,2.45-.17,0-.69-.03-.75-.24.93.13,1.69.23,2.5-.35.36-.26,1.75-1.9,1.91-2.28.04-.1.06-.22.09-.34-.1-.02-.2-.01-.29-.03-.33.89-.96,1.73-1.77,2.22.06.04.1.07.17.11-.14,0-.26.02-.38.02-.36.18-.74.27-1.15.29-.11.1-.28.14-.51.09.02-.04.03-.08.04-.12-.16-.02-.32-.04-.48-.09-.03-.2.28-.12.4-.11.05,0,.08.02.13.02.03-.19.06-.37.33-.4.07,0,.24.22.23.32,0,.06-.02.1-.04.14,0,0,.01,0,.02,0,.08,0,.5-.11.82-.2.04-.1.09-.19.13-.29.08.05.17.11.25.16.09-.08.04-.26.1-.31.18-.17.4-.28.61-.51.39-.44.7-.92,1.04-1.39-.07-.03-.12-.08-.14-.18-.44.61-.92,1.24-1.12,1.41-.56.48-1.71.81-2.44.71-.14-.02-.63-.15-.67-.32.43.14.81.18,1.17.16.03-.16.16-.27.37-.33-.16.04-.32.06-.48.06-.02.02-.04.05-.06.08-.38-.07-.75-.14-1.19-.23.11-.21.18-.33.24-.45-.07,0-.12,0-.18.01.01-.04.01-.08.03-.09.44-.23.74-.7,1.31-.69.24,0,.46.14.38.44.26-.23.45-.39.67-.57.03,0,.08.02.12.03l1.32-1.68s-.04.03-.06.03c-.12.01-.24-.01-.36-.04-.28.44-.59.84-.73.71l.42-.68c-.16.04-.32.09-.47.13.08-.16.36-.38,0-.48,0-.33,0-.63-.01-.91.11,0,.31-.02.5-.03.01-.04.02-.07.03-.11-.1-.1-.21-.21-.31-.31.06-.05.15-.11.18-.13.12.18.24.35.34.54.08.15.14.32.22.52l.6-.96c0,.3-.14.58-.27.84-.01.03-.05.1-.1.2.07.17.13.32.19.47l.18-.22c-.05.09-.1.2-.14.3,0,0,0,0,0,.01,0,0-.01,0-.02.01-.31.64-.7,1.38-1.21,1.91.07.02.14.04.23.06-.16.2-.32.39-.47.58.26-.22.53-.5.78-.82,0-.01,0-.03,0-.04.02,0,.03,0,.04,0,.63-.81,1.19-1.8,1.56-2.46.21-.38.24-.93.63-1.17-.08.54-.41,1.11-.67,1.59-.31.58-.74,1.35-1.23,2.02.01,0,.03,0,.04,0,.02.04.04.08.06.12-.06,0-.11-.01-.17-.02-.03.04-.06.08-.09.11.1.03.19.05.29.08.11-.14.21-.27.31-.42.7-.99,1.05-1.92,1.6-2.94.11-.21.26-.43.41-.64-.18,0-.36,0-.52-.05-.05-.01-.1-.29-.05-.33.14-.12.32-.18.53-.29.04.23.07.39.1.59.25-.35.53-.7.79-.98-.11.59-.67,1.05-.95,1.55-.35.62-.53,1.34-.86,1.93-.11.21-.43.68-.78,1.17.04.05.08.08.08.09.06-.02.11-.03.16-.04,0-.01.02-.02.02-.03,0,.01,0,.02-.01.03.1-.03.2-.06.29-.08.05-.26.1-.53.19-.76.33.11-.05.62-.12.84,0,.03,0,.06,0,.09.49-.18.27-.67.4-1.05.11-.33.26-.67.42-1.01-.01-.03-.03-.06-.04-.08.26-.25.06-.51.13-.77.03.1.07.2.1.28.04-.02.09-.03.13-.05.55-1.01,1.25-2,1.89-2.78l-1.52,2.64s.09-.03.14-.05c.03.06.05.16.1.17,0,0,0,0,.02,0,.49-.94,1.16-2.02,1.85-2.77l-1.65,2.93c.05.11.02.24,0,.39-.01.11-.04.23-.03.34.05-.1.1-.2.15-.3,0-.02-.01-.05-.01-.07,0-.04.05-.09.11-.13.49-.97,1.01-1.91,1.56-2.73.08-.12.18-.28.33-.31-.42,1.02-1.1,1.91-1.6,2.89-.02.04-.04.08-.05.12.06.07.11.15.14.23.03.09-.02.2-.03.3.48-.93.97-1.85,1.48-2.72.08-.13.12-.32.29-.35l-1.67,3.34c.1.09.19.18.28.27.16-.33.32-.67.52-1.04l1.34-2.56-1.7,3.74s.06.06.09.08c.04.02.09.03.14.03.16-.28.35-.61.6-1.05.09-.16.17-.33.25-.52,0-.02-.02-.04-.03-.07,0-.21.1-.41.16-.62.04.01.09.02.13.03,0,.02-.01.04-.02.05.16-.42.32-.84.49-1.21l.23.06c-.33.44-.5,1.19-.69,1.8.06.04.13.07.2.1.15-.45.29-.9.46-1.34.07-.17.19-.44.37-.5-.24.97-.55,1.92-.86,2.87h0s0,0,0,0c0,0,0,0,0,0,.07.03.13.05.2.06.07-.25.14-.5.23-.74.06-.18.13-.4.21-.64,0-.07,0-.17.01-.31,0-.11.01-.22.02-.35.08-.05.18-.11.26-.17.06-.16.13-.3.19-.41.13-.23.43-.35.45-.66l.29.35c.38-.48.46-1.04,1.1-1.22-.48-.32-.04-.79.31-.98.36-.19.35.06.58.08.08,0,.78-.23.96-.23.01-.43-.02-.78.25-1.15l-.46.12c.15.28.03.49-.18.69-.1.18-.28.02-.29-.06-.02-.11.22-.36.27-.54.07-.23.03-.61.2-.74.08-.06.29-.03.33-.07.06-.07-.03-.45.08-.68.35-.79,1.41-1.08,1.57-2.51.04-.35-.48.11-.68-.19l-.14-.79.46.29-.23.29.58-.11-.06.23.52-.12-.12-.35.52.24c.24-.27.36-.67.6-.92.32-.33,1.4-.87,1.89-1.12-.1-.05-.21-.1-.33-.16-.07.4-.27.07-.42.06-.15.19-.29.38-.49.65-.02-.2-.03-.31-.05-.46-.13.15-.24.27-.36.41-.07-.15-.15-.29-.24-.48.11.05.19.08.3.12.02-.31.1-.6-.32-.65,0,0,0,0,0,.01,0,0,0,0,0,0-.09.09-.19.18-.28.26.01.05.03.1.04.15-.33-.09-.66-.18-1.01-.28-.04-.59-.17-.73-.65-.65-.1-1.04-.06-1.12.79-1.38-.16.15-.26.23-.35.32.01.04.02.07.03.11.26-.1.53-.21.79-.31.15-.09.3-.2.46-.26.08-.03.2.04.3.06h0s0,0,0,0c.23.32.24.32.79.19-.02-.24.07-.53-.37-.48-.04,0-.1-.17-.16-.27.48-.34.53-.18,1.06.19-.2-.68.44-.75.75-1.02.06-.06.17-.07.28-.07-.02-.03-.03-.05-.05-.08.25-.15.51-.29.75-.45.15-.1.27-.25.43-.36.07-.05.19-.06.28-.05.16.02.31.06.47.09.01-.05.03-.1.04-.15-.14-.08-.28-.16-.52-.29.19-.04.34-.07.51-.1l-.54-.91-.18.46-.4-.13-.07.24-.23-.46c-.5.23-1.09.31-1.63.23v.35c-.42-.28-.31.08-.43.11-.07.02-.18-.1-.34,0-.19.12-.29.37-.29.59l-.18-.24c-.83.19-1.53.22-2.34-.03l-.62.97-.23-.35-.23.35-.35-.12c-.09.11.06,1.01-.35.93l.23.46-1-.47c-.23-.04-.24.29-.3.33-.06.04-.23-.21-.44.09-.27.38.17.81.23,1.21.22-.09.05-.34.46-.23.08.54-.38.93-.12,1.4l-.57.02c-.25.57,0,.48.22.92-.45.07-.79-.57-.58-.93-.54.23-.96-.45-1.4,0,.04-.38-.83-1.21-.47-.23h-1.16s.23.47.23.47l-.7-.23.07.36.22.04c.25-.22.39-.02.57.09l.53.09c-.16.08-.32.11-.48.11-.19.14-.29.13-.47-.07-.35-.1-.69-.26-1-.24-.17,0-.28.17-.45.2-.27.05-.57-.08-.82.12-.09.06-.11.24-.1.45.02,0,.04,0,.07,0,.01.04.09.16.07.25-.02.06-.04.11-.07.17.03.1.07.19.11.24l-.17.29-.11-.22-.53.11c.04-.09.07-.17.11-.26-.07-.06-.12-.15-.12-.22.03-.19.12-.3.26-.36,0-.1,0-.21-.02-.33l-.29.35-.29-.29c-.31.37.21.17.12.7-.02.13-.19.59-.26.62-.07.04-.36-.26-.51.26l-.23-.23c-.31.16-.35,1.4-.06,1.57.22.13.58-.07.57.48,0,.25-.53,1.23-.76,1.33-.52.22.29-.77.33-.82.08-.13.12-.17.08-.34l-.46.23.06-.35-.64.41.46-.06-.1.86c-.09.12-.33.05-.47.13-.19.11-1.34,1.81-1.44,2.07-.1.27.02,1.08-.55.95.41-.3.24-.68.35-1.1-.51.14-.54-.67-.46-.98.02-.09.23-.06.23-.13,0-.19-.27-.29-.24-.57.02-.19.28-.41.24-.65l.23.35c-.12-.48.64-1.35.82-.7h.23c-.12-.68.9-.3,1.05-.87l-.23-.05c.01-.25.09-.51-.23-.47l.23-.46h-.35s.35-.53.35-.53l-.23-.23.35-.18-.47-.12c-.06-.81.91-.94.93-.12l.12-.35c.27-.17.24.48.46.23.1-.11-.22-.36-.23-.53-.02-.24.2-.58.12-.87l-.35,1.05c-.25.05-.3-.15-.36-.34l-.46.17c-.11.12-.22.23-.35.33-.09.07-.27,0-.46-.03-.14.34-.13.54-.22.75-.11.24-.49.53-.71.69.26.21.36.31.23.64.2-.15.47-.16.66-.27.11-.06.17-.52.5-.25v.28c-.37.09-.69.28-1.05.39-.55.18-.17.06-.52.32-.29.21-.61.24-.76.64l.58-.18c-.16.26-.1,1.02-.14,1.14-.03.08-1.02.87-.73,1.31l.52-.23-.35.52.33.19-.1.33-.41-.46-.35.46-.18-.33h-.45s.47,1.21.47,1.21l-.35.29c.92.02.04.56-.1.77-.29.44-.53,1.03-.83,1.49-.29.44-1.42,1.74-1.48,2.12-.04.21.17.56.19.79.05.26.61-.38.63-.43.11-.26-.21-.59.13-.55.36.24.11,1.06-.18,1.22-.1.05-.26-.02-.35.02-1.09.54-1.21.64-1.72,1.75-.07.15,0,.19-.26.15-.23-.56.07-.94.47-1.33.25-.24.7-.11.46-.65.33.2.55-.29.15-.37l.08-.21-1.05.23v-.46l.46.11.06-.46.13.36.32.09c.22-.04.38-.54.42-.75.01-.06.01-.11,0-.17l-.23.12s.17-.89.19-.93c0-.02.03-.04.04-.07-.14.04-.27.08-.41.12-.14-.5.14-.76.41-1.01-.02,0-.04,0-.05,0l-.29-.33c.78.17.64-.34.85-.55.17-.17,1.01-.61,1.28-.85.62-.56.22-.91-.26-.23-.13-.5.41-.55.24-1-.06-.16.05-.21-.25-.17.01.16.01.31-.07.46-.03.06-.82.84-.98.7.09-.11.14-.19.17-.27-.03,0-.06,0-.09,0,.04-.05.08-.1.12-.14,0-.08,0-.16-.02-.28h.25s.07-.09.11-.13l-.07-.2.34-.19c.07-.34-.19-.04-.21-.08-.09-.12-.03-.39-.44.07-.05.05-.35.63-.39.66l-.17-.23-.06.35-.29-.35-.35.46c-.43-.33.07-.5.14-.62.27-.46.53-.8.87-1.29.19-.27.47-.05.22-.65l.46-.12v.58c.31-.96,1.47-1.14,1.69-2.06,0,0,0,0,0,0,0,0,0,0,.01-.01,0-.04.03-.08.03-.12l-.22-.13.64-.23s-.08-.06-.11-.09l-.42-.03c-.12-.11.18-.36.46-.5.03-.06.05-.12.06-.19-.07-.02-.15-.04-.24-.07.2-.26.4-.51.61-.77-.06,0-.13,0-.18-.05.18-.98,1.49-.87,1.63-1.69l-.7.35.12-.41-.23-.06c-.01.45-.52.27-.76.58-.2-.58.4-.44.5-.5.02-.02.04-.14.11-.19.19-.14.5-.11.5-.47h.23s.06.23.06.23c.19-.42.17-.34.48-.52.05-.03.06-.15.07-.15.23-.06,1.11.16,1.43-.26l-.64-.23c.43-.03.16-.53.7-.52-.19-.29-.44-.05-.7-.06l.12.46-.46-.12v-.69c.4-.12.23.22.52.23.26-.18-.03-.39.16-.64.15-.2.97-.63,1.06-.81l-.23-.29c.69.21.81-1.03,1.23-.35l.28-.12c.11.13-.55,1.04-.69,1.11-.1.05-.3-.09-.34-.06l-.13.46-.35-.12v.35c-.37-.21-.62.07-.58.46l.35.06-.47.58c.3.19.5-.39.71-.57.19-.17.45-.25.63-.42.15-.13.16-.34.17-.35.03-.02.42.33.7.12l-.35-.35.58-.23.12.35c-.17-.66.66-.55.58-1.16-.31.04-.67.24-.58.58l-.35-.35,1.16-.58-.09.21.2.19c-.13.14-.43.44-.05.42l.82-.93.11.23c1.06-.91,2.48-.9,3.58-1.63.18-.12.38-.51.73-.58.18.29.16.67-.06.93l.35.12c-.05-1.12,1.14-1.25,1.92-1.64l.07.06s.02-.01.03-.02c0,.02.01.04.02.06l.25.24.4-.23-.58,1.51.87-.58.17.46c-.07-.56.55-.88.7-1.4l.12.23.33-.1.12.22.11-.42c.53.14.25,0,.4-.23.27-.43.49-.13.71-.19.07-.02.05-.16.15-.2.29-.1.61-.21.9-.27l.06-.44.12.47.23-.47.46.35v-.58s.47-.06.47-.06c-.7-.23-.19-.98-.79-1.21-.02.03-.04.05-.06.08-.04.05-.12.12-.17.11-.05-.01-.12-.1-.13-.16-.02-.11-.03-.21-.04-.32l-.56.4c-.12-.13.59-1.01.76-1.05.02.27.22.29.29.06.09-.29-.27-.07-.23-.29l1.16-.12-.96.67c.13-.01.25-.02.4-.04-.12.17-.22.31-.32.45.53-.23,2.05-.43,2.16-.51.09.11-.36.57.12.47l.12-.47.4.12c.2-.4,1.45-.66,1.64-.24.18-.07.72-.43.84-.45.2-.02.28.37.62-.02l.29.46.7-.58.17.35c-.01-.44.43-.74.47-.23l.19-.36,3.64-1.46,4.62-2.95.22.23h.23c.14-.34.98-.85,1.08-1.08.1-.23-.03-.56.27-.73-.41-.11-.11-.24-.15-.45-.03-.12-.54-1.09-.59-1.13-.26-.21-.71-.24-1-.41.29-.25.65-.34.93-.06l.24-.46-.35-.23h.58s-.47-.47-.47-.47l1.75.46-1.04-.41c-.3-.15,0-.46-.35-.41.08-.23.54-.37.75-.36.08,0,1.44.42,1.5.47.11.08.07.25.07.36l.23-.46.12.35c.04.06.32-.35.46-.23.23.19-.52.4-.46.58.17.01.38-.03.52-.12.26-.19.05-.53.42-.46l-.06.23c1.26.1,2.46.29,3.66.59v.34s-.98.35-.98.35l-.18-.23.23-.23-.41-.12.04.29-.27.17-.06-.35c-.28-.13-.22.23-.29.24-.32.02-.43-.36-.47-.36-.39,0-.93.25-1.45,0,.22.31.81.37,1.16.47l-.7.58,1.75.24-.1.21c.35.08.28.3.33.6-.91.06-1.8-.37-2.68-.06l.99.52c.26-.21-.08-.32-.1-.35-.2-.27.4,0,.47.04.54.39.15.1.78.2.24.04.78.35,1.09.44.13.04.32-.08.5-.04.39.09.77.54,1.16.65h-.81s.7.58.7.58c-.38-.06-.77.12-1.14.05-.29-.06-1.13-.31-1.18-.57l-.18-.06c-.44.22-.15.7-.59.81l-.11-.46-.19.45-.56.02.23-.23h-.46s.12.35.12.35c-.05.05-1.37-.4-1.16.35h-1.05s.23-.47.23-.47l-1.05.35.46-.41c-.22-.33-1.47.35-1.16.64h.7s-.35.7-.35.7c.11.11.7-.02.58.35-.11.08-1.25-.09-1.56.02-.15.05-.18.41-.54.39l.58.29c-.38.18-.8-.23-.99-.24-.07,0-.04.2-.14.23-.19.07-.51,0-.72.13v.34s.46-.18.46-.18l-1.15.54v.69c.06.08.94-.18,1.03.23-.51.11-1.07.29-1.58.34-.29.03-.7-.31-.86.13l.82.12-.12.46c.2,0,.87.11.81.41-.03.17-.32.09-.36.12-.17.16-.17.62-.75.64l-.06-.47h-.34c-.04.63-.8.95-.71,1.51-.58-.24-.91-.07-1.34.34l-.52.7c.39-.03.7.23.93-.18l.23.18c-.39.16-.78.37-1.22.35-.09,0,.18-.37-.12-.23-.13.06-.29.27-.47.35-.31.13.09-.4-.23-.23-.1.06-.85.59-.87.64l.23.12c-.35.49-.94-.05-1.06.63-.4-.25-.3.08-.43.12-.4.13-.78.22-1.14.36.07,0,.14,0,.21-.01,0,.04.02.07.03.11-.07.09-.15.18-.25.31-.12-.08-.23-.15-.34-.23-.25.15-.49.34-.7.63-.44.61-.03.79-.1.94-.1.2-.41.18-.5.26-.22.2.06.57-.71.45-.21.12-.03,1.7-.71,1.5-.2.18.46.46.58.47l-.46.7.7-.05-.12-.24.52-.41-.18.46c.55.05.89-.25,1.34-.47.27-.13.69.02.76-.57h.23l.29.46.58-.46c.24.05.35,1.36.18,1.63.36.08.44-.51.66-.57.02,0,.08,0,.13,0-.04-.06-.04-.14.01-.26.14-.3.38-.28.65-.13-.16.03-.34.02-.47.1-.06.04-.04.19-.04.32.23.05.47.16.33.31-.9.17-1.3.85-2.1,1.22-.23.11-.91.27-1.44.41.06.22.08.44-.1.63l1.19.18h-2.68s.12-.46.12-.46c-.69-.29-.94.4-1.31.67-.02.02-.4.06-.5.14-.23.18-.1.52-.75.36l.35.11.17.35.18-.46c.25-.04-.04.46.29.35.35-.12.46-.69.88-.58-.34.45.22.57.24.88.03.35-.46,1.23-.76,1.45-.4.28-1.62.59-1.9,1.07-.07.13,0,.36-.09.55-.05.12-.58.8-.68.94-.87,1.29-1.99,2.23-2.81,3.53.05.04.09.08.13.14.09.14.19.26.29.39l.11-.46.35.35c.03-.84.48-.82,1.05-1.22l-.35-.06v-.23s.4-.13.4-.13l.12.24.3-.46.33.1c.06-.51.71-.44.59-.93l-.47.46c-.33-.07.11-.52.13-.69l.57.1c-.17-.38.08-.47.24-.75.06-.11,0-.27.01-.27.08-.06.31-.01.4-.13.04-.05-.07-.14.15-.46.04-.06,0-.19.03-.23.02-.03.36.06.69-.2.25-.2.1-.33.29-.52l.29.35-.06-.35.4.12-.1-.57c.08-.14,1.13-.32,1.15-.65h.48s.05-.41.05-.41c.26-.11.47.03.64-.29l-.46-.06c-.15-.15.53-.7.58-.38v.26c.86-.06,1.3-.16,1.05-1.16.18-.04.16.34.29.35.02,0,.36-.24.38-.26.08-.1-.07-.35.14-.31l.17.35c.26-.71.3-.27.52-.4.1-.06.48-.47.26-.58l.27-.17.12.58.41-.29s-.61-.1.12-.29l.12.81.06-.47.76-.12-.23-.17.52-.41.23.35c.13-.23.38-.56.69-.46.26.08.07.47.3.46-.13-.39.38.02.24-.29-.06-.13-.33.05-.23-.29.37.09.34-.36.74-.24l.07.24c.11.13.26-.47.38-.55.1-.06.29-.01.31-.03.01,0-.1-.18-.09-.27.05-.27.54-.36.73-.54l.17.23c-.11-.43.26-.53.38-.15l.32-.09-.23-.12c.31-.61.44.11.7-.06.54-.35,0-.44,0-.48-.02-.12.13-.46,0-.67.08-.27.35-.05.51-.19.41-.36.85-1.19-.05-1.17l.23.58-.81-.11.11.81s-1.14-.51-1.16-.18l.35.58c-.22.09-.27.14-.23.41-.45-.43-.69.16-1.04-.46-.25.67-.71.82-1.28,1.16l-.23-.7h.46c.05-.2-.21-.05-.23-.19-.04-.26.25-1.46.59-1.52-.4-.79.43-.58.63-.85.06-.08-.13-.38.18-.64l1.9-.89c.11.34.35.19.55.29.08.04-.07.39.34.41-.08-.36-.26-.53-.11-.93l.35.12c-.1-.61.2-.45.43-.62.09-.06.13-.3.21-.3.04,0,.2.17.35.18.54.05.06-.64.53-.71v-.23s-.23-.17-.23-.17c.27-.03.44-.2.47-.47h.23s-.12.46-.12.46l.56-.13.02-.39.23.06c-.36-.73.33-.5.23-1.17.46-.1.04.6.46.7l.12-.7.12.58v-.81s.47.35.47.35l.06-.47.29.58.23-.7.23.7.06-.47.06.18.23.06.06-.35.64.58-.13-.39c.4-.14.25-.45.13-.77l.35.7.23-.58.12.35.46-.23c.1.14-.16.79-.29.94-.08.09-.22.01-.26.04-.23.2-1.37,1.09-1.4,1.2-.05.16-.02.34-.02.5l.46-.47-.11.58.58-.58c.01.33-.3.53-.41.81-.04.1-.15.38.06.35l1.16-1.98c.04.2-.06.34-.13.51-.16.41-1.06,2.24-1.27,2.54-.14.19-.44.28-.58.5.37.25.41-.39.81-.29l-.23.46s.42-.25.47-.32c.34-.45.86-1.6,1.16-2.16.09-.16.5-.31.35-.78l-.52.58c-.13-.22.25-.52.38-.79.19-.41.35-.86.38-1.31l.12.35.23-.12-.23,2.1.37-.86.7-.88,1.03.22-.76,1.74.06-.47c-.5.29-.08-.3-.06-.47.03-.2-.05-.38.06-.58-.17-.04-.25.05-.35.17-.09.11-.73,1.25-.8,1.42-.09.21-.04.46-.13.68.33-.05.53-.46.72-.68.09-.1.23-.38.21-.02-.44.67-1.13,1.21-1.37,2.01-.11.38.15.65-.32.9-.03.02-.39.13-.29-.11l.87-2.04c-.56.58-.82,1.38-1.15,2.11-.17.37-.03.61-.54.92.39.1.57-.31.71-.39.2-.12,1.31-.49,1.04-.89l-.23.12c-.09-.69.62-.75.99-1.05.39-.31.72-.67,1.05-1.05.2.16-.17.36-.28.54-.47.82-.48.62-1.01,1.2-.37.4-.66.88-1.1,1.23.33.16.53-.46.81-.52v.57c-.49-.09-.67.47-.87.55-.27.1-.93.12-1.23.05l.23.58c-.5.04-.56.59-1.16.47l.12.46.35-.35c.2.46.46.79.93.99-.1.26-.86-.09-.7.52l-.35-.23v.81s-.34.01-.34.01c.12.29-.38.55-.59.76-.12.12-.1.31-.2.4-.18.16-.66.17-.87.4-.07.07-.01.18-.03.25,0,0,.02.01.03.02,0,.08-.01.15-.02.23l.5-.08c0,1.29-1.28,1.21-2.06,1.56-.19.09-.36.58-.51.71-.17.15-.49.21-.69.36-.41.31-.49.9-.99,1.1l-.33-.33c-.34.13-.58.46-.9.62-.74.35-1.62.5-2.26,1-.11.09-.14.3-.2.33-.05.03-.26-.07-.4.02.22,0,.45.07.67.11,0,.05.01.1.02.15-.16.15-.32.3-.5.48.04-.25.11-.41.06-.54-.03-.07-.2-.08-.33-.1,0,.01-.02.01-.02.02v-.03s-.02,0-.03,0c0,.04,0,.08-.01.12.09.01.18.03.3.05-.12.16-.2.27-.32.42-.07-.07-.21-.17-.2-.22.05-.17.14-.45.23-.46l-.04-.23-.58.35-.23-.7c-.33.76.45.86-.04,1.59-.09.13-.39.11-.31.39l.35-.23c.11.35-.43.29-.47.42.01.15-.08.49.18.4.25-.1.81-.44,1.13-.59.29-.14.8-.34,1.03-.62.11-.13-.01-.31.17-.41l.06.35c.21.02.35-.32.37-.33.08-.03.44.07.72-.26.12-.14.7-1.31.77-.34.65.03.62-.26.98-.54.56-.44,1.24-.79,1.86-1.23.28-.2.04-.41.65-.26.12-.55.58-.47.7-.88l.11.23c.31.1.2-.17.26-.2.06-.03.18.18.26-.14l.3.1.02-.44c.68-.31,1.41-.75,1.96-1.25l-.47-.06.43-.49c-.19-.35.17-.18.41-.33.21-.14.34-.51.79-.46v-.11c-.28.03-.25-.09-.23-.35.29-.02.88-.26,1.16-.42.31-.18.42-.64.94-.52l-.12-.35.35.12c-.13-.59.75-1.21.82-1.8.05-.46-.62.22-.48.51h-.44s-.14-.38-.14-.38l.31-.18-.07-.35c.5.12.47-.18.76-.47l.17.23c0-.16.38-.96.47-.99.13-.05.19.13.29.13.47.04.63-.98.77-1.27.11-.23.51-.4.35-.73l.33-.05c.05-.19-.21-.05-.24-.19-.04-.2.11-.54.1-.79-.02-.27-.24-1.01-.2-1.16.1-.36.87-.15.69.28l.23-.23-.06.7c.19-.38.76-.8.7-1.16l-.41.35.11-.7-.53.11-.06-.35c-.45-.1-.05.46-.23.7l-.35-.23c-.05-.2.17-.07.21-.12.02-.02,0-.53-.02-.55-.01-.02-.17-.01-.19-.1-.05-.16.13-.6.34-.62v.76c.38.22.42-.74.81-.93l-.36-.25c.06-.49.45-.25.65-.74l.07.35h.34s0-.46,0-.46h.58s-.35.47-.35.47l.7-.23c-.23-.25-.18-.38-.12-.7l-1.05.12c-.24-.2.6-.46.7-.47l-.26-.11-.09-.35.58.23v-.81h.35c-.28.44.17.38.3.63.14.27-.32.94-.42,1.23l.29-.23c.15.21.28.22.51.14l.13.21c-.05-.42.16-.07.33-.13.02,0,.25-.36.27-.44l.45.16v-.64s.4.15.4.15c.08-.04.16-.07.21-.05.05.03.09.08.14.13l.07-.23.41.35.29-.87c-.36.1-.52.24-.82-.12.4-.09.08-.2.14-.44.2-.72.74-.53.21.2l.23.06.58-1.11.82.06c-.04.38-.17.65-.53.81l.17-.58c-.3-.25-.79.42-.69.58.03.05.44.04.35.35l-.46-.18c.19.55.22,1.19.75,1.57l.29-.29-.35-.41.47-.23-.46-.12c.31.01.36-.57.58-.7-.09.36.6,1.08.56,1.32,0,.05-.39.73-.46.82-.09.14-.35.19-.33.24.19.54.45-.24.64-.17l.18.23c-.33.03-.48.26-.47.58-.3.1-.29-.34-.42-.36-.18-.03-.49.24-.76.28-.32.05-.69-.11-1.02-.03l-.18.69-.12-.24-.52.12.23-.46-.46.23v-.35s-.47.12-.47.12v.35c.21-.12.38-.04.35.23l-.93-.23.46.23-.35.23c.44-.18.68.26.89.32.1.02.25-.09.39-.03.12.05.2.26.3.29.29.12.09-.32.23-.35.5-.12.13.33.41.35l.41-.58.7.82.26-.47c.68-.02,1.35-.21,2.01,0l-.23-.46,1.63-.7c.11-.38-.43-.2-.56-.37-.08-.11-.12-.71-.14-.91l.23.47.45-.02.25-.56c-.22-.07-.6.32-.58-.05.03-.52.05-.66.43-.85.4-.2-.21-.78-.43-.61.29.31-.19.62-.35.46-.03-.03.1-.42-.23-.35v-.11c.76,0,.28-.44.19-.7-.04-.11.04-.26-.02-.35-.09-.17-.85-.79-1.11-.82l.06-.23c.26,0,.45.37.76.06l.12-.52h.46s-.12-.35-.12-.35c.33-.26,1.41.71,1.71.93.13.1.33.06.46.15.15.1.29.56.47.67.39.25.69.11,1.24.7.4.43.22.17.6.44.27.19.38.88.57,1.17.23.33.11-.19.29-.11v.58s-.47-.06-.47-.06l.47.75.23-.06.24-1.04s-.46-.1-.24-.3c.29-.27.45.83.52.93.09.19.28.01.29-.06.02-.16-.51-.81-.12-.99l1.05,1.75c-.05-.57-.49-.97-.65-1.5-.05-.18-.12-.28.13-.25l.64,1.11.17-.18c.34.27.57.7.89.97.09.08.27.05.32.09.03.02-.07.55.31.68.21-.17-.46-.59-.06-.7.19.21.2.81.29.94.09.12.31.07.39.13.04.02.12.64.26.8v-.58c.34-.09.32.41.49.55.21.17.72-.27.09-.49l.3-.41.23.58.06-.46c.37.13.17.42.12.7.35,0,.62-.22.58-.58l.18.24.5-.12.42.57.44-.33c1.47,1.04,2.55,2.5,3.75,3.83.18-.29-.19-.58-.29-.88ZM10.36,80.54c-.12.17-.18.24-.26.36.19.05.36.1.54.15q-.16.08-1-.28s-.01-.09-.02-.14c.22-.03.43-.05.75-.09ZM8.99,81.36c.03-.29.07-.56.09-.76.22.2.42.38.61.55-.2.06-.45.14-.7.22ZM10.01,81.14c.28.13.48.23.73.35-.43.23-.58.04-.73-.35ZM6.22,41.14c-.1-.5.15-.71.76-.58-.38.1-.23.74-.76.58ZM38.84,21.04c.12.34.02.7-.15,1.01-.03.06-.38.18-.37.5-.17-.13-.21-.31-.18-.51.04-.26.46-.83.7-1ZM34.33,28.59s.02-.2.03-.33c.08.03.16.07.29.12,0-.13,0-.23.01-.34.12-.04.25-.08.38-.12.12-.3.31-.3.53-.11.15.13.31.26.43.42.08.1.11.24.18.39-.53,0-1.05.02-1.23.61-.19.03-.36.05-.57.08-.04-.06-.14-.16-.17-.28-.04-.14-.17-.33.1-.44ZM34.11,31.72c.15.02.29.05.44.07-.04.1-.1.28-.12.27-.14-.02-.26-.09-.4-.14.03-.07.05-.14.08-.2ZM31.52,30.65s.03,0,.05,0c.06-.04.13-.08.17-.13l-.46.06c-.02-.56.55-.46.7-.54.25-.13.36-.53.81-.39.08.26-.23.65-.61.99.08,0,.15,0,.25,0-.18.2-.32.36-.47.52-.06-.07-.12-.13-.18-.2-.11.07-.21.14-.31.19.36,0,.7.25,1.1.4-.12.18-.27.34-.35.54-.05.13.02.3.03.48-.17.13-.41.32-.65.5-.03.02-.08.04-.11.03-.1-.02-.19-.05-.29-.07-.03.2-.06.39-.08.59,0,.05.02.09.06.25-.42-.32-.77-.59-1.14-.88-.02.09-.03.15-.04.22-.44-.2-.6-.64-.31-.92-.09,0-.16-.01-.27-.02.01-.12.02-.24.04-.38.24.25.39.23.5-.06.13-.31.23-.64.34-.96.26.2.51-.02.8-.24.02.11.05.21.05.3.12-.08.25-.15.38-.23,0,0-.01-.01-.02-.02ZM30.25,25.76c.17.2.31.36.48.57-.18-.04-.32-.07-.49-.1,0-.18,0-.34,0-.47ZM27.32,29.19l.58.23-.12-.47.23.12c.08-.77,1.04-.33.24-1.28.33.02.46.3.81.11.12-.62-.51-.88-.69-1.39.2.15.72-.04.8.01.13.09,0,.45.48.22v.58s-.35-.35-.35-.35c.38,1.3.57.06.76,0l.57.23.17-.23.12.29-.68.31c-.05.5.17.48.45.8-.35-.05-.54-.3-.9-.09-.36.49.2,1.23-.26,1.49l-.12-1.05c-.1.76-.2,1.56-.93,1.98l.35-.93-.23.12-.06-.35-.7.81h-.17s-.07-.24-.07-.24l-.4.12c.27-.46.58-.5.12-1.05ZM24.85,34.97c-.2.24-.31.65-.76.4.32-.66.36-.88.76-.4ZM22.78,33.96c-.32.65.4.85-.29,1.28-.54-.5-.57-1.26.29-1.28ZM22.06,38.28c.18.56.2.88.06,1-.17-.5-.52.26-.71-.18.22-.21.16-.71.64-.82ZM32.95,9.56c-.18.41-.43.74-.95.83.15-.52.66-.55.95-.83ZM32,7.34s.05.09.08.13c-.32.18-.65.35-.97.53-.02-.03-.05-.07-.07-.1.32-.19.64-.37.96-.56ZM31.8,10.48c-.03.14-.02.28-.07.3-.22.1-.45.17-.68.26-.03-.06-.05-.13-.08-.19.24-.11.49-.22.83-.37ZM28.96,11.89c-.03.09-.05.26-.08.27-.3.01-.43.53-.85.28.3-.23.56-.43.82-.62.04.03.07.05.11.08ZM28.95,16.44l.76-.52c.25.64-.37,1.14-.98.94l-.13.34.58.06-.46.52.46.12-1.16.82.23-.81-.46.12c-.18-.46-.05-.92.46-.7v-.58s.35.23.35.23c.07-.68.72.06.93-.58l-.58.06ZM10.52,30.18s-.1-.06-.15-.09c.15-.25.3-.5.45-.75.05.03.1.06.15.09-.15.25-.3.5-.45.76ZM10.43,29.17c-.18.03-.32.22-.49.34-.02-.01-.05-.03-.07-.04.19-.28.4-.55.57-.83.07-.11.06-.28.13-.4.35-.6.7-1.19,1.07-1.78.19-.3.39-.35.77-.25-.07.63-.42,1.11-.82,1.57-.04.05-.06.12-.09.18-.24.51-.4,1.08-1.09,1.21ZM12.08,27.76s.09.03.13.05c-.02.14-.05.29-.08.48.1-.07.16-.12.22-.17.02.02.03.04.05.06-.3.26-.6.52-.9.78l-.08-.03c.22-.39.44-.79.65-1.18ZM11.59,35.07s-.09,0-.13,0c0-.16-.08-.36,0-.47.32-.48.68-.93,1.05-1.43.25.91-.46,1.34-.91,1.9ZM12.71,31.46s-.08-.07-.12-.1c.15-.2.3-.4.46-.6l.12.09c.02.33-.22.46-.46.6ZM12.9,26.83s0,.05,0,.08c.08.01.15.02.24.04-.15.21-.33.39-.45.61-.14.23-.16.25-.43.05.13-.08.23-.15.33-.21-.01-.03-.03-.05-.04-.08-.14.05-.27.1-.5.19.3-.43.52-.77.78-1.09.05-.06.34-.25.37.12,0,.05.09.1.16.16-.16.05-.31.09-.45.13ZM13.47,34.89c.12-.5.63-.82.87-1.29h.53c-.12.19-1.25,1.44-1.4,1.29ZM15.2,38.81l.13-.08c.09.47.31.83.09,1.32-.07.17-.26.16-.3.22-.02.03-.02.07-.03.11.02,0,.05.02.07.03,0,.02-.01.04-.02.06-.02,0-.04,0-.06,0,0,.18.02.36-.29.24-.23-.09-.22-.19-.15-.27-.07,0-.14,0-.22-.01-.29-.02-.37-.21-.27-.54.05-.15.3-.29.07-.48,0,0,0-.03,0-.04.32-.21.28-.77.81-.84-.01.09-.02.17-.04.27.05,0,.12.01.18.02ZM14.47,25.45c.24-.37.41-.72.84-.95-.09.57-.37.9-.84.95ZM15.34,26.68s.08.06.11.08c-.17.29-.32.59-.51.87-.03.05-.21,0-.32,0-.01-.03-.03-.07-.04-.1.25-.29.5-.57.75-.86ZM14.31,24.41c.19-.24.36-.45.54-.67.03.03.07.06.1.09-.18.21-.09.67-.64.58ZM14.34,27.04s.06.03.09.04c-.13.18-.25.36-.38.55-.03-.02-.07-.04-.1-.06-.02-.1-.04-.21-.05-.27.15-.09.3-.17.45-.26ZM13.6,42.85s.04-.09.06-.13c.11.08.22.15.4.27.03-.03.11-.12.19-.2-.1.42-.33.42-.65.06ZM15.67,44.39c-.09.05-.14.09-.2.12.38.22.11.4-.03.59-.02.03-.04.05-.06.08l.05.45-.5,1.01c-.33-.19-.35-.44-.36-.73,0,0-.01,0-.02,0l-.02-.12s.02,0,.03-.01c0-.03,0-.06,0-.1-.4-.05-.2-.45-.18-.8.13.12.21.2.28.27.13-.05,0-.34-.19-.5-.17-.14-.3-.32-.43-.45.31-.29.61-.58.88-.83.25.19.47.36.75.58-.13.09-.24.17-.37.27.1.05.22.11.37.18ZM16.07,33.97c.08-.36.58-.5.37-1,.21.14.42.27.59.38-.11.39-.2.74-.29,1.07-.02-.08-.05-.19-.08-.29-.21-.06-.41-.11-.6-.16ZM17.08,36.4c.04.46-.05,1-.46,1.28-.11-.33.1-.66.22-1.01.06-.18-.1-.33.24-.27ZM17.13,42.61s.09.04.15.06c-.05.02-.11.04-.17.05-.02.32.04.63.2,1.02-.38.05-.37-.46-.58-.63-.24-.19-.74.33-.59-.3.27.05.44-.04.56-.19,0-.05.01-.11.02-.16.01-.11.1-.21.15-.32.02,0,.03.02.05.03.07-.22.13-.45.21-.63l.28.31c-.16.28-.24.53-.28.78ZM17.08,30.81l-.03-.18c-.07.24-.16.48-.18.73-.03.33-.16.58-.36.81-.07.07-.17.2-.23.18-.33-.07-.35.08-.2.41-.14-.08-.22-.12-.3-.17-.05.09-.09.19-.13.29,0,.03,0,.07-.01.11-.01,0-.02,0-.03,0-.15.41-.27.84-.62,1.08l.45-1.5s-.01-.04-.02-.06c.02-.02.03-.03.05-.05l.04-.13.22-.13s.1-.1.15-.15c.08-.07.2-.17.3-.16.32.01.42-.2.37-.43-.09-.43.18-.66.35-.94l-.28.12c.09-.28.73-.47.79-.55.09-.13-.04-.5.26-.56.07.49-.19.98-.58,1.28ZM16.66,29.38c.03.06,0,.17-.03.24-.08.13-.19.25-.32.42-.06-.15-.17-.3-.17-.45,0-.09.18-.19.3-.25.06-.03.2,0,.22.04ZM16.5,24.02c.14-.22.29-.45.46-.72.12.31.2.54.32.88-.17-.16-.25-.24-.33-.31-.12.09-.23.16-.34.24-.04-.03-.07-.06-.11-.09ZM19.46,29.15s-.05.04-.08.06c0,0,0,0,0,0-.2.37-.84.85-.88.92-.14.24.09.88-.61.79l.46-.41-.29-.17-.4.35.29-.81c.35-.09.58-.29.8-.51,0,0-.01,0-.02,0-.07-.03-.08-.18-.14-.32.21-.12.41-.25.62-.37.02.03.05.06.07.09-.03.06-.05.12-.08.18.05-.04.09-.08.15-.12.2.15.17.18.09.3.01,0,.02,0,.03.01ZM18.86,23.29c.14-.26.15-.67.74-.52-.26.24-.46.42-.66.61-.02-.03-.05-.06-.07-.08ZM19.36,26.75c-.08-.49.01-.58.4-.45-.13.15-.25.28-.4.45ZM20.24,16.56c-.25.19-.57.28-.78.57-.19.25-.49.41-.7.58.03.11.05.18.07.25.19-.05.42-.05.57-.15.24-.16.43-.38.65-.58.04.03.07.07.11.1-.19.21-.35.45-.56.63-.19.16-.44.25-.61.34.04.14.08.29.12.44-.05.06-.09.13-.14.19-.01.13-.03.26-.05.43-.35-.21-.5.02-.68.17,0,.01,0,.02-.01.03,0,0,0,0,0,0,.1,0,.21,0,.36,0-.43.78-.77,1.54-1.53,2.02-.54.34-1.03.77-1.52,1.18-.16.14-.23.13-.33-.02-.15-.23-.31-.17-.49-.05-.24.17-.53.28-.57.63.11-.05.21-.1.31-.16.11-.06.21-.14.32-.21.02.04.04.07.07.11-.51.61-1.03,1.21-1.54,1.82-.03-.02-.07-.04-.1-.06.04-.11.07-.22.13-.4-.37.41-.69.76-1.01,1.11.72-1.28,1.6-2.44,2.57-3.55.98-1.11,1.86-2.32,2.86-3.42.99-1.1,2.07-2.11,3.13-3.18.07.11.1.14.1.15-.24.34-.44.75-.75,1ZM22.06,28.11s-.38.12-.62.25c-.09.05-.24.27-.17-.05.11-.47.8-1.43,1.16-1.81l-.37,1.61ZM22.24,21.1c-.02-.34-.06-.6.41-.47-.12.14-.24.27-.41.47ZM22.74,20.6c.03-.37.21-.57.47-.69.21-.1.27,0,.3.43-.26.09-.49.17-.77.26ZM22.42,17.98c.12-.85.82-1.09,1.43-1.45.1.62-.69,1.44-1.43,1.45ZM23.26,15.06s-.06-.05-.09-.07c.21-.23.41-.47.62-.7l.1.07c0,.41-.38.5-.63.7ZM24.31,15.66s.08.07.12.11c-.14.2-.28.41-.44.66-.1-.07-.17-.12-.3-.21.22-.2.42-.38.62-.56ZM23.86,24.67s-.13-.16-.11-.23c.06-.24.52-.55.69-.47.09.04.14.15.29.33-.34.15-.6.27-.86.37ZM24.04,22.25c-.1-.23-.28-.45-.24-.61.05-.17.31-.29.4-.37.32,0,.53.01.87.02-.37.35-.67.62-1.04.97ZM26.01,12.32s-.16-.06-.29-.11c-.21-.08-.38-.2-.45.18-.03.15-.31.25-.47.38-.14.11-.27.24-.43.32-.09.05-.22,0-.43,0,0,.06,0,.2,0,.35-.04,0-.17-.08-.23-.04-.16.1-.35.22-.4.37-.07.19-.03.43-.03.65-.05,0-.09,0-.14-.01.04-.14.08-.29.14-.51-.34.07-.56.17-.62.48-.05.28-.19.44-.47.45.07-.16.14-.31.2-.46h0s0,0,0,0c0,0,0,0,0,0,0,0,0,0,0,0-.41.32-.81.64-1.22.97-.02-.03-.05-.05-.07-.08.36-.32.72-.65,1.09-.96.03-.02.13.05.2.07,0,0,0,0,0,0,.52-.99,1.47-1.52,2.29-2.19.51-.41,1.01-.84,1.55-1.2.44-.3.94-.53,1.43-.75.15-.07.35,0,.54,0-.38.44-.69.81-1.01,1.18-.06.07-.14.12-.21.17-.3.22-.6.44-.95.7ZM29.53,20.45l-.99.19-.4-.37.82-.57.23-.41c.16-.04.09.08.17.18.08.11.32.06.12.41-.11.19-.28.26-.47.12l-.06.23.58.23ZM29.23,19.18c-.48-.26-.33,0-.48.11-.54.38-1.12.61-1.62,1.04h-.13c-.18-.29-.57-.52-.22-.89.17-.18,1.44-.72.67.08l2.27-1.05c.15.04-.05.41-.08.44-.02.02-.29-.11-.4.27ZM29.69,19.65c.27-.09.48-.16.74-.25-.09.3-.4.41-.74.25ZM31.18,17.79s-.05-.07-.07-.1c.18-.14.37-.27.62-.46.07.64-.36.43-.55.56ZM33.37,11.6c.08.03.16.06.25.09.02.08.05.18.1.34-.32.08-.64.17-.96.23,0,0-.03-.06-.06-.13-.08.1-.12.24-.22.3-.27.17-.59-.24-.44.23-.37.06-.47.31-.55.61.12-.04.25-.06.39-.05.09,0,.18,0,.28-.03l1.05-.54c.36-.08-.23.45-.26.46-.16.08-.37.11-.58.14,0,.41-.22.93-.42.86-.27-.09-.59.37-.78-.02-.05.03-.09.06-.16.09-.02,0-.04,0-.06.01-.07.1-.15.19-.23.3-.08-.12-.13-.19-.18-.26-.01,0-.03,0-.04.01-.03.02-.06.04-.09.06.03.11.07.23.11.35.08-.04.17-.08.24-.14l.06.23-.23.12.46.12c-.4.15-.74-.08-.99.35l-.17-.35c.13.51-.15.41-.29.58-.09.11-.16.29-.2.32-.03.02-.51-.03-.62.26-.11-.28-.23-.34-.52-.23-.04-.52.44-.21.46-.23.08-.09-.2-.33.46-.52.45-.13.28-.13.5-.22.1-.04.21-.07.32-.1-.01-.02-.03-.03-.04-.06,0-.03,0-.05-.02-.07-.02.01-.04.03-.06.04l.03-.14c-.03-.17,0-.31.1-.41l.11-.48h.34s-.22.31-.22.31c0,0,0,0,0,0,.16-.07.32-.17.47-.28,0-.08-.08-.15-.26-.16l.18-.23.23.23.4-.31-.22-.62c.38.07.93-.67,1.01-.69.27-.08.05.13.48-.12.23-.14.48-.25.69-.39.17-.11.07-.46.62-.19l-.47.34ZM36.57,6.08c-.02-.06-.04-.12-.07-.18.49-.19.97-.39,1.46-.58.02.06.05.12.07.19-.49.19-.97.38-1.46.57ZM38.33,9.86c.23.03.36.05.49.06,0,.03.01.07.02.1-.33-.07-.48.41-.9.18-.12-.06-.38.14-.57.2-.34.11-.57-.04-.63-.41.1-.03.21-.06.37-.1-.11-.07-.17-.12-.22-.15.24-.09.46-.19.78-.31,0,0,.1.03.16.04.1-.18.19-.34.27-.49.25.17.41.29.57.4-.02.02-.03.05-.05.07.21-.05.41-.09.62-.14,0,.03.02.05.03.08-.28.14-.57.28-.93.46ZM40.53,13.26s0-.05,0-.07c.24-.07.47-.13.71-.2,0,0,0,0,0,0-.17-.02-.35-.04-.52-.05,0-.03-.02-.05-.03-.08.2-.12.4-.24.61-.36.03.03.06.06.09.09-.05.13-.1.27-.14.4,0,0,0,0,.01,0,0,0,0,0,0,0h0s0,0,0,0h-.02c.11-.03.22-.06.33-.1.01.07.03.14.04.21-.36.06-.72.11-1.07.17ZM56.63.8c0,.05,0,.1,0,.15-.38-.01-.75-.02-1.13-.04,0-.03,0-.06,0-.08.38-.01.75-.02,1.13-.03ZM54.74.85s.01.09.02.13c-.46.06-.92.12-1.38.19,0-.04-.01-.07-.02-.11.46-.07.92-.14,1.38-.21ZM52.18,1.07c-1.34.57-2.74.74-4.19.68,1.36-.48,2.79-.47,4.19-.68ZM51.75,1.8c-.63.49-1.32.7-2.19.48.09-.11.16-.27.25-.29.64-.1,1.29-.17,1.94-.19ZM45.86,2.51s.02.08.03.12c-.44.43-1.14.04-1.69.49-.05-.02-.17-.06-.28-.1,0-.05,0-.09-.01-.14l1.96-.38ZM44.65,3.47c-.64.71-1.51.96-2.14.58.74-.2,1.39-.37,2.14-.58ZM44.77,6.7c-.31.09-.6.18-.89.24-.05,0-.17-.14-.18-.23-.01-.1.06-.2.09-.31.22-.04.47-.16.68-.11.14.04.23.31.3.42ZM42.8,9.98c.31-.44.95-.4,1.4-.58-.11.58-.93.62-1.4.58ZM46.01,14.29l-.18-.29c.14-.16.43-.11.61-.18.1-.04.09-.19.12-.2.14-.08.38.29.32-.14l.11.34-.97.48ZM50.95,13.06l-1.05.18.33-.31c.26.09.49-.44.72-.27.02.01.15.37,0,.41ZM54.41,11.23s-.21.01-.27.07c-.43.39-.92.97-1.56,1.01.1-.26.46-.15.35-.58-.22,0-.52.02-.58-.23.21.07.45-.43.49-.44.11-.04.27.09.44.04.4-.12.83-.35,1.28-.41.03.04-.09.49-.15.55ZM55.38,10.15c-.47.36-.83-.08-1.1-.06-.07,0-.07.2-.15.24-.82.44-1.74.4-2.6.76-.39.51.98-.39.58.12l-3.8,1.67c-.34.13-.14-.54-.16-.57l-.7.18,2.91-1.52c.2-.08.02-.28-.06-.29-.16-.02-1.61.7-1.98.81-.34.1.12-.35-.23-.23-.57.19-1.05.64-1.76.69l-.21-.21c-.61.4-1.29.79-2.05.69l.17-.35c-.41.03-.39.51-.87.35.1-.2.42-.32.61-.47.17-.13.75-.33,1.1-.44,1.12-.35,2.3-.33,3.06-1.36l-.93.17.19-.14c-.04-.49.85-.74,1.14-.44.11-.48.37.06.64-.3-.62-.34-1.43-.11-2.09-.06.19-.35.59-.43.93-.52l-1.04-.64-.18.34c-.1,0-.18-.54-.41-.35-.32.27.29,1.49.81,1.4-.2.52-.73-.1-.78-.11-.66-.16-1.97.73-2.71.69l1.13-.66c.22-.35.56-.38.96-.39l-.09-.17.21-.06c-.17-.4-.72-.25-.99,0l-.11-.23-.82.58-.12-.24-1.04.24-.12-.23.64-.23h0c.05-.03.1-.05.15-.06l.07-.52c-.19-.05-.05.2-.19.23-.11.02-.43.04-.51-.06.42-.24.89-.62.93-1.1.11-.11,2.04.59,2.32.11l-.07.58.13.24c.08-.37.53-.06.76-.41l-.45-.07c-.35-.83.91-.36,1.18-.37.41-.02.88-.17,1.29-.21l.19.24.29-.35c.16.14.51.54.73.44.02,0,.02-.16.11-.19.63-.23,1.08-.06,1.61-.02.64.05.47-.19.52-.22.07-.04.16.17.28.18.13.01.29-.09.45-.07.06,0,.74.82.9,0l.18.24,1.56-.24-.08.34-.73.88,1.1-.11.35-.18.06.23c-.35-.02-.29.34-.43.47-.1.09-1.32.69-1.08.92.49-.03.88-.7,1.4-.52-.15.25-.79.42-.9.56-.07.08-.03.28-.15.37ZM45.71,9.98l-.06.35.23-.23c.16.29.2.34.52.41-.3.19-1.4.7-1.69.64-.22-.04-.15-.13-.04-.28.22-.3.42-.37.8-.31.08-.08-.2-.7.23-.58ZM55.84,9.98c-.08-.55.78-.2.81-.23v-.45s.82-.13.82-.13c.39.4-1.32.89-1.63.81ZM61.33,2.98c.4-.25.91-.22,1.29.08-.23.23-1,.19-1.29-.08ZM50.35,20.31c-.25-.33.6-.49.02-.85.17-.01.3-.02.31-.02.13.21.23.38.32.53-.25-.07-.53-.03-.65.35ZM53.64,22.1s-.38.59-.51.65c-.14.07-.38,0-.42.04-.04.04.04.36-.18.58-.15.15-.73.41-.88.23-.12-.14.52-.6.64-.7.27-.21,1.26-.98,1.49-1.07.15-.06.39-.14.43.08.08.45-.54.16-.57.19ZM54.74,21.27l-.13-.23c-.47.54-1.16.63-1.69,1.16-.1-.3.3-.3.33-.36.02-.04-.11-.23-.08-.36.07-.32.26-.86.56-1.02v.35c.5-.4.96-.19,1.51-.23v.7s-.51,0-.51,0ZM54.53,17.64l-.31-.45c.72.22.32-.72.89-.3.1.08.11.25.38.25.21,0,.55-.53.82-.07l-1.78.57ZM58.64,19.75l.08-.35c.17-.04.6-.29.73-.12.24.33-.51.73-.81.46ZM67.11,7.29c-.07-.02-.08-.18-.18-.21-.46-.15-1.15-.26-1.63-.38l-.14-.33.53.1.11-.23c.37.14.83.24,1.17.4.09.04.37.36.64.36.13.08-.19.41.34.29-.06.27-.68.04-.84-.01ZM76.47,12.91c-.08.06-.01.52-.37.44v-.57s.93-.36.93-.36c.13.58-.4.37-.56.49ZM78.77,16.56c.2-.11.12-.51.35-.53v.8c-.4.1-.81.24-1.16-.04.2-.28.59-.1.82-.23Z"/><path class="cls-2" d="M39.47,24h0c.06.02.13.04.2.06-.07-.02-.14-.04-.2-.06Z"/><path class="cls-2" d="M14.91,39.99c-.07.07-.14.14-.22.22.07.03.11.05.17.07.05-.03.1-.05.1-.06.02-.04-.05-.16-.05-.23Z"/><path class="cls-2" d="M20.92,35l-.06-.23c-.2.01-.42.19-.64.41.06.24-.21.43-.25.64.08-.1.15-.19.19-.24.2-.23.46-.53.76-.58Z"/><path class="cls-2" d="M23.54,41.63c.82-.18,1.47-.74,2.05-1.47-.1.03-.19.05-.31.08,0-.04-.02-.08-.02-.12-.28.34-.58.65-.89.84-.06.04-.12.07-.18.1,0,0,0,.01.01.02l-.19.19s-.01.02-.02.04h0s0,0,0,0c0,0-.01,0-.02,0-.09.08-.18.18-.29.2-.05.01-.1.07-.15.11Z"/><path class="cls-2" d="M43.48,9l.02.05v-.05s-.01,0-.02,0Z"/><path class="cls-2" d="M6.45,37.86l.1-.19c-.07.06-.1.12-.1.19Z"/><path class="cls-2" d="M39.47,24c-.04.06-.08.13-.12.2.04-.07.08-.13.12-.2h0Z"/><path class="cls-2" d="M41.95,21.7c.18,0,.4.03.58.02.08,0,.16-.02.24-.04v-.1c-.28.04-.55.08-.82.12Z"/><path class="cls-2" d="M43.91,19.18c-.19-.08-.25.19-.24.29.03.24.27.52.38.81,0,0,0,0,.01,0,.01-.03.07-.16.13-.31.14.06.26.11.44.19,0,0,0,0,0,0-.08-.12-.13-.19-.23-.34,0,0,.02,0,.03,0-.2-.31-.4-.59-.52-.63Z"/><path class="cls-2" d="M6,39.17c0,.05-.02.1-.03.15,0-.03.02-.06.02-.09,0-.02,0-.04,0-.06Z"/><path class="cls-2" d="M23.4,41.66s-.05-.03-.09-.08c-.05.04-.11.07-.16.11.08,0,.17-.02.25-.03Z"/><path class="cls-2" d="M19.47,36.09c.12-.07.24-.14.34-.23.01,0-.04-.09-.09-.17-.1.1-.19.17-.29.24.01.05.03.11.04.16Z"/><path class="cls-2" d="M22.97,27.37c.07.03.14.05.22.08,0,.01.01.03.02.04.16-.08.33-.14.51-.17-.18-.27-.47-.07-.75.05Z"/><path class="cls-2" d="M24.01,41.28c.04-.06.05-.1.05-.13-.13.07-.27.13-.41.17.1-.01.2-.01.32,0,0,0,0,0,.01-.01l.03-.03Z"/><path class="cls-2" d="M23.86,101.95c-2.11-1.61-4.13-3.39-6.03-5.28C-5.07,73.78-6.04,37.49,15.66,15.79c19.94-19.94,53.53-21.15,76.46-2.76l-.63.78C68.95-4.26,35.95-3.08,16.37,16.5c-21.31,21.31-20.34,56.96,2.17,79.46,1.86,1.86,3.86,3.61,5.93,5.19l-.61.79Z"/></g></g></svg>