<?xml version="1.0" encoding="UTF-8"?><svg id="Layer_2" xmlns="http://www.w3.org/2000/svg" viewBox="0 0 232.32 116.04"><defs><style>.cls-1{fill:#ebc60d;}</style></defs><g id="Layer_4"><rect class="cls-1" x="62.4" y="23.4" width="4.14" height="20.1" transform="translate(97.92 -31.02) rotate(90)"/><polygon class="cls-1" points="72.59 6.94 76.73 6.94 47.81 45.23 43.67 45.23 72.59 6.94"/><rect class="cls-1" x="73.18" y="6.94" width="3.56" height="38.29"/><path class="cls-1" d="M101.82,7.06c4.86,0,7.32,2.46,7.32,7.37v5.7c0,4.55-2.41,7.11-7.21,7.11h-8.68l18.98,17.98h-5.28l-18.92-18.09v-3.08h13.23c2.67,0,4.03-1.31,4.03-3.97v-5.02c0-2.72-1.36-4.08-4.03-4.08h-15.32v34.24h-3.97V7.06h19.87Z"/><path class="cls-1" d="M139.46,7.06v3.92h-19.76v12.96h19.45v3.76h-19.45v13.59h19.97v3.92h-23.94V7.06h23.73Z"/><path class="cls-1" d="M159.12,7.06l8.26,31.47,9.31-31.47h3.97l8.99,31.58,8.36-31.58h4.13l-10.4,38.16h-4.03l-9.1-32.57-9.41,32.57h-3.97l-10.25-38.16h4.13Z"/><path class="cls-1" d="M229.86,7.06v3.92h-19.76v12.96h19.45v3.76h-19.45v13.59h19.97v3.92h-23.94V7.06h23.73Z"/><path class="cls-1" d="M55.75,53.46v43.84h24.96v5.02h-30.05v-48.86h5.09Z"/><path class="cls-1" d="M123.82,53.46l26.84,39.82v-39.82h4.95v48.86h-4.48l-27.91-40.96v40.96h-4.95v-48.86h5.56Z"/><path class="cls-1" d="M194.36,53.46v5.02h-25.3v16.6h24.9v4.82h-24.9v17.4h25.57v5.02h-30.65v-48.86h30.38Z"/><path class="cls-1" d="M219.93,53.46c6.29,0,9.44,3.28,9.44,9.91v6.22c0,6.22-2.88,9.3-8.57,9.3h-6.69c-2.21,0-3.35,1.21-3.35,3.61v6.62h-4.89v-7.5c0-4.55,2.21-6.83,6.69-6.83h6.96c3.35,0,5.09-1.81,5.09-5.49v-5.02c0-4.02-1.94-6.02-5.69-6.02h-19.74v-4.82h20.75ZM210.76,94.55v7.76h-4.89v-7.76h4.89Z"/><path class="cls-1" d="M63.56,62.01c9.95-12.61,29.74-12.74,40.8-1.41,11.33,11.05,11.21,30.86-1.41,40.8,4.58-5.74,6.9-12.8,6.6-19.69-1.13-23.32-28.05-34.3-45.99-19.69h0Z"/><polygon class="cls-1" points="42.19 90.31 42.19 85.03 15.4 85.03 11.36 90.31 42.19 90.31"/><polygon class="cls-1" points="36.9 53.84 42.19 53.84 5.29 102.69 0 102.69 36.9 53.84"/><rect class="cls-1" x="37.65" y="53.84" width="4.54" height="48.86"/></g></svg>