<?xml version="1.0" encoding="UTF-8"?><svg id="Layer_2" xmlns="http://www.w3.org/2000/svg" xmlns:xlink="http://www.w3.org/1999/xlink" viewBox="0 0 97.16 114.38"><defs><style>.cls-1{fill:none;}.cls-2{fill:#ebc60d;}.cls-3{clip-path:url(#clippath);}</style><clipPath id="clippath"><polygon class="cls-1" points="10.12 114.38 0 114.18 0 0 97.16 0 10.12 114.38"/></clipPath></defs><g id="Layer_4"><g class="cls-3"><path class="cls-2" d="M21.66,96.42c.08.18.25.33.28.54-.07.19-2.19-2.19-2.68-1.96l1.51,1.8-1.07-.69.31.65-.51-.04.95,1.15-.92-.61c.23.28-.01.69.04.9.08.31,1.91,2.1,2.29,2.44.51.46,2.46,1.78,2.75,2.22.04.05.09.18,0,.19-2.38-1.62-4.71-3.69-6.78-5.71C6.46,86.21-.49,69.18.65,53.23c.61-8.56,3.8-19.46,8.5-26.66C26.93-.65,66.32-7.81,91.39,13.53c1.07,1.36,3.11,2.42,4.11,3.74.07.09.18.27-.01.29-1.84-1.69-3.74-3.33-5.96-4.49l-.15.06c-.2.68-1.24.5-1.45-.23l.44-.19c-.23-.22-.52.04-.72,0-.17-.04-1.39-1.15-1.62-1.19-.16-.03-.28.19-.32.16l.02-.38-.49.02.21.31-.44.19.34.34c-.43-.22-.57-.07-.95.15-.07-.47.43-.37.35-.78l-.83-.79-.99.39.43.62c-.46.14-.4-.07-.65-.31l-.1.52c-.3-.04-.34-.47-.4-.51-.25-.16-1.33-.12-1.63-.71l-.75.41c.26.42.68.47.56,1.08-.31.13-.18.03-.27-.11-.21-.34-.17-.36-.69-.23.01.32.49.43.6.57.08.1.05.91-.27.34l-.4.16c-.34-.09-.02-.55-.01-.78,0-.3.02-1.07-.08-1.31-.06-.14-.84-.59-1-.39.3.23.08.56.11.65.02.08.24.15.31.39s.11.66-.14.81c.01.07.64.05.61.38-.33.02-.67.14-.87.44l.2.26.26-.18.48.15-.39.8-.52-.1c.36.32.33,1.02.82,1.13l-.05-.61.41.75c-.36.26-.26.67-.26,1.07-.25,0-.13-.47-.23-.71s-.4-.75-.54-.96c-.08-.12-.82-.89-.89-.84-.37.29.33.6.42.81l-.23.07.56,1.08h-.25s.16.58.16.58l-.49-.85c-.62.26-.35.69-.49,1.22-.12.46-.43.8-.4,1.27l.28-.33.1.34-.33.1c.17.53.17.97-.5.88.01-.28.38-.22.2-.61-.02-.04-.17,0-.22-.05-.11-.1-.08-.29-.19-.27-.4.08-.03.45-.05.5-.02.07-.61.37-.68.65l.18.2c-.36.01-.84.31-1.12,0,.55-.08.78-.11,1.06-.63.08-.14,0-.31.09-.46.13-.23.76-.63.77-.9l-.26-.05c.44-.37.48-1.73.32-2.23-.08-.22-.6-.46-.52-.63.15-.32.28.24.41.13-.25-.38.38-.58.14-.78-.02-.02-.17.09-.22,0s-.08-.46-.18-.61c.41-.36.33-1.12,1.04-1.07l-.1-.34-.46.13.86-.82c-.16-.2-.21-.57-.34-.74-.1-.13-.31-.09-.35-.14-.2-.24-.43-.62-.56-.91-.58.24-.65.18-1.1-.18l-.15.3c-.47.21-.47-.12-.55-.11-.21.03-.45.37-.68.3-.04-.01-.11-.16-.23-.2-.1-.04-.25.02-.33-.02-.04-.02-.67-.71-.36-.66l.72.34c-.22-.19-.63-.83-.91-.8-.16.02-.37.26-.65.14l.1.34.34-.09.11.33h-.38c-.07.32.34.28.35.33.02.07.04.67,0,.68l-.16-.33-.23.07v.26s-.77.09-.77.09l.04-.31c-.46.03-.3-.57-.46-.67-.12-.08-2.74,0-2.68.58-.04.43.73-.26.85-.29.3-.09.8.12,1.15-.1.07.2-.25.17-.41.3-.25.23-.26.91-.9.76l.54-.71c-.4.14-.63.26-.9.61-.08.1-.22.04-.08.3l.31-.21.2.45,2.49-.18c.47.32-.9.03-.75.4.39-.09,1.34,0,1.7.12.03.01.38.51.29.54l-.7-.05c.3.5-.03.57-.09,1.02l-.78-.14c.57.51,1.23.89,1.58,1.61l-.44,1.29-.18-.2c-.51.97-1.71,1.08-2.61,1.5l-.1-.34c.36-.07.84-.24.93-.64-.64.42-1.45.33-2.03.71,0-.2-.65-.63-.77-.64-.17,0-.31.16-.43.17-.27.02-.52-.09-.83.06-.25.12-.33.34-.58.41l-.11-.59-.41.74-.32-.03.23-.5c-.61-.08-.38.94-.71,1.34.04.47,1.09.51.94-.1l-.35.1c0-.36.49-.24.74-.46.14.07.17.95.43.62.07-.21.06-.63.2-.75.53-.45.89-.43,1.55-.47.07.18.11.35.34.25l-.11.27c-.19-.25-.52.02-.54,0-.07-.03,0-.27-.19-.17-.04.38-.26.33.08.72-.29.2-.27-.2-.51-.21-.2,0-.42.12-.62.16l.25.06-.04.25c.2.08.31-.56.56-.22.28.38-.23.33-.26.39l.22.31-.35.1.18.19c-.5-.11-.64.57-1.04.05l-.34.34-.05-.61c-.26.32-.77.25-1.04.44-.14.09-.05.31-.18.4-.16.12-.59.23-.8.36l.05-.26c-.47.38-.38.09-.85-.03l.03-.23c-.41.09-.7.13-.99-.21l-.22.75c.39.16.74-.22.87.43l-.85.49v-.38s-.3.21-.3.21l.09-.51-.19.02.02-.23c-.59-.05-.75.72-1.39.77l.23.29c.21-.09.7-.26.74.04l.22-.31.13.19.3-.19-.18.67.62-.43.13.46c.19,0,.03-.2.12-.29.06-.06.77-.58.81-.6.31-.13,1.08.1,1.23.02.1-.05.08-.83.55-.9l.4.51c-.55.32-.23-.36-.67-.18.28.3-.19.54-.13.9h-.36c-.01.16.18.23.21.3-.38.18-1.06.29-.79.72-.19-.1-.78-.26-.87,0s.74.48.4.94c-.54-.01-.54.68-.33,1.02-.35.05-.82-.47-1.17-.59s-.74.06-.98-.4c.69.07.75-.23.64-.81-.47.46-.85-.09-.98-.09-.09,0-1.55.52-1.67.59-.22.14-.31.68-.87.64l.14-.79c-.29.3-.48.26-.83.12.01.44.21.2.36.39-.33.08-.66.5-.91.61-.17.08-.45,0-.5.05-.01.02-.02.25-.08.39-.11.22-.45.11-.04.5-.12.03-.24.07-.32.17-.25.32-.46.55-.72.88-.21.27-.54.32-.32.71.43-.43.72-.23,1.12-.88.33-.54-.08-.63.8-.67,0-.45.03-.13.29-.37.38-.35.55-.62,1.15-.67l-.17.19.16.19-1.01.77c-.11-.31-.25-.12-.42-.11,0,.5-.13.51-.17.83-.04.3.15,1.04-.19,1.24-.18.11-.27-.17-.41.46l.44.07.11-.29.11.45-.48.41-.11-.39c-.58-.21-.36.54-.84.54l-.15-.95c.25-.16.53.28.73.16.15-.09,0-.72.53-.53l-.15-.44h-.48s.1.34.1.34l-.34.1c-.03-.43-.36-.39-.71-.29.08.22.2.61-.18.67l-.15-.95c-.88,0-.68.36-1.13.82l.18.07c.33.12-.31.89-.49.39-.07.23-.39.33-.47.5-.04.08.11.73.07.89-.05.21-.52.73-.33,1.06-.22.12-.12-.48-.38-.26-.15.12-.2.59-.65.56l.18.19-.54.28.05-.26-.81.23-.04-.36c-.33.46-.06.97-.32,1.46-.37.69-1.74,1.01-2.38,1.43l.28-.33-.25-.06.04-.24c-.27.02-.36.29-.57.41-.28.15-.83.23-1.07.45-.18.16-.05.73-.52.27.4-.05.44-.81.51-.88.05-.06.27.03.38-.04.25-.14.97-.74,1.27-.64.09.03.15.24.28.24.58-.02.24-.23.27-.33.04-.11.2-.2.25-.33.15-.42-.1-.68.63-.67l-.1-.34-.57.16-.02-.49.8-.23.1,1.21-.24-.04c-.03.52-.2.87-.71,1.06.45.36.5-.12.54-.15.68-.44.94-.31.99-1.27,0-.11.21-.33-.12-.35-.06,0-.03.82-.34.78-.03-.63-.21-1.27.57-1.47l-.1.52.23-.07c-.14-.3.16-.17.23-.3.12-.2.03-.43.19-.68.35-.54.79-.14.84-.26l-.16-.57.46-.13-.09.77c.21-.19.24-.7.36-.86.24-.3.77-.2.71-.81l-.16.29-.35-.16c-.2.1-.5.1-.67.2-.14.08.02.62-.59.42.02.14.14.32.11.45s-1.27,1.04-1.41,1.29l-.15-.32c-.37.35-1.35-.39-.85.49l-.61.04-.27-.91c-.43-.04-.31.44-.43.51-.22.12-.72-.02-.99.15l.51.47c-.21.15-.95,0-.98.04,0,0,.07.14-.02.25-.17.21-.59.37-.44.75l.46-.13.19.44c.16-.27.5-.14.69-.29.22-.16.33-.68.69-.73l.4.51-.92.27c.11.44.53,0,.43.62-.39-.16-.66.25-.96.28-.04,0-.32-.36-.71-.05l-.24-.79h-.49c.07.3.29.67,0,.87l-.33-.28c.27.2.28.81-.07.84-.15.01-.27-.19-.45-.07l.3.58-.15.37.8-.23c.25.39-.44.28-.51.39.12.5.44.56.82.26-.05.49-.58.36-.75.84l-.38-1.13-.7-.05c.09.3.15,1.11.02,1.36-.09.18-.14-.32-.35-.15l-.76,1.46.49-.02c-.3.12-.26.5-.46.76-.1.13-.35.21-.36.23-.02.05.41.76,0,1.11-.25.15-.25-.24-.42-.22-.4.05-2.14,1.01-1.02,1.45-.18.23-.36.3-.19.62l-.31-.04c0,.38-.21.16-.35.29-.74.66-1.66,1.93-2.84,1.38.6-.14.41-.71,1.16-.71-.35-.31.03-.75.33-.98l-.2-.3c-.36.03-.14.36-.32.64-.13.2-1.01,1.24-.98.47-.68.45-.61-.35-.02-.49l-.3-.21c.1-.57.62-.92.19-1.49l.52.1-.46-.3.2-.18-.31-.22c-.69.33-.77,1.13-1.19,1.71-.11-.08-.25-.04-.16-.19.15-.26.68-1.08.53-1.34-.33-.28-.37.08-.63.23-.12.07-.3.06-.43.13-.1.06.02.33-.18.3l-.4-.24c-.62-.16-.62,1.74-1.02,2.02-.04-.35-.12-1.52-.03-1.8.17-.5.92-.79,1.28-1.18l-.39-.07c.44-.43.12-.67.15-.97.03-.34.22-.69.14-1.04l-1.01,2.09c.31.08.5-.41.63-.62.08-.04.11.1.1.15-.05.39-1,1.23-1.21,1.65-.25.51.12,1.42-.56,1.91-.35-.48-.99-.08-1.2.35l-.05-.61c-.16,0-.1.65-.36.48-.36-.25.6-.89.67-1.13l-.35.1.13-.84c-.29.15-.77.29-.67.69l-.18-.19c-.21-.11-.78,1.66-.89,1.87l-.21-.31c-.31.23-.36.94-.68.88l.28-.76c-.19-.08-.44.71-.7.57-.32-.17.36-.78.26-.82l-.76.59c-.11-.22.08-.45-.28-.54l-1.02.54-.09-.97c-.15.27-.47.46-.64.69-.33.43-.61,1.43-1.07,1.63-.16.07-.36-.01-.55.09-.23.13-.53.94-.58.89l-.07-.21-.16.04c-.5.54-1.13.98-1.12,1.81,0,.26.27.27.27.43.02.37-.54,1.47-1,1.53l.38.24c.65-.44.55-1.46.79-1.96.12-.24.58-.55.69-.87l-.45-.06v.38s-.38-.2-.38-.2l.37-.66.16.33c.68-.19.72-.19,1.07-.8l.12.21.49-.02-.25-.43c.46.13.66-.3,1.05-.43l-.1.28.41.13-.2-.69c.2-.02.2.19.48.26.24.06.55-.17.76-.25-.45,1.36-1.4,2.47-2.1,3.71-.19-.1-.26-.05-.14-.27.24-.45.62-.82.66-1.37l.24.18c0-.62.74-.9.65-1.62-.04-.32-.07-.21-.15.01-.11.3-.23.58-.41.84-.17.24-.94.97-.96,1.06-.04.13.06.32,0,.53-.1.34-.55.61-.58,1.03l.52-.34-.35.49.29.4c.28-.09.77-1.1.94-1.36.02-.03.18.04.2,0,.12-.15.33-1.04.59-1.26.2.04.04.27,0,.39-.12.36-.31.48-.34.97,0,.11-.06.51.16.43-.19-.41.43-1.07.47-1.29.02-.13-.21-.35-.12-.64.15-.45.81-.81.61-1.21l.26.05-.17-1.44c.41-.25.3.53.43.62l.43-.25-.1.52.58-.29-.06-.48.26.11c.03.54-.36.73-.52,1.25-.19.63-.05,1.37-.13,2.05-.06.49-.28.96-.32,1.46.26.18.19-.05.23-.17.12-.34.3-.81.39-1.13.15-.58-.02-1.21.57-1.71l.1.15c-.33,1.04-.64,2.09-.96,3.13-.09.3-.05.64-.16.97-.14.43-.51.89-.71,1.29-.05.11-.42.2-.45.48l.31.22-.7.58c-.2-.28.16-.24.15-.37-.02-.14-.21-.29-.15-.5-.16-.03-.61.41-.64.55-.03.12.26.4.08.74-.1.18-.31.09-.39.17-.05.06-.02.23-.07.28-.2.2-.81.24-.27.68l.21-.12c-.03.45.27.64.54.94l.31-.1.07-.24c.11.39-.29.95.4.51v.25c.05,0,.09-.01.12-.03.16-.14.08-.48.4-.12l-.28.33c.6.1.88-.54,1.28.13l-.45.38-.12-.21c-.25.03-.43.25-.68.27-.21.02-.29-.18-.32-.19-.09-.01-.21.12-.37.06-1.33-.5-1.77-1.37-1.72-2.76.01-.3.31-.59,0-.78-.61-.38-1.16.57-1.75.55-.25,0-.46-.33-.72-.45-.67-.3-1.36.12-1.66-.82-.08-.26.14-.56-.18-.83-.23.05.06.4-.16.54-.67.42-1.1-.73-1.34-1.04-.41-.55-1.23-1.03-1.91-1-.02-.16-.2-2.31-.56-1.95-.04.38-.3.59-.08,1.02l-.69.2c0,.19.17.02.28.13.38.4.12.61.05,1.01-.38.33-.36.65-.58.91-.21.24-.68.49-.8.65-.08.1-.81,2.27-.81,2.4,0,.24.13.49.19.73l.42-.49c.54-.06-.02.32-.1.52-.05.13-.22.99-.14,1.03l.57-.16.17.57.27-.57.96.1.33,1.09.34-.04-.21.29v.26c.21-.09.48.19.6.16.06-.01.16-.32.42-.21.32.14.08.4-.08.53l-.12-.21-.22.06c.11.3-.27.3-.39.6-.28.7.39,2.24.22,3.01-.06.28-.38.42-.31.74l-.24-.18-.4.98-.33-.28-.21.56c-.23-.6.37-1.17.5-1.8.12-.58-.19-1.3.49-1.66-.02-.46-.44-.94-.51-1.32-.06-.34.21-.55.12-.85l-.34.1.13.46-.46.13c.22.15.64.61.38.88.06-.48-.55-.61-.57-.66-.07-.18.05-.45-.06-.65l-.47.51c-.02.07.76.33.31.65-.16-.55-.58-.01-.73-.15-.54-.5.1-1.5-.89-1.37l-.15.54c-.06-.23-.12-.52-.09-.75.02-.15.26-.1.17-.26-.5-.01-.2.45-.59.54l-.09-.72-.16.29-.3-.41c-.37.46-.31.77.14,1.14l-.2.18.38.45.31-.21.07.23-.47.26c-.19,0-.22-.28-.34-.36-.03-.02-.47,0-.58-.15-.16-.21-.55-.92-.25-1.13l.21.31c-.27-.6.19-1.28.4-1.85l.34.52c.25-.3-.15-.8.01-1.3.09-.28,1.02-1.06.7-1.4h-.24c.81-.75.23-1.9.57-2.77.05-.12.22-.21.27-.35.25-.65.31-1.5-.45-1.76-.27.64-.67,1.04-.62,1.79.02.33.34.84.13,1.18-.03.06-.2.07-.25.14-.51.76-.47.37-.73.58-.02.02.07.32-.31.3l-.02-.49-.26.2c-.06.19.32.55.12,1-.09.21-.32.23-.37.35-.1.23-.24,1.77.31.75l.12.6-.49.25-.46-.49-.38.61c-.29-.12-.14-1.91.08-2.19l-.61-.51.27.67c-.07.2-.98.55-.62.92l.3-.46c.26.45-.37.68-.51,1.02-.2.48.1.93.04,1.17-.04.17-.33.53-.43.74-.06.12.07.25.06.27-.06.12-.56.37-.71.47l.48.41.08.67c-.38-.09-.35.3-.33.59l-.29-.16v.42s.4.15.4.15v.42c-.58.22-.74-.28-.83-.75l-.42.26.23.79.14-.79.71,2.03.33-.59.27.11c.02.42-.7.71-.71.76-.02.07.14.74.37.64l.21-.56-.07,1.07.23.02v.35s.22-.12.22-.12c-.12.93-.05,1.17.55,1.89l.36-.48.08.72.35-.1-.03.75.77.09-.55.22c.23.49.4,1.03.66,1.5.3.56.72.62.58,1.5-.3.13-.18.04-.28-.1-.17-.26-.46-.55-.56-.74-.3-.56.04-1.4-.64-1.47,0,.45.35.82-.28.95l.38.02-.03.75c-.43.25-.19-.51-.51-.47l.11.84-.33-.28c.06.35-.68.47-.58,1.04-.46-.27-.38.12-.8.23-.06-.58.5-.97,1.01-1.03v-.24s-.55-.18-.55-.18l-.19-1.48-.13.41c-.37,0-.19-.35-.29-.59-.19-.5-.4-.84-.42-1.44l-.19.24c-.1-.21.12-.47.07-.64-.05-.19-.37-.26-.35-.33,0-.02.25-.01.23-.31-.01-.27-.18-.44-.27-.67-.27.11.1.6-.33.59-.06-.04.13-.8-.35-.77l.26.92-.26-.05.23.36c-.38.24-.02.27-.03.57,0,.06-.14.63-.23.7.04-.33-.18-.94-.16-1.2.04-.65.26-.81.07-1.7-.03-.13-.02-.33-.19-.25l.03.98c-.22.07-.21.12-.28-.11-.15-.5.19-1.54.12-2.13-.3-.58-1.46.62-.77,1.14l.35-.72c.35.34.08.8.16,1.2l-.27-.29c-.1.51-.04.8-.46,1.19-.06.32.56,0,.67-.01.41.36-.02.54-.17.86.2.14.45-.03.46.3l-.35.1c.31.26.03.71.44.68-.28.52.26,1.11.14,1.76l.3-.27c-.06.36-.05.7-.02,1.06.07.73.19,1.05.44,1.67.12.31.16.67.28.98l.22-.93.09,1.59.61-1.54.29.34c-.43.56-.64,1.13-.72,1.84l.26.04c-.39.55-.2,1.04-.25,1.68l.42.07c.27,0,.11.54-.01.5l-.3-.16c.25.25.08.57.13.79.06.24.5.58.4,1.04l.07-.39.27.3-.16-.57.52.1.03-.32c.27-.32.17.12.4.07l-.13-.46.38.02-.16-.57.33.28c-.2-.58-.38-1.14-.06-1.72l.33.28.48-.51c.09-.31-.57-.59-.6-.98,0-.08.51-.9.29-1.16l.36.39.39-.36.04.98.43-.25.21.31v-.38c.56.49.93,1.02,1.23,1.69-.34.75-.68-.23-1.08-.36,0,.26.29.49.33.7.01.08-.16.13-.19.22-.04.13-.45,1.53.04,1.02l.17.57-.35-.15c-.23.18-.24.94-.1,1.19.05.08.25,0,.28.07.04.14-.06.37.04.58.03.07,1.08.59.93,1.06l-.26-.05.2.69-.26-.05c-.09.5.41.53.53.97l.28-.23c.02-.51-.37-.53-.39-.57-.27-.49.45-.71.27-1.24l.41.13c-.05-.41.07-.9.22-1.27.05-.11-.06-.21.22-.22.06.2,0,.41.1.6.13.25.34.05.39.25l-.2.11c.42.45.16.81-.03,1.26l.61.38-.22.31-1.22-.14.66,1.18c.09.18,1.21.09,1.05.44-.12.26-.28-.1-.35-.15v.25s-.81-.01-.81-.01l-.05.27h-.43s.79.57.79.57c.17.37-.35.03-.42.24.11.48.88.63.93.68.04.03-.08.25,0,.34.03.03.54.25.72.38.2.15.24.42.62.44l-.33.16c.52.28.32.76.59,1.19.2-.02.04-.19.07-.35,0-.05.16-.09.15-.14-.08-.23-.42-.84-.42-1.11,0-.09.16-.12.17-.16.04-.15-.39-.29-.02-.34.4.14.41.55.66.9s1.28,1.67,1.61,1.81c.14.06.32-.1.45.05.12,1.09-1.17-.34-1.5-.6-.06-.04-.55-.38-.6-.23.08.71.57,1.13.87,1.74.39-.32.33-.16.71-.07-.28.78-.13.87.42,1.39.35.33.1.16.31.5.1.15.83.94,1.02.7-.36-.33-.24-.75.12-.27l.41-.24.34.51-.52-.1c.01.58.42.76.69,1.11.22.29-.36,0-.16.29s.57.38.67.74l-.22.37c.76.82,1.76,1.36,2.7,1.94.17.2-.08.39.01.63.11.3.58.21.14.46.58.32.94.72,1.25,1.32l.31-.22,1.52,2.22,1.03.15-.31-.65c.42-.24.36.49.39.51l.57-.16-.38-.45.2-.18-.26-.24-.33.34-.28-.54.36-.04c-.4-.72-1.79-1.98-1.87-2.7,0-.08.2-.11.18-.18-.49-.51-.44-1.13-.75-1.71l.26.05-.3-1.9c-.36.52-.19,1.19,0,1.74l-.49-1.04c.23-.88.39-1.76.54-2.64-.36-.14-.41.57-.7.14.11-.05.46-.34.48-.42.08-.35-.38-.37.36-.57-.21-.3-.27-.43-.03-.74.37.51.14-.28.29-.52.2-.31.5-.21.53-.24.1-.11.16-.88.74-.94-.39-.46.14-.83.3-1.33.22.7.77-.12.92-.45l-.72.52-.09-.34c.49-.09.29-.43.42-.69.1-.2.63-.38.51-.59-.88.28-1.19,1.37-2.09,1.6-.15-.08.11-1.48.2-1.67.19-.42.94-.68.71-1.2l.23-.06.23.19.54-.53.08.47c.06-.41.19-.98.65-.56l-.28.33.3.16.82.02c.02-.32.06-.24.35-.29l.05-.64.44-.19-.03-.35.13.19.3-.19-.04.51c.16-.1.2-.36.28-.44.51-.47.5-.03.57-.05.21-.07.29-.75.5-.64l-.02.38h.38s-1.8,1.1-1.8,1.1l.24.05-.04.2c.93.09,1.14-.75,1.7-1.23.27-.24.02.39.29.16.16-.13.91-1.19.97-1.15.09.17-.01.34-.1.47-.17.25-.51.22-.35.53.52-.47.48-.28.98-.29.15,0,.94-.06,1.03-.02.07.03,0,.28.26.32.3.05.55-.06.77-.26l-.16.3c.31.4.67-.08,1-.15.3-.07.7,0,1.02-.18l-.42.25c.25.19.35-.07.25.42.34.02.12-.26.24-.32.27-.15,1.62-.12,1.77,0,.13.1.21.65-.02.74l-.02-.49-.23.06-.07.64.46-.13-.05.26.57-.16-.1.52c.37-.04.53.31.87,0v.38s.29-.46.29-.46l.61.19-.57-.7c.51-.26.43.17.61.34.19.19.44.16.44.72l-.21-.31-.23.07-.03.32.28.05.04.59.28.06c.46-.45.44.13.87.05l-.28-.58.28-.29c-.09.41.73.9.75.96.03.1-.22.28-.09.46l.28-.33c.06.05.08.59.04.7-.09.25-1,1.21-.93,1.35l.54.42c.3-.26-.17-.58-.13-.69.01-.04.42-.58.48-.66.31-.37.3.16.09.41.74.44-.08,1.14.34,1.71l-.69.2-.1-.35c-.43.23.23.76.14.94-.01.03-.23.08-.34.25-.12.18-.26.53-.23.74.05.36.42-.25.52.09.04.14-.4.3-.44.43-.05.17.09.36.09.52,0,.14-.34.11-.14.37l.31-.21-.24,1.31-.27-.48-.2,1.24c-.53-.34.01-.75-.16-1.19-1.28-.2-.7,1.27-.97,2.02-.26-.42-.26-.7-.85-.61l-.23.55c-.15-.4.44-.85-.34-.72-.4.5-.16,1-.2,1.43-.13,1.63-.31,3.42-2.43,3.25-.09-.21.21-.16.34-.19.2-.04.37,0,.62-.09,1.2-.46,1.2-1.88,1.09-2.98-.05-.44-.33.44-.33.47-.02.12.27.46-.14.47.07-.39-.16-.84-.2-1.1-.01-.1.23-.1.17-.32-.04-.17-.62-1.35-.71-1.11l.07.48-.18-.2-.05.26c-.68-.71-1.04-1.64-2.23-1.47.63.28,1.35.52,1.49,1.31l-.98-.76c-.43-.33-.78.12-.25.37l-.43.25c.46-.15.99-.1,1.23.39-.51.02-1.06-.49-1.53-.22s-.63,1.86-.36,2.3c.09.15.42-.23.12.42.2-.02.28-.18.33-.35.15-.6-.35-.77.69-.87l-.68,1.75c-.2-.35-.49-.03-.84-.13l.59.33-.18.24.84.32c-.48.3-.72-.24-1.16-.16.03.22.11.31.3.42.21.11.52,0,.62.19l-.45.19-.6-.39.57.7-.31.22-.1-.35c-.05-.03-.4.24-.49.25-.06,0-.09-.13-.13-.14-.07-.02-.18.1-.27.03-.31-.25-.31-.96-.83-.51l.26-.78c0-.16-.23-.26-.35-.19-.45.24-.28,1.54,0,1.92l-.06,1.08c-.47-.67-.2-1.3-.61-1.96-.07-.11-.13-.34-.29-.27l-.1.52c-.16-.33-.07-.57.13-.84l-.29-.16.51-.83c-.09-.07-1.01.13-1.16-.16.36-.08.8.12,1.14-.08.11-.06-.11-.39.39-.24-.08-.09-.11-.36-.14-.4-.03-.04-.45.02-.29-.22.1-.16.49.17.52.1-.2-.41.29-.55.23-.94.19-.1.12.18.24.26.53.39,1.55.9,1.39-.23-.52.12-.49-.11-.75-.47l.29-.18.4-1.23-.25-.27c-.26.58-.29.78-.86,1.12.07-.36.44-.72.03-1-.47.29-.62.96-.91,1.38-.62.87-1.23.98-2.14,1.43-.09.04-.14.15-.18.23l-.18-.2-.33.59c-.18-.19.02-.81.16-.97l1.29-.69-1.4.43c-.49.31-.64,2.51-.56,3.07.1.65.48,1.37.67,2.02.04.12.25.62.09.67l-.96-1.59.29.16c-.64-1.4-.64-3.25-.11-4.69-.58.11-.55,1.27-.63,1.4-.08.13-.09.03-.25.36-.07.15-.37.3-.04.37l.28-.02.07,1.53-.23-.37c-.01-.42-.32-1-.36-1.35-.06-.49.12-1.13.13-1.62-.3.29-.36.8-.28,1.2-.35-.06-.21-.77-.14-.99.15-.49.92-1.07,1.43-.99l-.3-.16.13-.41c-.05-.04-1,.14-1.1.19-.04.02-.44.76-.45.83-.04.18-.06,1.07-.03,1.25.22,1.09.89,2.84,1.44,3.84.48.87,1.21,1.47,1.59,2.36l-.21.12c-.07-.38-.7-.05-1.05-.08-.16-.01-.25-.45-.66.2l-.45-.25.16-.29-.32-.03.08.47c-.36-.04-.96.03-1.27,0-.17-.02-.24-.26-.44-.31-.15-.04-.4.19-.57.07-.1-.07-.13-.31-.32-.39-.31-.14-1.27,0-1.66-.13l-.11.28c-.49-.59-1.16-1.11-1.77-1.59-.66-.51-2.56-1.65-2.97-2.14-.08-.1-.15-.18-.16-.32l.64.06c-.13-.82-1.01-.89-1.43-1.34-.3-.32-.46-.91-.94-1.08l.57.89c-.27.55-.53-.32-.67-.45-.61-.58-.44-.44-.9-1.07-.16-.22-1.68-1.62-1.9-1.73l-1.81-.39c.29.3.61.85.88,1.11.28.28.12-.2.2-.18l.43.44c.1.39-.41-.21-.47.32l-1.14-1.16,1.2,2.02.31-.22.74,1.28-.35-.15c-.05.38.37.78.62,1.06-.22-.09-.45-.17-.65-.31-.09,0-.04.13,0,.19.29.42,1.44,1.03,1.89,1.38-.25-.55-.82-.8-1.23-1.26.08.03.55.24.56.21l-.58-.95,1.61.9c.1.27.38.52.7.42l-.96-1.16.2-.19-.28-.71c.41.27.85.53,1.24.81.17.13.28.4.52.54.31.18.98.02.43.43l.57.72-.21.12c.01.29.36.5.43.71.05.15-.11.29-.04.43.15.33,1.43,1.27,1.77,1.6-.05-.11-.06-.23-.1-.34.63.27,1.1.99,1.45,1.57-.58-.09-.75-.74-1.09-1.1-.11-.11-.24-.11-.26-.13ZM36.44,9.37c-.35.12-.74.18-1.09.31-1.98.77-4.58,2.08-6.36,3.24-.3.2-.78.77-1.17.91-.24.08-.45-.57-.69.1-.05.13.04.33.03.35-.03.05-.29-.03-.41.03-.37.18-1.34,1.22-1.86,1.48-.24.12-.55.07-.6.1-.01.01.02.13-.02.17-.21.21-.41.14-.18.58l-.42.2.15-.35c-.34.11-.88.2-1.14.45-.11.11-.07.29-.18.4-.25.28-1.31,1.15-1.4,1.36-.08.16.08.27.06.41-.08.45-1,1.33-1.42,1.52l-.77.98.29.11c.44-.32.87-.94,1.26-1.24.17-.13.35-.07.46-.14.22-.14.33-.41.6-.47-.14.59-.69.82-1.05,1.3-.17.23-.38.83-.54.96-.37.3-1.27.45-.9,1.19l.46-.13-.1.52.36-.06.33.49c.48.13.51-.44.95-.53v.25s.71-.14.71-.14l-.53.47c-.39-.54-.72.59-1.32.63l-.05-.61c-.26.4-.09.82.04,1.23l-.3-.16c-.26.18-.21.48.11.59l.76-.59c-.35.3.06,1.67,0,1.74-.06.07-.34.1-.44,0-.17-.15-.03-.37-.09-.45-.02-.02-.31-.3-.4-.39-.46-.46-.96.64-.34,1.13.14.11,1.35.31,1.47.25.31-.31.02-.51.17-.96s.48-.57.6-.78c.13-.22.18-.54.36-.81.52-.79,1.16-1.35,2.07-1.65l-.18-.2c.38-.71.9-1.13.91-2.01,0-.22-.07-.16-.21-.11-.43.15-.82.5-1.29.49-.27-.23.61-1.31.65-1.62.02-.16-.09-.21-.22-.12l-.45.38c-.12-.23.11-.35.15-.55.03-.16-.07-.35-.04-.45.04-.12.59-.36.74-.51.33-.33.65-1.11,1.25-1.43.23-.12.8-.01,1.09-.22l-.18-.19.65-.32-.28-.1.34-.53-.54.28-.07-.23c2.38-1.74,4.76-3.38,7.44-4.62.59-.27,1.37-.46,1.99-.73.54-.24,1.05-.56,1.58-.82l-.1-.34-1.38.4.62-.43ZM34.2,11.51c-.6.25-1.24.47-1.81.78-.17.09-.61.36-.66.55.73-.08,1.66-.59,2.3-1,.18-.12.31-.05.17-.33ZM53.03,11.29c-.76-.14-.99.92-1.06,1.49l-.43.24.38.45-.38.11c-.14.02,0,.36.02.37.26.15.32-.34.35-.35.11-.03.26.07.41-.05.17-.14.26-.65.48-.81.37-.22.64.52.94-.16.11-.24-.05-.38,0-.62l-.75.4c.07-.15.82-1.14.63-1.24-.4.06-1.08,2.02-1.32,1.87-.27-.71.22-.57.44-.86l.31-.84ZM46.97,13.36c-.09-.05-.08-.2-.16-.15-.16.24-1.08.71-.16.54.08.04-.09,1.41.59-.12,0-.3-.15-.2-.27-.27ZM16.92,22.71l-.04-.36-.77.72.02.37,1.16-.71-.07-.23-.31.21ZM46.63,16.45c.1-.35.4-1.1.1-1.36-.36-.31-.32.29-.43.54-.2.46-.59.8-.12,1.24-.67.08-.86.65-1.35,1.04-.25.2-.56-.05-.5.73-.5.17-.38-.53-.74-.65-.22.29-.41.5-.8.48.42.3.43.77,1.02.7l.04-.25h.44s-.23.92-.23.92l.64-.37c-.05.3-.61.52-.68.69-.05.12.06.22.05.28-.01.06-.25.02-.15.19l.47-.07-.45.43c-.35.19-.17-.53-.2-.55l-.38-.02.05.56.25.04-.91.95-.16-.31-.35.03c.1-.09-.01-.28.09-.34.29-.15.13.24.35.15-.03-.31.09-.88-.33-.79l-.06-.15.45-1-.39-.07c-.2-.27.12-.25.19-.43.02-.04-.07-.87-.08-.92-.12-.41-.48-.06-.73.04-.02.34.26.13.32.23.22.39-.05.39-.09.54-.18.62-.5,1.18-.6,1.82l-.52-.1-.53,1.39-.35-.15c-.28.89-.76,1.59-1.44,2.24-.34.33-1,.5-1.06,1.15l.26.05c-.02.21-.71.43-.5.83.39-.51,1.1-.53,1.11-1.31l.42.38c.3-.77,1.1-.83,1.42-1.53l.38.26-.28-.54.34-.1-.03.23c.41-.03.28.29.43.52l.45-1.25.31.41c-.02-.19.16-.42.33-.34.29.13-.49.6-.26.82,1.04-.22.06-.88.59-1.41l.13.46.34-.34c.29-.18.32.42.16.57l-.29-.16-.2.37.43.19c-.07.3-.41.29-.18.67l.36-.04c-.28.35-.63.39-.36.91.32-.04.5-.19.6-.49l-.26-.05c.53-.44-.29-.66.25-1.24.05-.06.26-.05.33-.13.05-.05.24-1.25.31-1.42.04-.11.42-.59.52-.53.13.18-.11.34-.08.46s.32.12.31.35c-.78.09-.96.94-.78,1.59l.26-.2c.32.24-.28.37-.49.69-.26.39-.09.92-.47,1.28l.1.39.1-.28.32.03-.19,1.05c.37-.08.29-.52.49-.75.1-.13.44-.13.45-.32,0-.03-.47.01-.19-.35.13-.16.35.06.21-.4.16-.16.48-.14.67-.31.06-.06.44-1.17.7-1.01.4.24-.33.52-.29.7.38-.06.63-.17.85-.49l.12.21.44-.63.07.43c-.93.65-2.29.93-2.6,2.23l.81-.33.93-.98c.2.41-.49.59-.49.84s.43.69.19,1.11c.37-.06.13-.59.27-.91.05-.1.38-.51.48-.36-.29.32-.13.58-.09.96l.57-.16v-.62s.37.39.37.39l.32-.35-.2-.3c.3-.48.88-.2,1.07-.32.31-.2.36-1.46.83-1.29-.37.39-.27,1.29-.77,1.51-.21.09-.45-.02-.66.11-.16.09-.39.66-.46.86.2-.17.59.03.69,0,.05-.02.83-.41.96-.48.08-.04,0-.23.09-.27.38-.21.75.01.8-.6.38.45-.42.53-.28.95l.46-.36.17.18c.12-.16.31-.53.48-.61.23-.12.87.09.74-.37-.1-.37-.43-.15-.46-.48.45-.16,1-.13,1.18-.65l-.98.47.51-.39-.65-.6.27-1.15c-.2-.07-.81.51-.8.67,0,.12.55.39.36.82-.32.03-.07-.73-.51-.47.31.71-.37.88-.95,1.02-.18-.35-.02-.4.26-.58l.3.17.43-.87-.85.49c-.22-.17.4-1.06.36-1.34-.16-.06-.87.45-1.1.07.75,0,.79-.57,1.12-.88.2-.19.88-.13-.07-.42l-.1.28c-.22-.59.25-1.02.77-1.22l-.39-.26c0,.57-.59.4-.47.75l-.31-.41-.71.33.33.28c-.26.04-.38.32-.57.41-.62.29-1.36-.1-1.35.89,0,.17.27.6.07.72l-.55-.02.21-.56-.26-.05c.12-.27.64-1.5.39-1.67-.08.08-.41.13-.43.16-.06.08-.69,1.73-.72,1.87-.03.18,0,.24.1.38l-.92.27c-.2-.35.21-.21.27-.4.05-.18-.12-.34-.13-.43,0-.06.26-.96.27-1.06.02-.16-.11-.35-.07-.43.02-.05.23-.05.29-.12.1-.12-.08-.59.44-.73.55.59-.15.43-.16.73,0,.19.12.29.29.35l.34-.97.71.2.33.37c.03-.24.07-.31.33-.35-.04-.31-.33-.28-.56-.21l.13-.41c-.22.09-.26.08-.29-.16l.28-.33-.6.48.34.34-.55-.15c.09-.6.54-.57.26-1.26l-.35.1v-.62c.28-.45.01.46.3.16.2-.2-.05-.5-.02-.74l.24.18.22-.31.12.21c.36-.42.06-.67-.13-1.08-.21.63-.52.73-.97,1.15-.32-.2,0-.37.01-.42ZM50.2,13.98c-.31-.05-1.91,1.38-1.54,1.56l.31-.2.18.19c-.03-.33.18-.94.51-1.02l.13.22.41-.74ZM14.99,24.64l-.69.2.1.35c-.65-.12-.31.79-.98.91l.23.8,1.34-2.25ZM51.36,14.16l-.55.2,1.39.53c-.01-.57-.58-.36-.72-.45-.08-.05-.07-.26-.12-.28ZM53.95,13.64c-.32.02-.22.36-.34.52-.05.06-.56.19-.5.41.11.42.87-.31.96-.33.2-.06.45.12.57.02l.16-.3c-.29-.2-.58-.1-.85.06l.02-.38ZM55.44,13.21l-.34.53.26.05-.19.17.19.26-.33.16c.34,0,.25.2.26.48.48-.22.98-.11,1.48-.05-.02-.55-.63-.1-.82-.7l.26-.38-.62.43-.15-.95ZM57.82,12.93c-.11-.07-.27-.05-.4-.06l-.28.48.04.27.32.23c.33-.25.2-.45.03-.75.31.07.39.49.82.26-.02-.18-.21-.06-.35-.16-.09-.06-.12-.22-.18-.27ZM19.21,25.03c-.28.05-.42.37-.69.43-.19.05-.45-.12-.56-.02-.22.18-.91,1.63-.58,1.85.64-.69.99.02,1.37-1.12.08-.25.02-.57.08-.71.07-.18.41-.17.38-.44ZM59.45,14.16c-.58-.09-.43.25-.49.27-.07.03-.7-.05-.61.23.01.03.5.36.6.38-.29-.51.44-.4.49-.89ZM78.7,8.81c-.15-.05-.21-.35-.47-.2-.14.26,1.24.72,1.44.7l-.56-.46c-.13-.06-.29,0-.41-.04ZM77.7,9.77c-.34.03-.19.18-.13.41l-.38-.02.79,1.01c.37-.25-.12-.47-.21-.76-.07-.21,0-.44-.07-.65ZM40.44,20.65l-2.27,2.27c-.23-.42-.55.12-.7.15-.09.02-.33-.1-.63-.03-.22.05-.79.21-.8.49l1.09-.14.26.5.65-.31v.38c.23-.51.48-.36.76-.48.08-.03.42-.94.51-1.08.39-.6.97-.99,1.12-1.75ZM18,27.74s.31-.8-.05-.36c-.13.25-.35,1.25-.15,1.41l.7-.58c-.11-.2-.21-.59-.51-.47ZM38.73,21.63c-.26-.61-.65-.06-.71.33-.48-.55-.71.03-1.12.25-.46.24-.97.39-1.41.67.21.17.37-.16.43.19.39-.74,1.35-.12,1.68-.86l.29.16c.21-.33.42-.67.85-.74ZM58.94,15.43c-.27,0-.24.31-.38.42-.37.3-1.48.66-1.89,1.18l-.4.78c.2-.04.86-.42.94-.54.01-.02-.19-.21-.02-.35.25-.21.29.61.77.52.04-.68.61-.31.76-.37.04-.02.53-.58.59-.63.28-.21.71-.23.96-.66-.27-.73-.77.61-.96.53l.15-.79c-.42.06-.04.97-.69.63l.32-.22-.16-.51ZM15.72,28.9l.14-.79c-.22.52-.73.39-.99.55-.2.12-.23.47-.4.64-.38.37-1.73,1.12-1.94,1.45-.12.2-.05.46-.12.56-.22.32-1.17.74-.66,1.47-1.16.33-1.29,2.07-1.67,3.08-.19.5-.42.99-.69,1.45-.18-.03-.07-.29-.03-.4.38-1.26,1.03-2.49,1.37-3.77-.42-.05-.59.37-.83.61-.11.11-.35.13-.4.21-.03.05-.03.95-.06.99-.07.13-.27.17-.31.25-.44.83-1.07,1.96-1.38,2.74-.04.1-.07.15-.19.16l.24.18c.14-.28.85-1.53.99-.66-.78-.27-1.09,1.99-.88,2.12l.9-1.19.41-.93c.28.43-.4.84-.19,1.3l-.38-.02.34.52c.08,0-.03-.2.12-.32.26-.22.81-.51,1-.66.04-.03.42-.87.55-.99l.12.21.23-.07.1-.52-.47.08.05-.31c.44.02.58-.4.33-.74l-.13.41c-.13.04-.07-.42-.26-.05s-.24.79-.46,1.19c-.09.17-.32.44-.45.62-.07.1-.13.37-.31.22.52-.82.74-1.88,1.2-2.71.2-.36.43-.59.38.02h.25c.18-.43.22-.98.41-1.37.18-.36,1-1.55,1.27-1.9.99-1.31,2.31-2.39,3.35-3.65l-.55.03ZM81.24,9.65c-.19-.05-.57.05-.37.32.49-.06.64.56,1.2.28.07-.1-.77-.59-.82-.6ZM61.9,15.32c-.4.04-.16.87-.33,1.07-.02.02-.23,0-.34.05-1.47.83-.55,2.05.03.31l.25.42.06-.27c.93.03.38-.5.32-.87-.03-.2.17-.48.02-.71ZM70.03,14.31c.04-.16-.19-1.09-.53-1.07.04.3.15.7.13.99-.02.25-.27.38-.16.64.09-.13.54-.49.56-.56ZM59.36,16.94c-.18-.03-.27.15-.27.3l.59.33c-.32.19-.18-.17-.46-.12-.13.02-.34.08-.45.14s.1.35-.24.31l-.12-.21c-.07.27-.55.25-.38.61l.43-.25-.05.26.55-.03c-.02-.5.64-.02,1.06-.44l-.28-.54.24.18c.11-.43.52-.29.47-.75-.54.1-.31.51-.92.38-.11-.02-.15-.17-.16-.17ZM64.33,15.99c-.2-.12-1.24,1.44-1.34,1.62-.07.14-.16.22-.07.4l.46-.13-.21-.31.47-.02.08-.63c.58.02-.03.72-.01.81.07.35.51-.28.55-.34.27-.49.17-.66-.21-1.06h.38s-.1-.33-.1-.33ZM36.47,25.79l.49.04c.22-.44.53-.65.17-1.11l-.1.52-.35-.14c-.26.16-.32.68-.46.81-.12.12-.53.07-.59.54-.05.44.9-.5.82-.66ZM50.98,21.35s.92.02.48-.65c.08.37-1.61.99-1.05,1.3.35.19.54-.61.58-.64ZM35.17,25.65l-1.1,1.06.02.37c.47-.61,1.08-.55,1.08-1.43ZM15.01,31.59c-.69.1-1,.4-1.41.91-1.12,1.37-1.23,2.74-2.15,4.12-.09.14-.21.18-.1.38l.38-.22c.39.53.26-.08.46-.32.31-.36,1.11-.38,1.04-1.11l-.73.71-.12-.21,1.86-2.16c-.02-.19-.45-.08-.51-.03-.25.18-.29,1.06-.78,1.15-.13-.06.94-2.06,1.04-2.27l1.02-.93ZM60.74,18.98c-.12-.03-.53-.69-.47.22l.11.16.93-.03-.13-.46c-.14.02-.3.13-.44.1ZM53.52,21.59c-.32-.89-.65-.27-.97-.15-.45.17-.75-.12-.88.62.27.1.2-.27.54-.29.43-.03.18.4.52.3.28-.08.43-.47.79-.48ZM60.99,20.8c-.53.02-.51.32-.79.62l.22.41.02-.38.24.18c0-.33.14-.31.45-.38l-.31-.22.18-.24ZM62.05,21.87l-.92.7c.05.33.37.07.48.16l.22.32.24-.25c-.47-.18-.63-.5,0-.44v-.49ZM46.93,26.35c-.3-.21-.27.99-.31,1.08l.57-.16-.26-.92ZM36.27,31.17c-.58.12-.28.48-.36.71-.07.22-.74,1.17-.55,1.29.16-.25.7-.75.77-.97.08-.27-.08-.7.15-1.03ZM15.91,37.3c-.07-.03-1.1.88-1.14.94-.09.15.04.29.01.36-.01.03-.37.04-.55.42l-.02.13h.26s.05.66.05.66c-.44.25-.13-.46-.28-.54l-.76.59c-.35-.52-.77.29-.86.68-.05.24.18.5-.14.79.26.19.17.09.31-.02.32-.26.18-.92.74-1.08-.11.34.16.37.28.6.07.15-.1.47.3.54.78.13,1.72-1.34,1.43-1.87-.07-.13-.25-.21-.3-.34-.15-.36.17-.6.24-.79.14-.36.28-.71.44-1.06ZM10.42,40.25l-.53-.34c-.16.04.03.95-.22.73-.05-.04.02-.22-.16-.12l-.34.97.59-.54.18.2c-.11-.42.14-.69.49-.89ZM33.73,33.15c-.47.17-.46.68-.86,1.02-.22.18-.77.39-1.05.53l.49.2.31-.43c.3.92-.92.51-1.15.76-.32.35.11.81.15,1.07.04.19-.16.38-.05.59.46-.35.5-1.53,1.09-1.56l.19.2.3-.46.17.14c-.1-.56.41-.75.14-1.22l.26.05v-.87ZM38.99,32l-.66.6-.1.62c.25-.38,1-.66.77-1.21ZM11.52,41.05c-.21-.13-1.05,1.25-.85,1.36.06-.28,1.24-1.13.85-1.36ZM29.95,35.98c-.33.04-.19.11-.18.33,0,.29.18.83.03,1.09-.11.18-.38.21-.52.39-.15.19-.06.5-.15.64-.1.15-.55.32-.51.68.8-.18.6-.61.82-1.15l.98-.36c-.04-.21-.22.06-.32-.21-.18-.47.03-.93-.14-1.39ZM6.79,49.62c.06-.09.09-.24.22-.31l.16.33c.48-.45-.23-.49-.38-.88.56.09.26-.14.48-.46.29-.42.49-.15.34-1.02l-.39.11c.03.27-.26.47-.28.15,0-.17.43-.94.5-1.27.22-.99-.02-2.05.49-3.01l-.52-.28c.04.56-.43.8-.59,1.08-.03.06.04.2,0,.28-.26.59-.33,1.09-.45,1.74l.26.04-.36.28c.03.32.26,1,.22,1.28-.05.44-.66,1.62-.47,1.96l.44.24c-.07.42-.26.84-.37,1.25-.12.46.42.14.53-.1.14-.29-.11-.86-.07-1.19.02-.23.2-.18.23-.21l.18,1.07.13-.41.29.16-.06-.66-.21.12-.33-.28ZM42.82,32.76l-.63.32.18.68c.21-.3.6-.58.46-1ZM13.69,41.67c-.36-.07-.96-.08-1.22.23-.13.16-.12.39-.25.54-.6.68-.87.66-1.24,1.62-.13.35-.09.15-.26.44-.04.06-.23.89-.17.92.78-.1.75-.86,1.17-1.33l-.02-.31-.27-.04.06-.31c.24-.13.6-.15.79-.36.2-.23-.12-.31.55-.85.03-.02-.01-.19.03-.21.44-.2.43.36.67.18.09-.07.27-.45.16-.54ZM5.2,44.12c-.3-.2-.24.78-.26.85-.05.17-.6.98-.42,1.09.21.13.22-.33.33-.44.07-.06.53-.33.57-.32l-.16.73.35-.05.13-1.33-.31.02-.04.51-.28-.12.09-.95ZM40.29,35.03c.2-.27.44-.51.32-.89l-.85.93.48.17c.1.01,0-.14.04-.21ZM30.85,38.4c.05-.06.04-.2.09-.27.07-.08,1.02-.84.69-1.03l-.7.82-.18-.2-1.12,1.07.37.03.17.31c.13-.34.47-.5.68-.74ZM13.5,42.71c-.45-.38-.77.31-1.11.45.53.26.15.95.32,1.45l.38.09.05.17c0,.11-.35.09-.15.35.14.09.83-.22.9-.33.15-.24-.38-.58.16-.72.06.04.19,1.4-.08,1.4l.05.22c.26-.13.37.24.57.27.67.12.69-.3.9-.76-.49,0-.21-.73-.48-1.2-.09-.16-1.13-.36-.89-.95-.4,1.08-.35-.14-1.01-.08v-.24s.39-.12.39-.12ZM27.22,39.87c.42.22,1.18-1.23.7-1.44l-.7,1.44ZM36.89,36.34c-.71.07-.92.9-1.47.92.2.31-.32.79-.22.99.26.51.63-.66.67-.7.16-.15.33-.04.42-.07.03-.01.04-.36.34-.32l-.03-.11c-.37.13-.16-.03-.21-.31l.24.18.27-.57ZM25.15,40.47l-1.29,1.12c.56.34.11.34-.03.75.55-.09.6-.84.81-1.19.13-.22.52-.34.51-.68ZM38.66,37.32c-.23-.1-.99,1.12-.59,1.41l-.41.11c.08.42.06.66-.13,1.04l.47-.02.54-1.2-.25-.04v-.43c.42.06.33-.3.61-.44l-.38-.02.13-.41ZM10.76,48.06c.09-.17.04-.39.13-.56.14-.26,1.05-.82.47-1.18-.35.32-.46.42-.49.88l-.18-.2-.28.52.3.16-.15.35-.24-.18-.76,1.03.65-.03c.21-.25.4-.52.55-.8ZM13.02,48.82c.29-.3.54-.62.68-1.02.04-.13.29-1.13-.08-1.01-.58.63-.83,1.16-.59,2.03ZM14.43,48.54c-.42.02-.86-.25-.98.34l.17.27.1-.28c.16.42.6-.05.71-.33ZM4.28,52.42c-.1-.03-.04-.25-.21-.15.18.47-.27.96-.3,1.33-.02.26.1.43.11.62,0,.11-.38.57.03.95.22-.02,0-.22.06-.35.11-.28.44-.54.3-.99.3-.05.06.6.47.36-.22-.46.13-.98.02-1.43-.13-.51-.28-.27-.49-.34ZM10.67,82.27c-.65-.9-1.12-1.77-1.76-2.68-.08-.11-.26-.42-.42-.38-.05.52.54.87.66,1.13.07.15,0,.36.14.62s1.21,1.67,1.42,1.82c.12.09.16.12.31.04.06-.44-.33-.53-.36-.56ZM8.56,81.53c-.11-.1.07-.56-.38-.61.03.69.87,1.07.72,1.84.23.22.36-.41.31-.56-.02-.06-.16-.11-.21-.21-.32-.63-.2-.25-.43-.46ZM12.88,80.71c-.19,0-.41.01-.28.24.42.28.61,1.09,1.09,1.17.16.03.44-.08.47-.06.1.05.02.52.25.42.12-.84-1.12-1.09-1.53-1.77ZM10.54,84.59c-.22-.55-.57-1.13-.88-1.63-.07-.11-.13-.34-.29-.26-.12.62.21.81.46,1.35l.71.55ZM12.96,83.36c-.13-.04-.37-.38-.59-.41,0,.63.9.81,1.25,1.06.16.12.15.42.34.35.3-1.51-.41-.79-.99-.99ZM13.57,85.04c-.65-.48-1.05-1.31-1.77-1.68.14.4,1.64,2.06,1.9,2.06.11,0,.4-.08.24-.26-.08-.09-.28-.06-.36-.12ZM33.4,78.47l.64-.35-.17-.37-1.41.95c.19-.07.61-.08.75-.15s-.09-.29.12-.29l.07.21ZM28.61,82.6c0,.07-.1.24-.05.26l.54-.28.18.2-.03-.37c.57-.18.87-.71,1.47-.67-.02.22-.45.3-.65.44-.07.05-.02.24-.1.26-.34.11-.66,0-.6.67.28-.09.36-.35.68-.45.2-.07.93-.27,1.13-.31.62-.13,1.59.15,1.89-.62-.75.36-1.31-.34-1.89.1l-.28-.35c-.29-.06-.56.19-.85.13-.23-.05-.29-.3.03-.32l-.24-.18c-.19.3-.35.45-.09.77-.48.1-.84.51-1.16.71,0-.07-.05-.15-.07-.23l-.42.25-.08-.47-.94,1.26c.5-.24,1.04-.51,1.51-.81ZM13.39,89.73l-.84-1.71-1.76-1.27c.31.84.83,1.52,1.38,2.21.22-.03.03-.27-.04-.37-.21-.34-.67-.67-.68-1.04l.6.48,1.33,1.69ZM16.71,88.63s.04-.23-.06-.33c-.4-.39-1-.69-1.36-1.05-.14-.14-.2-.56-.5-.66-.21.25-.07.28.03.48.21.42.66,1.1.91,1.49.43.66.75.31,1.4.34,0-.32-.35-.2-.42-.27ZM33.84,81.34l-.65.31c.14.83.83.4,1.23-.05l-.47.06-.1-.33ZM36.29,86.36c-.12-.08-1.25,1.24-.96,1.4.16-.32.68-.33.56-.65l.22-.07.12.21.06-.89ZM37.27,87.19c-.02-.22-.36-.58-.57-.46l-.35.62.15.18c-.35.1-.67.54-.6.92.32-.04.2-.35.38-.61.05-.07.45-.45.49-.47.07-.02,1.41.12,1.47.16.03.02-.05.55.39.5l-.39-.87c-.44.2-.43-.25-.78-.4l-.19.43ZM43.45,84.91l-.43.25c.7.56,0,.93.46,1.61.29-.05.18-.05.19-.23.02-.38-.13-.72.18-1.06l-.36.04-.05-.6ZM31.74,88.99c-.07-.03-.04-.24-.2-.14l.04.37c-.3.08-.62.16-.92.26-.14.05-.45.04-.37.23.82-.29,1.75.03,2.48-.37l.25-.91c-.19.19-.6.16-.73.22-.07.03-.02.57-.56.36ZM26.21,96.22c-.15-.2-1.45-.85-1.56-.67.35.45,1,.7,1.56.67Z"/><path class="cls-2" d="M15.81,48.14c.03.27-.05.55.12.84-.44.21-.35-.02-.56-.28-.41-.52-.17.6-.46.83-.41.32-.11-.88-.09-.97.38-.33.54-.39,1-.41Z"/><path class="cls-2" d="M34.39,89.26c-.06.28.19.68-.5.66v.22s-.39-.51-.39-.51c.37-.04.59-.2.88-.38Z"/><path class="cls-2" d="M65.82,21.15c.07-.03.16-.03.23-.07v-.93s-.72.14-.72.14c.17-.74.31-.41.57-.45.36-.06.25-.35.72.2-.48,0-.65.9-.18.53s.27-.64.45-1.1l.17.18,1.12-.68-.28.33c.03.56.7-.45.87-.63.14-.15.36-.18.45-.28.19-.22-.03-.82.23-1.03l.03.54c.44,0,.16.56.66.56l-.17.49-.53-.34.12.21c-.4-.03-.33.29-.42.36-.23.18-.7.02-.47.64l-.35-.15-.3.71-.18-.2c-.25.33-.66.3-.85.4s-.29.3-.47.42c-.19.13-.46.05-.55.47-.11.01-.14-.24-.16-.33-.29.1-.44,0-.45.38l-.17.04c-.3-.58-.5.14-.54.16-.33.19-.92.21-1.3.38l.25.06.03.48c.14-.13.6-.31.72-.08-.61,0-.33.51-.78.74.38.37-.21.4.01.9l.77.11-.02-.49.56,1.08-.56-.08-.29.57-.45-.49-.33.78.39-.17.12.21-.55.18-.06.5c-.09.01-.78-.09-.65-.31l.61-.05c-.2-.53.12-.89-.02-1.36-.7.72-1.05-.26-1.66-.58-.27-.14-.53-.06-.69-.23.75-.48,1.66.83,2.15.75.82-.14-.17-.7-.36-1.02.18-.03.31-.2.38-.22.05-.01.22.53.57-.36l-.44.19.14-1.27c.41.1.67-.16,1.02-.3l-.2-.24.19-.21c-.02-.09-.04-.18-.08-.27.22-.1.48-.37.55-.38.4-.06.56.59,1.09.04.03.2.01.4.05.61Z"/><path class="cls-2" d="M22.03,61.84c.33.1.61-.06.92,0,.22.04,1.97.5,2.05.57.17.16,0,.48-.11.64,0-.4-.89-.82-.67-.36.03.05.59.59.73.75.53.57,1.57,1.63,1.9,2.35.21.44.49,1.54.57,2.04.02.14.04.67-.13.75-.11-.52.04-.97-.2-1.47-.12-.24-.63-.57-.79-.23l-.19-.44c.03.53-.21.02-.39.16l-.37.67-.17-.19c-.41.27-.81.49-.64,1.05l-.28-.2c.29-.68-.17-.59-.6-.74-.11-.04-.18-.2-.21-.21-.03,0-.58.16-.61.17-.12.07-.07.27-.13.35-.2.26-.7.2-.99.32l1.05,1.06-.88-.49c.38.46.4.9.11,1.46l-.17-1.07-.58-.02-.03.32c.5-.31.52.37.13.46,0-.12-.44-.66-.6-.57-.23.12-.1.59.2.5l-.39.37.34.33-.95.15c-.02.4.63,1.13.94.71.05-.07-.26-.4.14-.4.32.57-.16.49-.35.92l.73.83c-.38.17-.55-.45-.83-.5-.49-.09.51.84.61.9.46.31,1.22.43,1.75.59l-.29.27.69-.2-.25.55c-.29-.22-.55.04-.71.03-.34-.01-2.19-.64-2.51-.83-1.76-1.03-2.39-4.36-2.14-6.27.12-.92.71-1.95,1.31-2.65.35-.41,1.39-1.04,1.09-1.51-.11-.17-.39,0-.42-.2.4-.09.65-.67.96-.78.26-.09.45.06.66.04.19-.01.32-.17.42-.19.13-.02.2.19.27.22ZM25.87,65.36l-.19-.25-.36.04c.22.42-.13.75-.16,1.16l.71-.96Z"/><path class="cls-2" d="M72.03,48.69c-.03.15-.32.5-.14.79.61-.35,1.07-.77,1.25-1.48l.13.2c.25.1.49-1.21.73-1.32l.13.22.87-.63-.1.52c.18-.11.45.06.57.03.16-.04.42-.09.58-.13.19-.05,1.11-.4,1.21-.48.39-.27.12-1.58.59-1.89.16.29.19,1.02.17,1.35s-.27.58-.2.9l.32-.46.45.11.04-.51c.5.28.4.95.28,1.41-.05.17.11.28-.22.31l.05-1.13c-.62.26-.39.96-.68,1.5l.41-.3-.43.87-.16-.57-.47,1.38c-.14-.21-.44-.25-.67-.16-.05.02-.77.7-.8.75-.08.14-.03.71-.09.95-.03.12-.35.81-.48.61-.17-.45.04-.86,0-1.25-.09-.84-.68.43-.73.47-.14.11-.36.01-.46.12-.07.07-.41.86-.61,1.12-.11.14-.36,0-.22.3l-.34-.14c-.19.31-.37.39-.65.56,0-.38.29-.39.15-.79l.18.2c.09.04.41-.56.04-.51-.25.04-1.03.98-.67,1.31.1-.08.2-.15.31-.21,0,.17-.12.23.16.33v-.24c.04.11.73-.37.5.04-.31.55-.64.36-1.17.27l.28.54c-.33-.13-.24.22-.42.44s-.6.34-.5.69h-.24s-.18-.62-.18-.62l-.19.43-.21-.31-.1.52-.21-.31-.19.43.41.13-1.07,1-.28-.05-.07-.29-.51.39.18-.67-.69.2.31-.21c-.14-.25-.4-.77-.39-1.05.02-.33.59-.79.58-1.21-.01-.29-.38-.66-.05-1.14-.53.36-.37-.41-.26-.52.03-.03.22.04.34-.05s.11-.31.15-.36c-.72-.1-.52.65-.98.9-.14-.41.52-.71.19-1.05.19-.08.45-.08.62-.18.13-.07-.08-.28.12-.29l.15.33-.1.27c.43-.48.65-.63.79-1.35l.16.33c1.23-.38,2.12-.83,2.56-2.11.12.11.05.59.03.74,0-.03.26-.33.32-.55.05-.17.17-1.31.43-1.16-.22.31.04.53.02.73-.05.45-.29.99-.61,1.3-.1.03-.16-.3-.16-.33Z"/><path class="cls-2" d="M66.82,28.07c-.42.03-.48.66-.65.9-.37.52-1.05.96-1.1,1.66.3.14.21-.29.35-.41.11-.09.34-.15.49-.2l.7.35c-.74.07-.91.47-1.28.99l-.46-.11c.09.42-.64.51-.7,1.01l.43.19c-.89.22-1.31.77-1.13,1.69.12.09.76-1.54,1.16-.71l.11-.03c-.32-.61.66-.39.34-.97.17-.1.11.18.25.18.35-.02.69-.35,1.07-.31-.06.34-.45.42-.68.64-.07.07-.05.26-.12.34-.16.18-.87.13-.95.7l.74-.03c.21.39-.58.69-.64.81-.15.3.42.12.33.28-.25.4-.72.33-.75.36-.05.05.04.42-.2.42l-.45-.24-.16.29-.38-.26c.06.46-.84.75-1.18,1.09.42.3.69-.05.88-.38l-.06.64c.27-.12.37-.1.51.17-.13.8-.62.3-.82.47-.26.23-.64.84-.41,1.18-.17.08-.17-.13-.2-.26-.16-.6.02-.82.23-1.37-.63,0-.56,1.27-.68,1.31-.4.14-.16-1-.24-1.05-.47.55-.93-.45-1.29.25l-.38-.89-.33.16c.32-.58-.05-1.01-.09-1.42-.14-1.29.02-2.49.47-3.68.05-.13,0-.34.04-.4.01-.02.26-.03.43-.19s.16-.33.22-.39c.34-.32,1.23-.83,1.68-.98.86-.3,1.78.28,2.64-.14l-.08.39.36.15c-.14-.72.45-1.5,1.18-1.52l.44-.81.35.15ZM64.18,34.43c-.47.26-.85.03-1.21.53.5.28,1.1.02,1.21-.53Z"/><path class="cls-2" d="M47.91,58.14l-.33.17.17.62-.29.17c0,.51.5.72.21,1.28-.25.4-.75.91-.97,1.29-.1.17-.17.73-.29.84-.05.04-.23-.02-.32.07-.36.37-1.24,1.52-1.58,1.74-.46.29-1.15.27-1.67.38.1-.48.76-.14,1.09-.39.23-.18.06-.45.15-.56.03-.04.77-.53.82-.51l-.04.51c.18-.55.39-1.06.75-1.52l-.17-.26-.29-.04c.27-.03.46-.83.51-.87.02-.02.41.01.63-.08.11-.05.78-.43.79-.54l-.41-.13.34-1.4-.92.26c-.17-.39.41-.41.41-.74l-.69.26c-.83-.23-.27-.45-.21-.62.04-.13-.13-.24-.12-.31,0-.03.17-.07.16-.16-.03-.6-.35-1.36-.91-1.65-.13-.07-.26.08-.27.07-.45-.32.18-1.63.67-1.83-.21-.6.44-.05.33-.68l.27.11-.54,1.5c.43.48.65,1.05,1.08,1.54.22.26.7.53.9.79.07.09.05.34.21.52.19.22.38-.09.53.17Z"/><path class="cls-2" d="M54.2,63.16c-.42,0,.06.71-.2.8-.28.1-.08-.64-.42-.81-.18-.09-.51.25-.5.45l.41.13-.69.2.31.22c-.27.34-.93,1.45-1.28.93-.26.38-.76.86-.66,1.38.06.3.36.28.41.56l-.51-.47-.28.33c-.05-.34-.46-.8-.53-1.02-.21-.66.14-2.34.68-2.8.93-.78,2.36-.66,3.25.1Z"/><path class="cls-2" d="M82.42,12.39c.37.34-.24.7-.14.77l.35.13.26-.18c.28.3.05.5.12.84l.42-.25.05.55h.22c-.04.49.15.27.25.39.26.31.24.57.28.94l.29-.44c.3.03.69.25.75.57.02.1-.23.19-.29.33-.16.39-.17,1.38-.76,1.22l-.25-.86-.51.39-.37-1.26-.62.43c-.04-.39-.43-.35-.56-.47-.18-.16-1.06-1.06-1.17-1.21-.04-.05-.09-.18,0-.19.14.06.65.45.76.28.16-.25-.31-.19-.31-.22l.22-.75.96.34c.23-.54-.07-.48-.46-.55-.02-.12.44-.22.21-.56-.15-.23-.41.24-.43-.19l.71-.07ZM82.83,13.76c-.58.02-.15.62-.62.81l.2.3-.35.1.43.62.14-.33-.3-.24h.38c-.41-.5.23-.71.13-1.26Z"/><path class="cls-2" d="M39.5,41.05l.34-.09c.23.29-.3.25-.11.47.02.03.61.16.61.03l.21.23-.33.16c.32.29.05.44-.03.75.53-.1.24-.59.84-.75.49-.13.46.3.88.25-.08.3-.56.01-.75.4s.2,1.38-.96,1.21l-.2-1.3c-.23.15-.4-.11-.45-.11-.2,0-.55.49-.75.63s-1.13.54-1.16.66c-.06.2.32.55-.19.91-.46-.45-.6-.34-.96.15l-.29-.16c-.02.84-1.08.13-1.02.99.02.3.45.24.56.7.09.36-.15,1.06-.04,1.51-.18,0-.55.2-.63.21-.08,0-.09-.16-.16-.16-.17,0-.71.51-.8.46v-.43s-.25,0-.25,0l-.05-.17.18-.24-.29.08-.27,1.01c.18.07.34-.27.51.04-.4.53-1.33,1.16-.93.02l.27.29-.13-.94.43-.15c-.13-.34.09-.42.26-.68l.12.21.66-.31.05.61.73-.46-.51-.04.31-.65-.68.44-.12-.21c.38-.06.38-.34.5-.64l.47.11-.28-.54-.39.36.02-.38-.8.23.29.16-.3.46-.27-.29c.09.79-1.08,1.27-1.49,1.92l-.24-.18.21-.12-.31-.22c.32-.22.76-.55.93-.9.14-.29-.2-.55.41-.49l-.37-.64-.45.38c.16-.19.14-.72.22-.82.3-.4,1.15-.83,1.62-1.01l-.11-.78c.51-.14,1.05.1,1.46-.3l.19.2c.09-.01.01-.24.09-.34.36-.44.23.22.68.18l-.6.49.39.07-.19.14.03.59.61-.05c-.36-.4.05-.41.15-.79l-.36.04c.08-.64.59-1.24,1.18-1.52l-.04.31.24.02.06.34c.17-.5.87-.54,1.3-.87.03-.04-.52-.27-.19-.44.03-.02.21.29.58.08-.01-.25-.26-.28-.44-.25.04-.22.29-.19.1-.52l.26.42ZM35.42,43.73l-.98.03.29.16c-.51,0-.38.35-.63.56s-.78.26-.63.67c.22-.31.25.06.33.04l.36-.23.04.37.73.15c-.09-.27-.23-.51-.52-.53.26-.43.04-.96.7-1.01l.16.32.15-.54Z"/><path class="cls-2" d="M20.52,58.47l.25.42c-.52.14-.69.27-.64.81l.44-.37c.31.08.41.2.35.51.38-.04.43-.25.33-.59.34-.26,1.63.52,1.72.5.17-.03.36-.23.48-.21.21.03.28.32.4.41.18.12.58.09.78.25l-.44.19.39.51c-.46.28-.64-.52-1.09-.55l-.05.26-.6-.57c-.33-.06-.17.42-.3.46-.02,0-.19-.14-.32-.13-.51.04-.62.07-1.19.06-1.31-.01-1.83.45-2.83,1.19.38-.95,1.52-1.23,1.83-2.27-.26.18-.72.4-.94.59-.24.21-.87.75-1.07.95-.29.29-.64,1.11-.99,1.44-.09-.18,0-.34.05-.5.09-.27.51-1.03.68-1.2.27-.26.63-.13.85-.27s.57-1.11.8-1.32c.31-.29.74-.38,1.1-.57Z"/><path class="cls-2" d="M12.09,61.18s.08.19.15.18l.41-.25.12.21c-.28.27-.17.33-.65.31.1.54-.05.97.4,1.38l-.49.41c.45.92.56,1.65-.26,2.41l-.46-.11.06.23-.52-.1c.08.23.2.44.28.67.12.35-.41.07-.29-.29l-.28.33-.17-.57.24.18.18-.86c-.33-.26-.25.07-.38.17-.5.39.3-1.1.29-1.19-.01-.14-.22-.18-.26-.34-.12-.43-.08-.9-.42-1.34l.52.47.67-.25.08-.58.41.13.25-.44c-.31-.36-.6-.06-.8.23l-.28-.54.35-.1.12.21c.11-.21.5-.62.75-.55Z"/><path class="cls-2" d="M50.66,34.1c.27-.12.65-.08.84-.36.14-.4-1.05-1.12.15-.97.27-.39.27-.88.44-1.3.05-.13.25-.25.27-.33.03-.14-.21-.29-.18-.43.01-.05.32-.19.36-.53s-.12-.67-.07-1l-.38-.02c.24-.26.16-.62.29-.9.19-.42.67-.51.93-.88l-.29-.16c.41-.05.3-.13.3-.46l.32.03c-.08.24-.12.79-.32.95s-.62.22-.64.44l.57-.16v.43s.24,0,.24,0c-.04-.45.21-.69.62-.82l.15-.39.19.44c-.07.27-.41.08-.57.15-.12.06,0,.24,0,.26l.56-.04.03.36.22-.31.14.27c-.14.4-.3.18-.59.11l-.09.77c-.52-.25.22-.76-.27-1.16-.01.02-.14.02-.18.09-.2.36-.09.61-.72.67-.09-.05.01-.62-.36-.39l.54,1.01-.8,1.55.4-.11c-.05-.2.51-1.7.7-1.26.16.32,0,.61-.19.87-.32.47-.37.63-.65,1.18-.11.21-.88,1.19-.68,1.31.23-.23.37-.67.63-.86.13-.09.33-.03.34-.05.02-.03.01-.43.13-.66.16-.32.58-.21.27-.56.29-.13.53.17.81.1.26-.06.95-.46.85-.83l.31.26-1.11,1.27.85-.5-.87,1.31c.48-.35,1.09-.69,1.32-1.25.3.82-1.26,1.34-1.76,1.68-.18.12-.16.42-.43.44l.7-1.44-.36-.15c-.21.37-.58.34-.82.49-.07.04-.95,1.18-1,1.28-.11.23-.03.59-.28.84-.15.15-.33.06-.38.11-.07.07-.07.65-.23.8-.16-.37-.12-.77-.27-1.16-.59.26-.77.53-1.05,1.11l.47-.08-.11.9-.6-.57-.79.92.3.16c-.5.35-.03.7,0,.98.03.25-.74,1.05-.26,1.58.06.35-1-.35-.51-.91-.22.08-.26.08-.29-.16,1.01-.43.32-1.19.58-1.85.21-.53.81-.83,1.08-1.24.21-.33.68-2.09,1.18-.84Z"/><path class="cls-2" d="M82.78,39.87l.23-.06.13-.41.43,1.05.21-.12c.11.41-.4.3-.46.84-.01.11.12.35.1.51l.22-.31c.26.12-.09.41-.14.6-.19.7-.27,1.89-.47,2.44-.18.49-.81,1.2-.99,1.77-.27.14-.17-.12-.12-.24.09-.22.2-.52.28-.71.12-.26.52-.47.39-.83l-1.09,1.81c-.03-.61.8-1.29.45-1.87l.47-.02c.28-.64.01-1.18.04-1.77.02-.62.19-1.41.23-2,.02-.29-.06-.59-.04-.89.26-.43.1.2.12.21Z"/><path class="cls-2" d="M54.25,49.1c-.06.21-.47.53-.65.65-.49.33-.98.45-1.38.93l.12.21c.57-.13.42-.35.76-.59.03.4.4-.09.56.21-.5.2-.89.59-1.37.84-.15.08-.41.02-.46.08-.04.04-.08.57-.3.75-.42.34-1.12.36-1.26,1.14-.07.42.23.87-.06,1.17-.17-.5-.27-1.41.01-1.87.32-.51,1.63-.99,1.93-1.73-.34-.05-.56.4-.82.61-.16.13-.25.2-.43.34-.24.2-.55.3-.75.55l-.41,1.36c-.35-1.2.57-1.57,1.1-2.3.4-.54.32-1.45,1.35-1.02.13-.04-.1-.48.3-.7l.28.16.34-.34.04.36c.3-.32.61-.72,1.07-.8Z"/><path class="cls-2" d="M51.66,74.59l-.64-.06.28.54-.24-.03c.05.23.05.24-.19.27-.08-.05-.16-.83-.54-.59l.28.54-.59-.08-.5.59.52-.34.21.31c-.32.29-.79.64-1.26.5-.61-.18-.32-1.52.07-1.88.6-.56,2.22-.7,2.6.23Z"/><path class="cls-2" d="M49.28,50.41c-.06.04-.23.11-.25,0l-.42-1.09.5-.6-.17-.33,1.15-.33-.24.44c.41-.2.89-.04,1.28-.3.16-.1.25-.34.4-.46.55-.42,1.38-.83,1.8-1.33s.27-1.45.77-1.98c.12-.13.83-.74,1.02-.5-.44.36-1.04.81-1.08,1.44-.02.25.14.51.09.71-.15.6-1.69,1.94-2.24,2.14-.09.03-.78.18-1,.23-.67.17-1.65-.02-1.74.96-.03.3.13.71.13.99.56-.34,0-1.34.7-1.44.13.25-.18.42-.17.64,0,.35.42.42.06.89-.17-.28-.19-.08-.47-.12l.17.57.46-.13c-.94.56-1.36,1.55-1.76,2.5-.07-.13.1-.31-.06-.36-.06-.02-.18.14-.19-.07.41-.17.3-.72.51-1.02.07-.11.25-.09.36-.27.16-.25.4-.9.4-1.19Z"/><path class="cls-2" d="M85.44,17.33c-.02.07-.23.04-.18.14l.36-.04c-.04.28.01.57.06.85.02.13-.06.42.16.33-.07-.4,0-.81-.02-1.2,0-.16-.3-.38.01-.54l.1.34.54-.28c-.14.57.18,1.31.41,1.87l-.26-.05c.42.47-.05.83.02,1.36-.2.09-.17-.21-.17-.33,0-.7.36-1.02-.56-1.32-.03.53.44,1.27.12,1.7-.58-.49-.22-1.21-.66-1.83-.08-.11-.24-.01-.25-.02-.07-.06.24-.35.1-.52l-.36.48c-.19-.55.32-.92.38-1.48.13.06.22.43.19.54Z"/><path class="cls-2" d="M41.83,65.13c.2.87-1.06,1-.57,1.89l-.34-.34-.78.28-.29-.28-.23.06c.03.47-.32.12-.58.17-.05,0,.02.22-.06.27-.22.13-.52.07-.76.09l.8-.47.74-.22-.25-.42.69-.2.11.59c.39-.29-.17-.79-.07-.96.02-.04.23-.03.29-.12.02-.03.03-.54.16-.64l1.14.31Z"/><path class="cls-2" d="M84.9,22.23l-.1.52.22-.31.25.23c-.44.34-.15.6-.14,1.08.01.64-.2,1.41-.19,1.65,0,.2.18.41.12.63l-1.04.39-.53,1.05c-.5-.04.17-1.06-.08-1.34l.22.17c.42-.27,1.28-.46,1.11-1.12-.01-.05-.22.02-.26-.06-.12-.22-.08-1.83.47-1.81l-.32-.71.27-.39Z"/><path class="cls-2" d="M20,76.89c-.06.31.25.39-.08.57l.34.34-.38-.02c.02.38.69.13.43.5l-.26.07.25.42c-.35-.13-1.1.34-1.13-.05l-.11.03c.11.29.13.59-.15.79l.03-.75c-.2.16-.35.17-.41-.13l.38.02c-.05-.15-.06-.34-.18-.45-.16-.14-.51.18-.5-.22l1.23-.48-.28-.54.83-.11Z"/><path class="cls-2" d="M76.53,51.02l.37.37-.32.59.59-.54c.15.17-.17.48-.1.52.05.03.25-.17.26.05-.77-.02-.87,1-.29,1.14l-.52.58-.18-.2-.2.37h.24s.07.22.07.22l-.75.84c0-.71.54-1.15.34-1.84-.53.45-.61.93-.73,1.58-.56-1.21.62-1.61.85-2.62.05-.2-.08-1.12.37-1.07Z"/><path class="cls-2" d="M81.3,44.65c-.24.52-.85.85-.55,1.53l.47-.75c.28.42-.39.84-.54,1.15-.08.17-.86,3.21-.87,3.39-.02.31.33.52-.08.86-.32-1.12.44-2.26.48-3.35.02-.49-.3-1.21-.19-1.62.08-.29,1-.97,1.28-1.2Z"/><path class="cls-2" d="M58.41,41.56l.16.33.1-.28.1.34c-.59.03-.16.83-.6,1.17l-.4-.13-.65.56v.25s-.43-.25-.43-.25c-.32.33.11.54-.22.84s-.55.09-.91-.02c-.09.44-.08.64-.58.78l.6-1.17.45.06-.18.24.28-.08.02-.62.76-.35.12.21c.22-.42.78-.65.71-1.2l.27.29c.16-.06.12-1.2.4-.99Z"/><path class="cls-2" d="M40.08,45.06c.06.03.42.01.13.2-.08.05-.25.01-.38.08-.09.05-.14.18-.24.24-.09.06-.27-.01-.28,0-.06.11.26.78-.49.89l-.21-.31c-.04.48-.35,1.19-.88,1.25.04-.22.24-.5.47-.51l-.41-.13.03-.32h-.24c.16.4.22.75-.23.95l.29.16c-.53.3-.4-.32-.43-.62l-.57.16-.1-.33-.57.15.73-.71.18.2c.09-.32.43-.23.52-.29.7-.43,1.13-.46,1.91-.69.2-.06.48-.36.62-.52.06-.03.08.12.15.15Z"/><path class="cls-2" d="M8.77,60.36l.16.33.25-.2.13.46c.21-.11.24-.28.47-.08l-.16.73.68-.2c-.17-.36.23-.57.29-.95l.35.57c-.38.78-.69,1.1-1.51.81l-.17-.38c-.17.29-.02.64-.02.96,0,.21.17.3-.17.34.1-.41-.3-.61-.37-.82-.02-.05.19-.1.19-.3,0-.22-.2-.85-.3-1.07-.11-.24.01-.15.15-.2Z"/><path class="cls-2" d="M16.62,78.45l.28-.05.22-.32.13.46.42-.25.13.46.31-.21c.29.21.06.69.08.72.02.02.36-.04.44.25-.21.3-1.19-.39-.99-.83l-.32.59-.43-.62-.21.15.02.28c-.28-.42-.48-.14-.71-.19-.12-.03-.2-.38-.46-.21l.67.61c0,.13-.13.11-.23.07-.15-.06-1.03-.61-.97-.78l.71-.09-.03-.35c.35.38.68-.11.93.33Z"/><path class="cls-2" d="M77.78,29.88c.03.42.01.6.33.9-.05.49-1.4.84-1.22,1.6l.28-.33c.13.09-.53,1.26-.65,1.18l-.31-1.45c.08-.22.61-.25.65-.3.09-.12.05-.51.39-.7l.28.16c.26-.26.12-.45.11-.71,0-.19-.24-.31.14-.35Z"/><path class="cls-2" d="M76.46,55l.21-.12c.1.58-.76,1.12-.62,1.73l-.33-.28c-.21.39-.61.38-.92.6-.5.35-.63.79-.89,1.29-.29-1.16.68-1.51,1.57-1.88l.87-1.93.11.59Z"/><path class="cls-2" d="M30.61,55.06c.2.12-.3.69-.27.76.25.18.38.24.62,0,0,.82.28.51.66.81.45.35.97,2,.55,2.32-.33.25-.17-.61-.19-.72-.05-.28-.26-.92-.41-1.12-.1-.13-.3-.06-.42-.15-.16-.13-.24-.32-.43-.45-.42-.29-.75.02-.68-.89.23,0,.4-.65.56-.56Z"/><path class="cls-2" d="M60.56,40.82l-.1.52c.19-.17.37-.11.52.1l-.84.55c-.2.24.17.43.16.61-.02.34-1.3.74-.94,1.17.16-.28.59-.87.91-.51-.64.15-.82.78-1.29,1.12l.03-.75-.42.49-.12-.21,1.08-.95-.16-.32.41-.55-.72.52c-.28-.41.2-.5-.08-.71l.84-.5-.39.36c.9.65.51-.65,1.1-.94Z"/><path class="cls-2" d="M38.3,68.37c.19.22.26.62.14.87-.07.15-.4.13-.27.4l-.35-.15-.69,1.07-.18-.2-.3.46.36-1.44c.66-.35.35-.35.4-.65,0-.04.3.02.41-.03.14-.07.22-.36.48-.35Z"/><path class="cls-2" d="M27.15,74.08c-.31.59.49,1.16.97.78l-.52-.11c-.31-.42.16-.73.14-.09l.16.07.59-.29.19.44c.19-.47.77-.27,1.17-.46v.87c-.36.23-.45-.57-.72-.54-.13.01-.32.48-.71.33.06.21.1.52-.21.56l.1-.52c-.47.27-1.34.25-1.5-.42l-.57.15c0-.39.39-.18.58-.28.13-.07,0-.48.32-.47Z"/><path class="cls-2" d="M87.78,20.5l.21-.03.06.16c-.2.18-.25.16-.11.47l.36-.04-.14,1.22.36-.03.66,1.61c-.25.5-.37,1.09-.6,1.59-.1.22-.35.37-.45.62-.08.18.1.43-.1.47-.06-.22-.18-.67-.13-.87.04-.14.23-.11.29-.2.04-.07-.04-.23.03-.34.38-.61.99-1,.43-1.87l-.55.9c.02-.34.26-.63.26-.97,0-.22-.15-1.05-.44-.91s-.54.62-.59-.13l.18.2.27-.32-.2-.43-.35.02c.36-.72.25-1.43,0-2.17.32-.03.5,1,.58,1.05Z"/><path class="cls-2" d="M57.44,59.74c.23.14-.35.99-.44,1.07-.08.07-1.66-.2-1.67.91l-.07-.47c-.46.45-.95.36-1.54.26-.14-.32.18-.17.32-.21.7-.19,2.24-.71,2.87-1.02.29-.14.23-.46.53-.52Z"/><path class="cls-2" d="M85.86,14.37c-.17.11-.74-.32-.79-.39-.09-.13-.02-.36-.1-.52-.16-.31-.45-.55-.51-.92l.49-.02.02.49.34-.1c.26.23-.39.32-.04.51.18.1.37.01.55-.04l.04.98c.09-.16.1-.18.02-.38l.52.1c.2.27-.15.24-.14.37,0,.17.12.37.15.54l.63.03c-.07.38.17.41.29.6.23.35-.51.2-.46-.31-.31.21-.36.3-.17.66l.36-.02.15.55c0,.11-.26.27-.35.31-.28.12-.13-.01-.15-.09-.07-.25-.1-.58-.24-.8-.1-.17-.37-.25-.42-.43-.06-.2.21-.37.08-.58l-.19.18-.38-.45c-.04-.07.19-.07.29-.27Z"/><path class="cls-2" d="M31.71,74.38l-.33.68c-.18.2-.94.14-.36.61l.76-.2.1.34c-.36.29-.55-.1-.58-.08-.62.41-.45.16-1,.33-.38.12-.89.49-1.25.69-.13-.23.02-.24.12-.37.19-.25.73-.88.83-1.09.07-.14-.24-.47.17-.28.17.47.5.44.74.02l-.43-.19,1.23-.48Z"/><path class="cls-2" d="M18.32,73.64l-.21.12c.34.23.94.56,1.13.92.16.3-.27.12-.34.09-.47-.22-1.24-1.08-1.58-1.5-.47-.58-.75-.86-.69-1.63.16-.06.26.22.34.33.2.29.35.69.55.93.15.18.85.54.8.74Z"/><path class="cls-2" d="M57.61,44.4c-.02-.23-.18-.26.11-.48l-.23-.36c.39-.16.16.36.61-.05l-.21.56.44-.19c-.25.36-.29.95-.72.52,0,.06.08.14.05.22-.02.04-.55.48-.59.5-.17.1-.33-.07-.5.02-.31.16-.4.64-.44.67-.07.05-.79.12-.94.55l-.03-.92.96-.59.04.36c.16-.33.5-.45.73-.66.03-.03.57-.77.44-.24-.04.18-.33.2-.26.39l.54-.28Z"/><path class="cls-2" d="M57.66,60.05l.03-.75-.36.04.52-1.21.18.19.31-.2.07.47.51-1.02-.18,1.49c-.6-.01-.72.63-1.09.99Z"/><path class="cls-2" d="M81.55,27.42c-.02.22-.22.26-.32.54-.24.68.24,1.61-.57,2.2l-.17-.19c-.27.29-.63.28-.99.27.03-.41,1.08-.28,1.23-.48-.3-.35.16-.82-.13-1.33l.26.05c-.36-.46.17-1.03.69-1.07Z"/><path class="cls-2" d="M38.63,50.13c-.27.11-.54-.08-.75.21-.3.4.71.81.09,1.35l-.16-.33c-.15.23-.07.58-.38.61.11-.3.14-.47-.08-.72l.33-.16c-.42-.22-.69-.32-1.18-.22l.79-.57c.47-.08,1.01-.63,1.35-.17Z"/><path class="cls-2" d="M51.07,52.75v.38s.62-.54.62-.54l.38.19-.23.5.51-.39.18.2c0-.18-.12-.65.23-.5.06.76-.81.91-1.27,1.33-.13.12-.23.53-.51.68.25.05.62-.18.69.24l-.8.23c-.22-1.04.36-1.44,1.01-2.09-.23,0-.72.24-.88.38-.26.23-.13.72-.51.83-.05-.03.19-.87.23-.96.03-.08.22-.53.36-.45Z"/><path class="cls-2" d="M37.42,89.54s.57.3.63.34c.7.48,1.01.99,1.15,1.84-.3-.08-.36-.67-.51-.88-.03-.04-.69-.52-.77-.56-.52-.3-.96-.37-1.53-.11.05-.4.69-.67,1.03-.63Z"/><path class="cls-2" d="M61.81,24.75c.08.05.22-.08.22.11l-.39.36c.45-.24.96,0,1.33.3-.53.53-1.37.2-1.78-.3l-.66.45.06-.89.28.27.82-.1c-.57-.37-1.14-.77-1.53.07-.39-1.36.99-.69,1.65-.27Z"/><path class="cls-2" d="M58.24,45.81c-.12.15-1.01.6-1.23.82-.14.14-.08.34-.21.49s-1.18.8-1.3.75c-.14-.59.93-.67,1.1-.85.25-.28.35-1.04.56-1.37v.62c.28-.3.99-.56.94-1.02.24-.1.17.51.13.56Z"/><path class="cls-2" d="M32,91.32l-.04.24.25.06c-.46.2-.34.67-.44,1.06h.24s-.18.23-.18.23l.28.52c-.13.79.12,1.58.08,2.37,0,.16.07.36-.13.46-.07-.72-.08-1.45-.16-2.16-.07-.58-.31-1.32-.34-1.83,0-.16.24-1.05.44-.96Z"/><path class="cls-2" d="M32.38,70.7s-.15-.28.11-.27c.77.85,1.14.5,2.14.31l-.09.31c-.25-.02-.49.08-.73.13-.35.07-.43.14-.89.04-.42-.09-.92-.4-1.37-.41l.19-.25.64.13Z"/><path class="cls-2" d="M73.1,14.95c.55,1.39-.76,2.12-1.91,2.42l.33.28c-.41.18-.78.15-1.15-.1l.74-.03-.09-.34c.6-.1,1.04-.26,1.5-.67.54-.48.4-.58.42-1.22,0-.2-.2-.3.16-.34Z"/><path class="cls-2" d="M49.76,39.58h-.49s.02-1.23.02-1.23c.45-.22.16.48.22.76.02.09.22.46.26.47s.19-.09.23-.06c.09.06-.24.59.25.77l.13-.13.12.2-.32.11-.04.37-.26-.67c-.12.14-.21.25-.3.42-.24.46-.1,1.2-.71,1.06-.23-.05.09-.87.16-.98.1-.15.28-.07.43-.23.09-.1.44-.75.31-.85Z"/><path class="cls-2" d="M45.94,40.56l-1.03-.57.7.92c-.52-.29-1.21-.6-1.41-1.21.76-.13,1.52.04,1.74.86Z"/><path class="cls-2" d="M56.34,40.42c-.08.15-.12.32-.24.44l-.02-.49-.49.02-.02-.49.41.13c-.08-.43-.1-.99.24-1.31l.13.46.3-.46c.11.09.24.03.16.2-.16.32-.48.72-.74.98-.04.17.22.37.26.53.16-.29.32-.6.49-.89.33.56-.28.88-.22,1.38.05.38.41.85.37,1.3l-.64.32c-.13-.23.12-.36.15-.55.04-.28-.07-1.28-.14-1.57Z"/><path class="cls-2" d="M45.64,43.38l-.13-.46.52.1v-.31c-.2-.22-.38-.22-.59-.01l-.15-.61.44-.96.49,1.76-.58.5Z"/><path class="cls-2" d="M64.57,26.73l.05.61.82-.61c.24.13-.53.92-.75.84-.09.32.54.1.36.39-.08.13-.38-.1-.45-.08-.15.05-.21.41-.76.18-.06-.22.3-.17.39-.41.09-.22-.11-.83.34-.92Z"/><path class="cls-2" d="M45.03,85.2c.05.03.29.84.74.84l-.23.5.41-.3.29.16c-.47.27-.68.29-.68.88-.3-.03-.47-1.18-.23-1.42l-.52.34c.16-.54.4-.28-.08-.72.03-.12.2-.32.29-.27Z"/><path class="cls-2" d="M29.72,70.64c.06.03.08.2.15.24.51.31.55-.1,1.01-.24l-.34.53.06.15c.92.12.14,1.39-.03.84-.03-.09.41-.45.1-.53l-.71.14c-.28-.31.63-.45.29-.7-.03-.02-.58.27-.62.43l-.41-.35-.26.17-.05.26-.06-1.09c.08-.1.73.09.87.16Z"/><path class="cls-2" d="M50.46,51.07c-.5.93-1.16,1.37-1.08,2.54.03.43.37,1.01.09,1.35,0-.39-.27-.85-.31-1.18-.16-1.14.44-2.04,1.3-2.71Z"/><path class="cls-2" d="M53.05,39.38c.18.11-.64,1.25-.29,1.58l-.6.05c-.15-.32,0-.21.19-.3.21-.1-.05-.66-.37-.13-.02.03-.14.63-.4.16-.24-.44.88-.73,1.02-.8.29-.16.13-.52.46-.55Z"/><path class="cls-2" d="M59.95,24.09l-.76.59c-.57.83-.58,1.52.47,1.85-1.83.12-1.28-2.41.29-2.44Z"/><path class="cls-2" d="M12.49,59.04c.28-.41.58-.89.71-.14.01.1-.44.19-.58.36-.19.23.05.46-.16.54l-.27-.58-.05-1.81c.07.3.42.66.46.93.03.2-.25.47-.11.71Z"/><path class="cls-2" d="M42.5,67.12c-.03.11-.27.83-.3.87-.04.05-.92.85-.98.88-.4.24-.5-.26-.31-.37.06-.04.26,0,.44-.13.85-.59.58-1.2,1.15-1.84.09.2.06.38,0,.58Z"/><path class="cls-2" d="M79.1,20.33c.06.02.14.25.29.24.09,0,.91-.6.87-.18-.06.71-.65.44-.96.96l-.53-.97c.11-.02.22-.1.33-.06Z"/><path class="cls-2" d="M52.74,37.85h-.43s-.05.26-.05.26l-.32-.03c-.2-.4.27-.6.32-.84.06-.27-.09-.79-.12-1.08.76.25.36,1.13.61,1.69Z"/><path class="cls-2" d="M40.36,69.89l-.11.9h-.24s-.03-.29-.03-.29c-.11.21-.6.63-.64.81-.05.21.18.46-.04.51-.7-.46-.14-.74.24-1.26.08-.12.08-.34.14-.4.08-.08.53,0,.68-.26Z"/><path class="cls-2" d="M88.21,13.45c-.1.4.19.47.3.7.06.12,0,.31.08.47.23.45.62.35.71.88l-.33-.26-.46.12-.43-1.49-.05.26-.28-.11c-.13-.17.4-.6.46-.56Z"/><path class="cls-2" d="M56.76,24.64v.38s.2-.13.2-.13l.19.3c-.31.4-.11,1-.65,1.14-.15-.19-.11-1.88.26-1.69Z"/><path class="cls-2" d="M38.96,72.4c-.43.26-.94.58-1.23,0l.49-.02-.36-.39c.48.07.49-.13.73-.46l.37.88Z"/><path class="cls-2" d="M29.31,42.38l-.56.66c.32.04.41-.16.66-.26.15-.07.25-.2.28.06-.19.47-1.02.19-.88.82-.19.04-.42-.48-.45-.49-.15-.08-.29-.04-.43,0-.08-.16.1-.15.21-.22.37-.21.77-.43,1.18-.56Z"/><path class="cls-2" d="M81.47,22.85c-.39.24-.86-.16-.97-.17-.23-.01-.73.27-.9-.29.3.12.98-.26,1.05-.24.05.01.86.62.82.7Z"/><path class="cls-2" d="M29.03,54.59s.17-.01.21.07c.19.35.27.91-.18,1.08-.22-.28-.22-.64-.33-.92-.08-.22-.54-.51-.12-.63.15.11.28.26.41.4Z"/><path class="cls-2" d="M35.86,52.17l.25.42.18-.15.08.21.47-.51-.27.33.03.55.26.05-.36.91c-.45.02-.16-.67-.2-.69l-.33.15c-.04-.26.75-.62.15-.79-.09-.02-.46.21-.54.29-.21.22,0,.5-.35.53l-.11-.45.33-.11-.15-.18.56-.56Z"/><path class="cls-2" d="M7.43,69.95c.29.5-.05.64-.13,1.13-.06.35-.12.72.02,1.06l-.32.17c.1-.55-.06-1.27.01-1.78.01-.07.25-.6.42-.58Z"/><path class="cls-2" d="M54.32,52.81l.03-.75-.51.39-.08-.33.43-.39.18.2.55-.9c.12.72-.3,1.19-.6,1.79Z"/><path class="cls-2" d="M47.84,69.1l-.23-.02c.03.3-.19.28-.43.33-.06-.22.31-.18.23-.49-.05-.19-.26-.41-.46-.31l-.03-.11c.32-.13.4-.39.29-.71l.52.16.11,1.15Z"/><path class="cls-2" d="M54.74,48.18l.24-.17.12.21-.24.45.74-.46c.04.29-.68.23-.44.62l.57-.17-.95.59.15-.35-.51.39c-.08-.44.52-.54.19-1.05l-.26.2-.12-.21.38-.23.12.18Z"/><path class="cls-2" d="M32.54,50.15c-.55-.27-1.34,1.56-1.57,1.45.27-.78.71-1.53,1.4-2.02l.17.57Z"/><path class="cls-2" d="M54.11,46.9l.31.22-.64.81.49-.02c-.12.49-.49.26-.8.41-.11.05.1.35-.24.32.15-.42.24-1.33.77-1.21.05-.11-.34-.52.1-.53Z"/><path class="cls-2" d="M19.26,86.8l-.68-.33c-.11-.22-.43-.56-.2-.78l.26.05-.08-.48c.16-.07.29.24.34.35.16.38.23.8.35,1.19Z"/><path class="cls-2" d="M22.76,58.15c-.1.17-.42.35-.54.57l.26-.82-.75.4.78-.89.37.21c.04.08-.06.45-.12.54Z"/><path class="cls-2" d="M74.68,24.31l-.72.08-.04.75-.3-.03c-.09.18.1.3-.23.32l-.23-.8c.34-.19.21.31.58.08,0-.41.31-.39.4-.5.02-.02-.21-.29.04-.37l.51.47Z"/><path class="cls-2" d="M54.2,39.91c-.46.14-.14.8-.6.92l-.08-.72-.42.25-.09-.29c0-.2,1.15-.73,1.2-.16Z"/><path class="cls-2" d="M64.48,36.33c-.1.14-.6.58-.74.6-.06,0-.35-.38-.65-.26l.69-.63v.25s.64-.18.64-.18c.03.07.04.15.07.23.13-.18.15-.27.1-.53h.87c.08.21-.24.14-.34.34-.08.17.07.58-.14.79v-.62s-.38.36-.38.36c-.04-.11-.06-.23-.1-.34Z"/><path class="cls-2" d="M77.95,25.73l.16-.29c.1.33.3,1.01-.16,1.16-.02-.65-.44-1.07-.26-1.72l-.68-.25c1.06-.22.8.37.94,1.09Z"/><path class="cls-2" d="M75,51.69l-.03.37c-.57-.01-1.05.63-1.11,1.18-.04.37.26,1-.3,1.23.16-1.21.09-2.3,1.44-2.77Z"/><path class="cls-2" d="M57.75,46.6c-.66.75-.48,2.52-1.62,2.58l.61-.67c.23-.68.35-1.48,1-1.9Z"/><path class="cls-2" d="M25.17,83.79c-.16.32-.46,1.1-.85.73l1.17-1.77c.14.23-.2.79-.32,1.03Z"/><path class="cls-2" d="M7.91,72.06l.23,1.16c-.29-.06-.49-.28-.75-.03l.05-1.13h.48Z"/><path class="cls-2" d="M11.81,59.74c.1.04.32.46.11.58-.42-.32-.67.11-.94.4l-.19-.45c-.06-.06-.37.18-.5-.21.28-.19.59.04.82.01s.59-.36.7-.32Z"/><path class="cls-2" d="M60.46,74.33c-.23.3-.43.66-.77.92l.39-1.33.74.07c-.04.19-.25.21-.35.33Z"/><path class="cls-2" d="M60.26,39.77s.62-.62.96-.51c-.09.54-1.05.67-.77,1.21l-.34.1c.07-.41-.31-.64.02-1l.13.2Z"/><path class="cls-2" d="M74.87,63.29c0,.28-.58.39-.67.59-.07.15.09.56-.12.75l-.08-.72-.25,1.07c-.58-.92.28-1.5,1.13-1.69Z"/><path class="cls-2" d="M28.01,50.68c.1.03.22-.04.32-.06.04.29-.27.18-.4.3-.3.27-.13,1.16-.67.33.41-.23-.21-.88.38-.87.15.04.26.27.37.3Z"/><path class="cls-2" d="M84.35,12.57c.13.18-.11.34-.08.45.02.09.5.37.46.43l-.33.16c.43.14.18.67.69.67l-.26.39c-.19-.59-1.28-1.62-.48-2.1Z"/><path class="cls-2" d="M64.22,78.04l.1-.52-.49.45c.17-.54.43-.8.84-1.17.65.16-.33,1.31-.45,1.24Z"/><path class="cls-2" d="M67.7,75.05l-.88.57c-.35.42-.94.21-1.43.46l1.35-.75.96-.29Z"/><path class="cls-2" d="M87.25,44.17c-.06.27-.38.31-.5.64-.19.52.3,1.19-.27,1.44.13-.81-.45-2,.77-2.08Z"/><path class="cls-2" d="M43.26,65.34l.48.34c-.33.42-.68.53-.94,1.02l.24-1.31.22-.05Z"/><path class="cls-2" d="M88.13,35.59c-.14.07-.25-.16-.29-.26-.26-.57-.17-.93-.03-1.51.41.04.23,1.46.32,1.77Z"/><path class="cls-2" d="M85.47,28.53l-.38-.26c-.18.31-.19.64-.33.98-.03.08-.01.44-.24.3-.14-.09.59-1.17.07-1.5l.59-.31.29.79Z"/><path class="cls-2" d="M36.38,69.77c.1.03.22-.04.32-.06,0,.46-.47.35-.65.46-.14.09-.28.59-.6.4-.13-.08.09-.42.14-.49.02-.04.16.03.19,0,.05-.06.12-.52.3-.55.09-.01.19.22.29.26Z"/><path class="cls-2" d="M16.39,64.38l-.29,1.14.37-.42c.11.52.02.7-.49.89l-.05-1.47.45-.14Z"/><path class="cls-2" d="M59.5,45.35l-.35-.15-.05.27-.18-.2-.19.43-.12-.19c-.09.19-.22.15-.2-.03.07-.44.77-.35.64-.99.39.18.48.46.44.87Z"/><path class="cls-2" d="M59.94,57.46s0,.2-.05.21c-.06.01-.51-.07-.39-.26.72-.25.75-.97,1.04-1.55l.34.34c-.34.41-.64.84-.95,1.26Z"/><path class="cls-2" d="M63.96,37.1c0,.43-.31.72.15.95-.35-.04-.87.75-.96.77-.71.2.32-.59.35-.63.03-.05.15-1.26.46-1.09Z"/><path class="cls-2" d="M81.15,48.14c-.06.22-.5,1-.55,1.19s.19.56-.1.52c-.34-.04-.22-.94-.15-1.13.05-.16.26-.02.36-.11s.23-.84.24-1.02c0-.24-.33-.53,0-.72.23.09.27,1.06.21,1.27Z"/><path class="cls-2" d="M15.86,67.85c-.02.06-.17.08-.18.09-.02.08.26.19.3.34.03.1-.13.52-.06.71l-.4.11c-.08-.17.17-.12.2-.33.05-.37-.17-.54-.19-.79-.02-.23.22-.64.16-.91.38-.03.25.59.18.78Z"/><path class="cls-2" d="M33.97,43.89c-.53-.04-.68.27-1.11.45l.2-1.05.92.6Z"/><path class="cls-2" d="M44.33,59.02s.86.08.94.32c.16.48-1.32-.12-1.42-.21l.37-.42c.03.09.04.26.11.31Z"/><path class="cls-2" d="M52.46,68.76l-.02.38.57-.16v.37s.23,0,.23,0l-.03.32c-.38.23-.27-.34-.36-.39l-1.15.33.75-.84Z"/><path class="cls-2" d="M24.55,81.05l.09.19c.73-.47-.02.42.07.75l-.33-.28-.18.67.19-1.3.17-.04Z"/><path class="cls-2" d="M58.96,51.22c.09.32-.21.55-.3.85-.15.49-.12,1.18-.48,1.62l.3-1.62.48-.84Z"/><path class="cls-2" d="M38.47,43.96l-.08-.67c.12-.05,1.09-.59,1.15-.33l-1.08.99Z"/><path class="cls-2" d="M78.29,20.4l-.29-.53.69.05.14-.6.26.05c0,.56-.25.88-.81,1.04Z"/><path class="cls-2" d="M86.29,46.44c-.12.37-.65.52-.88.82-.19.25-.02.38-.04.42-.04.08-.46.6-.55.56.08-.86.65-1.51,1.47-1.79Z"/><path class="cls-2" d="M58.6,46.97l-.59.98-.21.99c-.09-.26-.19-1.29-.03-1.46.03-.03.21.03.33-.06.17-.14.23-.42.5-.45Z"/><path class="cls-2" d="M86.85,21.15l.22.02-.23.5c-.36-.75-.13-1.58.2-2.3.22.33-.36,1.67-.2,1.78Z"/><path class="cls-2" d="M56.65,27.48c-.01.08-.18.4-.15.58-.09.15-.22-.41-.41-.13-.02.03.06.31-.03.47-.11.2-.9,1.04-1.05.96l.24-.69.34.09c.02-.49.59-.7.41-1.18l.36.02.13-.9c.39-.02.2.51.16.78Z"/><path class="cls-2" d="M73.45,57.48c-.13.62.31,1.56-.67,1.56-.05-.17.17-.2.24-.39.1-.28.1-.58.19-.86.05-.18-.07-.28.24-.3Z"/><path class="cls-2" d="M35.66,73.86l.02.49.27-.48c.51-.39.12.47,0,.59s-.61.06-.75.4c-.11-.38.42-.4.14-.82l.32-.18Z"/><path class="cls-2" d="M50.86,41.25l.1.35c-.67.16.05-.73-.02-.97l.49.03-.07.45-.5.15Z"/><path class="cls-2" d="M52.45,48.59c-.04.08-.22.11-.31.26-.1.17-.18.45-.28.61-.08.14-.23,0-.25-.04-.22-.4.71-.98.78-1.4.15.02.09.52.06.57Z"/><path class="cls-2" d="M55.17,49.7s.53-.54.75-.4l-1.13,1.26.19-1.05c.19-.11.13.16.18.19Z"/><path class="cls-2" d="M66.34,25.97c.37.23-.73,1.26-.78,1.59-.17-.11.52-1.75.78-1.59Z"/><path class="cls-2" d="M45.16,87.4l.02.49.24-.44c.17.45-.23,1.13-.4,1.61-.04-.43-.01-.87,0-1.31,0-.19-.23-.31.15-.35Z"/><path class="cls-2" d="M44.5,89.83l-.22-.46c.16-.18.02-1.32.28-1.29.36.04,0,.64.12.83l-.17.92Z"/><path class="cls-2" d="M57.46,54.72s-.04-.16.05-.21c.02-.01.48-.18.43.05-.15.28-.43.47-.75.41l.22.41c-.24.11-.23.33-.19.57-.22.08-.12-.42-.32-.03-.12.23-.22.54-.2.81l-.31-.22c.2-.18.24-.19.12-.47-.38.41-.64.35-.34.97h-.62c-.14-.33.13-.11.18-.15.02-.02.12-.36.19-.47.06-.1.25-.13.31-.26.04-.08-.27-.19.26-.44l.17.19.47-.32-.25-.86c.03-.07.38.26.6.04Z"/><path class="cls-2" d="M47.75,53.71l-.16.73.54.16-.27.58c-.25-.03-.17-.36-.26-.43-.11-.09-.3.06-.36-.19-.08-.34.19-.71.51-.84Z"/><path class="cls-2" d="M72.24,66.65c-.13-.22.26-.58.39-.7.37-.36.85-.59,1.26-.89.1.54-.67.6-1.05.92-.24.2-.35.5-.6.68Z"/><path class="cls-2" d="M35.29,57.06l.04.36.53-.09c-.4.28-.13.53-.3.89-.29-.22-.42-.47-.44-.82-.01-.22-.16-.31.17-.34Z"/><path class="cls-2" d="M8.42,58.72l.03.54c.74.13.05.23.03.31.04.22.3.43,0,.62-.14-.38-.61-1.23-.05-1.48Z"/><path class="cls-2" d="M12.89,57.09c.11.1.16.43.2.6.04.14.21.4,0,.43l-.82-1.13c.04-.07.59.07.62.1Z"/><path class="cls-2" d="M33.59,42.14c-.05.06.15.59-.06.64-.09-.26-.05-.67-.4-.51l-.03-.11c.43-.08.38-.28.66-.53.99.51-.13.47-.16.51Z"/><path class="cls-2" d="M81.39,39.78l-.5,1.51c-.3-.12-.18-.14-.14-.36.04-.21.26-1.3.64-1.14Z"/><path class="cls-2" d="M75.46,20.98l.1.34c-.34-.02-.6.7-.83.99-.27-.46.06-.53.19-.81.14-.31-.22-.32.54-.52Z"/><path class="cls-2" d="M66.9,34.39l-.03.24.22.02-.82,1.04c-.11-.32.28-1.42.62-1.3Z"/><path class="cls-2" d="M87.22,14.34l.51.05-.5.21c-.07-.55-.95-.78-.62-1.32.18.38.63.62.62,1.05Z"/><path class="cls-2" d="M59.46,22.37c-.23.51-.98.74-1.44,1.04l.39-.58,1.05-.46Z"/><path class="cls-2" d="M76.34,56.79c.08.43.49-.18.68.16l-1.16.71.26-.82.22-.05Z"/><path class="cls-2" d="M38.11,92.67l-.65.31c.11.26.96.1.83.5-.22-.23-.8-.13-.84-.15-.03-.02-.35-.41-.4-.48l1.06-.18Z"/><path class="cls-2" d="M55.48,51.23c.24.12.18-.54.51-.39.17.08-.26.71-.32.84l-.16.03c-.12-.34-.19-.13-.39,0l.26-.33-.02-.35.12.21Z"/><path class="cls-2" d="M51.03,38.67c.16.04.34-.02.48.1-.04.96-.6,1.39-.21.13l-.63.18-.12-.21.34-.35c.08-.06.07.14.15.16Z"/><path class="cls-2" d="M55.11,40.03l.31-.46c.04-.1-.48-.67-.16-.95.48.46.55,1.15-.15,1.41Z"/><path class="cls-2" d="M27.76,51.65l-.04.25.25.06-.33.16.43.19-1.08.56c.19-.32.35-.69.52-1.01.07-.13.06-.19.24-.2Z"/><path class="cls-2" d="M62.59,48.31l.32-.84-.03-1.61c.21.74.49,1.95-.29,2.44Z"/><path class="cls-2" d="M41.39,94.58c.07.16-.15.21-.26.29-.53.36-.98.49-1.62.5l1.88-.79Z"/><path class="cls-2" d="M37.08,48.91c.21.09.54.07.31.39-.18.25-.69.4-.98.47l.74-.46c.03-.37-.37-.05-.34-.33.03-.4.2-.1.27-.07Z"/><path class="cls-2" d="M18.2,72.8c-.11.25-.3-.08-.36-.13-.4-.32-.69-.62-.76-1.16l1.12,1.29Z"/><path class="cls-2" d="M69.17,61.2c.38.21-.39.63-.43.87-.04.2.17.46-.04.51-.04-.19-.25-.35-.23-.55,0-.08.51-.93.7-.83Z"/><path class="cls-2" d="M53.31,52.44s-.4.55-.43.53c-.13-.25.14-.42.19-.62.1-.34-.42.19-.29-.16.07-.19.28-.23.38-.37.1-.13-.02-.33.16-.35.04.23.06.77,0,.96Z"/><path class="cls-2" d="M51.13,48.64c0,.28-.76.84-.95.58-.31-.44.71-.56.95-.58Z"/><path class="cls-2" d="M37.61,90.95c.23.29-.11.4-.11.48.03.57.41.37.8.19.23.57-.79.41-.92.19.03-.24-.14-.84.23-.86Z"/><path class="cls-2" d="M39.59,94.35l1.04-.73.61-.87c-.01.82-.92,1.44-1.65,1.59Z"/><path class="cls-2" d="M59.29,46.78c.05.44-.34.5-.51.83l-.21.99c-.22-.64.1-1.52.72-1.82Z"/><path class="cls-2" d="M17.24,63.73c.06.06.23-.07.22.03l-.16.3-.58.59c-.17-.4.2-.56.3-.83.03-.09-.15-.32.08-.4.03.11.04.22.13.3Z"/><path class="cls-2" d="M71.72,22.17h.24s-.21.37-.21.37c-.65.11-.04-1.12.15-1.41l-.19,1.04Z"/><path class="cls-2" d="M61.91,48.51l.39-2.1c.18.68.03,1.53-.39,2.1Z"/><polygon class="cls-2" points="56.64 50 57.03 49.72 57.43 49.8 56.78 50.36 56.61 50.17 56.23 50.39 56.5 49.82 56.64 50"/><path class="cls-2" d="M46.28,17.57l.3-.19c.19.39-.19.55-.29.71s.39-.03.31.22c-.06.53-.55.48-.58.51-.1.11,0,.54-.61.52.05-.23-.04-.82,0-.96.02-.07.69-.78.74-.99l.13.19Z"/><path class="cls-2" d="M16.76,90.62l-1.24-.55-.27-.38c.85,0,1.18.13,1.51.93Z"/></g></g></svg>