<svg width="138" height="30" viewBox="0 0 138 30" fill="none" xmlns="http://www.w3.org/2000/svg">
<g clip-path="url(#clip0_72_10)">
<path d="M3.43285 23.2002L5.43295 28.6226H3.98737L3.71812 27.7557H1.71803L1.44879 28.6226H0L2.01612 23.2002H3.43285ZM2.69885 24.4894C2.62833 24.7645 2.5514 25.0493 2.47448 25.3276C2.35909 25.7339 2.15074 26.3705 2.02894 26.78H3.40721L2.69885 24.4926V24.4894Z" fill="white"/>
<path d="M7.04208 25.0266C7.30492 24.8026 7.58698 24.6267 8.20239 24.5659V25.6088L7.81135 25.6696C7.24081 25.7688 7.07414 25.8551 7.07414 26.3606V28.6191H5.88818V24.6043H7.04208V25.0266Z" fill="white"/>
<path d="M8.76318 23.1904H9.93311V24.1054H8.76318V23.1904ZM8.76318 24.6044H9.93311V28.6193H8.76318V24.6044Z" fill="white"/>
<path d="M10.8113 24.6108H14.2506V25.5162L12.1127 27.6979H14.2506V28.6193H10.5806V27.7299L12.7505 25.5194H10.8113V24.614V24.6108Z" fill="white"/>
<path d="M18.9334 26.607C18.9334 27.6211 18.3501 28.7344 16.7795 28.7344C15.648 28.7344 14.6191 28.0882 14.6191 26.607C14.6191 25.3786 15.3948 24.4028 16.9334 24.4892C18.5713 24.582 18.9334 25.8776 18.9334 26.607ZM16.0102 25.8168C15.8628 26.0472 15.8115 26.3223 15.8115 26.6006C15.8115 27.2372 16.1192 27.7971 16.7795 27.7971C17.4398 27.7971 17.7347 27.282 17.7347 26.6518C17.7347 26.2071 17.6257 25.8616 17.4045 25.6473C17.1577 25.4169 16.8821 25.4105 16.7122 25.4233C16.3724 25.4457 16.1737 25.5609 16.0134 25.8136L16.0102 25.8168Z" fill="white"/>
<path d="M20.6804 24.9719C20.7958 24.8503 20.8727 24.7576 21.0811 24.6584C21.267 24.5816 21.5266 24.5112 21.8119 24.5112C22.0491 24.5112 22.3183 24.556 22.5266 24.6712C22.9497 24.8951 23.0587 25.2534 23.0587 25.8772V28.6188H21.8824V26.3603C21.8824 25.9988 21.876 25.8676 21.8279 25.7621C21.7349 25.5477 21.5266 25.455 21.2958 25.455C20.674 25.455 20.674 25.954 20.674 26.4531V28.6188H19.488V24.62H20.6804V24.9719Z" fill="white"/>
<path d="M23.7961 25.7495C23.8185 25.4744 23.857 25.1417 24.2192 24.8602C24.5878 24.5691 25.0654 24.5083 25.5333 24.5083C26.0269 24.5083 27.2193 24.6235 27.2193 25.66V27.9953C27.2193 28.424 27.2417 28.4879 27.3347 28.6255H26.1744V28.2576C25.8731 28.4815 25.5365 28.7343 24.9436 28.7343C24.0204 28.7343 23.6294 28.0753 23.6294 27.5122C23.6294 26.866 24.1454 26.4981 24.4756 26.3606C24.7993 26.223 25.559 26.0854 26.059 25.9927V25.7783C26.043 25.5928 26.0269 25.2857 25.6038 25.2857C25.0814 25.2857 25.0109 25.6088 24.982 25.7527H23.7961V25.7495ZM25.2961 26.9524C25.0974 27.0292 24.7897 27.1443 24.7897 27.4514C24.7897 27.6434 24.9596 27.8577 25.2352 27.8577C25.3827 27.8577 25.5205 27.8033 25.6423 27.7266C26.0334 27.4802 26.0494 27.1123 26.059 26.6965L25.2961 26.9492V26.9524Z" fill="white"/>
<path d="M30.149 26.9912C30.2868 27.1447 30.4022 27.2663 30.6715 27.4135C31.0337 27.6054 31.4023 27.6758 31.7164 27.6758C32.2549 27.6758 32.7164 27.4231 32.7164 27.0456C32.7164 26.6169 32.1715 26.5465 31.7709 26.4921C31.4696 26.4537 31.1715 26.4153 30.8798 26.3546C30.5497 26.2842 29.4182 26.0475 29.4182 24.8798C29.4182 23.4818 30.6651 23.0659 31.6042 23.0659C32.8575 23.0659 33.5338 23.6737 34.005 24.096L33.0049 24.8094C32.835 24.6399 32.6812 24.4959 32.4664 24.3711C32.2741 24.2624 31.9279 24.1344 31.5818 24.1344C31.0433 24.1344 30.774 24.4415 30.774 24.7038C30.774 25.1197 31.2356 25.1805 31.4664 25.2093C32.0433 25.2797 32.819 25.4236 33.1267 25.5324C33.7485 25.7627 34.0659 26.2458 34.0659 26.86C34.0659 27.2503 33.9184 27.6822 33.6364 28.0117C33.1427 28.5811 32.3607 28.7411 31.5978 28.7411C30.0657 28.7411 29.4599 28.0341 29.1201 27.6438L30.1522 26.9912H30.149Z" fill="white"/>
<path d="M34.8031 23.4526H35.9795V24.7035H36.7551V25.4265H35.9698V27.2307C35.9634 27.4771 35.9634 27.685 36.2775 27.685L36.7006 27.669V28.5903C36.4474 28.6287 36.2936 28.6511 36.0788 28.6511C35.6717 28.6511 35.2262 28.6287 34.9698 28.2608C34.8095 28.0241 34.7999 27.7394 34.7999 27.3555V25.4201H34.2166V24.6971H34.7999V23.4526H34.8031Z" fill="white"/>
<path d="M37.2712 25.7495C37.2936 25.4744 37.3321 25.1417 37.6943 24.8602C38.0629 24.5691 38.5405 24.5083 39.0084 24.5083C39.502 24.5083 40.6944 24.6235 40.6944 25.66V27.9953C40.6944 28.424 40.7168 28.4879 40.8098 28.6255H39.6495V28.2576C39.3482 28.4815 39.0116 28.7343 38.4187 28.7343C37.4955 28.7343 37.1045 28.0753 37.1045 27.5122C37.1045 26.866 37.6205 26.4981 37.9507 26.3606C38.2744 26.223 39.0341 26.0854 39.5341 25.9927V25.7783C39.5181 25.5928 39.502 25.2857 39.0789 25.2857C38.5565 25.2857 38.486 25.6088 38.4571 25.7527H37.2712V25.7495ZM38.7712 26.9524C38.5725 27.0292 38.2648 27.1443 38.2648 27.4514C38.2648 27.6434 38.4347 27.8577 38.7103 27.8577C38.8578 27.8577 38.9956 27.8033 39.1174 27.7266C39.5085 27.4802 39.5245 27.1123 39.5341 26.6965L38.7712 26.9492V26.9524Z" fill="white"/>
<path d="M41.672 23.4526H42.8484V24.7035H43.624V25.4265H42.8387V27.2307C42.8323 27.4771 42.8323 27.685 43.1464 27.685L43.5695 27.669V28.5903C43.3163 28.6287 43.1625 28.6511 42.9477 28.6511C42.5407 28.6511 42.0951 28.6287 41.8387 28.2608C41.6784 28.0241 41.6688 27.7394 41.6688 27.3555V25.4201H41.0854V24.6971H41.6688V23.4526H41.672Z" fill="white"/>
<path d="M47.9636 27.5988C47.8258 27.8067 47.688 28.0051 47.4796 28.197C47.1335 28.5201 46.611 28.7665 45.9635 28.7665C44.7712 28.7665 43.9314 28.0051 43.9314 26.6935C43.9314 25.7273 44.409 24.4829 45.9924 24.4829C46.2296 24.4829 46.9219 24.5053 47.438 25.0587C47.9604 25.6186 47.9925 26.4024 48.0085 26.8566H45.1398C45.1334 27.3557 45.4154 27.8547 46.0565 27.8547C46.6976 27.8547 46.9251 27.4325 47.0726 27.1477L47.9636 27.602V27.5988ZM46.7873 26.1176C46.7649 25.9481 46.7328 25.7273 46.5629 25.5482C46.4155 25.401 46.1943 25.3243 45.986 25.3243C45.7007 25.3243 45.502 25.4618 45.3866 25.5866C45.2263 25.7625 45.1879 25.9481 45.1494 26.1176H46.7873Z" fill="white"/>
<path d="M54.6052 23.2V26.2263C54.5988 26.7477 54.5892 27.2692 54.2911 27.7618C53.7078 28.6992 52.4994 28.744 52.2686 28.744C51.8615 28.744 51.3775 28.6448 51.0057 28.4528C49.9608 27.9154 49.9608 26.9621 49.9672 26.2263V23.2H51.3359V26.5782C51.3359 26.8533 51.3423 27.0836 51.4352 27.2532C51.6051 27.5379 51.9737 27.6211 52.3135 27.6211C53.2366 27.6211 53.2366 26.9909 53.243 26.5686V23.1968H54.6052V23.2Z" fill="white"/>
<path d="M56.5669 24.9719C56.6823 24.8503 56.7592 24.7576 56.9675 24.6584C57.1534 24.5816 57.4131 24.5112 57.6983 24.5112C57.9355 24.5112 58.2048 24.556 58.4131 24.6712C58.8362 24.8951 58.9452 25.2534 58.9452 25.8772V28.6188H57.7689V26.3603C57.7689 25.9988 57.7624 25.8676 57.7144 25.7621C57.6214 25.5477 57.4131 25.455 57.1823 25.455C56.5605 25.455 56.5605 25.954 56.5605 26.4531V28.6188H55.3745V24.62H56.5669V24.9719Z" fill="white"/>
<path d="M59.7114 23.1904H60.8814V24.1054H59.7114V23.1904ZM59.7114 24.6044H60.8814V28.6193H59.7114V24.6044Z" fill="white"/>
<path d="M61.3809 24.6108H62.6277C63.1213 26.3927 63.2047 26.7606 63.3361 27.5284C63.4963 26.639 63.522 26.5367 63.7592 25.593L64.006 24.6108H65.2208L63.9194 28.6193H62.6822L61.3809 24.6108Z" fill="white"/>
<path d="M69.388 27.5988C69.2501 27.8067 69.1123 28.0051 68.904 28.197C68.5578 28.5201 68.0353 28.7665 67.3879 28.7665C66.1955 28.7665 65.3557 28.0051 65.3557 26.6935C65.3557 25.7273 65.8333 24.4829 67.4167 24.4829C67.6539 24.4829 68.3462 24.5053 68.8623 25.0587C69.3848 25.6186 69.4168 26.4024 69.4328 26.8566H66.5641C66.5577 27.3557 66.8398 27.8547 67.4808 27.8547C68.1219 27.8547 68.3494 27.4325 68.4969 27.1477L69.388 27.602V27.5988ZM68.2116 26.1176C68.1892 25.9481 68.1571 25.7273 67.9872 25.5482C67.8398 25.401 67.6186 25.3243 67.4103 25.3243C67.125 25.3243 66.9263 25.4618 66.8109 25.5866C66.6506 25.7625 66.6122 25.9481 66.5737 26.1176H68.2116Z" fill="white"/>
<path d="M71.2181 25.0266C71.4809 24.8026 71.763 24.6267 72.3784 24.5659V25.6088L71.9874 25.6696C71.4168 25.7688 71.2502 25.8551 71.2502 26.3606V28.6191H70.0642V24.6043H71.2181V25.0266Z" fill="white"/>
<path d="M73.2503 27.2695C73.574 27.583 73.9747 27.823 74.4202 27.823C74.7055 27.823 75.135 27.7302 75.135 27.4327C75.135 27.2951 75.0516 27.2407 74.9811 27.2023C74.8048 27.1096 74.526 27.0872 74.2952 27.0488C74.1189 27.0168 73.933 26.9784 73.7567 26.9272C73.5099 26.8568 73.2631 26.7577 73.0868 26.5817C72.9105 26.4058 72.7855 26.1275 72.7855 25.8299C72.7855 25.1709 73.3561 24.4863 74.4779 24.4863C75.4235 24.4863 75.994 24.8926 76.2697 25.0846L75.5388 25.7596C75.1606 25.4684 74.808 25.3597 74.5324 25.3597C74.0708 25.3597 73.9619 25.5452 73.9619 25.6604C73.9619 25.8907 74.2151 25.9355 74.5997 26.0059C75.4074 26.153 76.3466 26.3674 76.3466 27.3175C76.3466 28.2676 75.3914 28.7219 74.4458 28.7219C73.3304 28.7219 72.7535 28.1845 72.5002 27.9477L73.2471 27.2727L73.2503 27.2695Z" fill="white"/>
<path d="M76.8721 23.1904H78.042V24.1054H76.8721V23.1904ZM76.8721 24.6044H78.042V28.6193H76.8721V24.6044Z" fill="white"/>
<path d="M79.1959 23.4526H80.3723V24.7035H81.148V25.4265H80.3627V27.2307C80.3563 27.4771 80.3562 27.685 80.6704 27.685L81.0935 27.669V28.5903C80.8402 28.6287 80.6864 28.6511 80.4716 28.6511C80.0646 28.6511 79.619 28.6287 79.3626 28.2608C79.2024 28.0241 79.1927 27.7394 79.1927 27.3555V25.4201H78.6094V24.6971H79.1927V23.4526H79.1959Z" fill="white"/>
<path d="M85.4271 24.6108L84.0104 28.9424C83.9174 29.2047 83.8341 29.4478 83.6322 29.6718C83.3565 29.9725 83.0873 29.9853 82.7796 29.9949H81.927V29.0575H82.3436C82.536 29.0511 82.8372 29.0511 82.8372 28.7664C82.8372 28.6673 82.8052 28.5681 82.7828 28.4817L81.584 24.6108H82.8469L83.5072 27.4836L84.1674 24.6108H85.4303H85.4271Z" fill="white"/>
<path d="M39.784 2.25899C39.441 2.25899 39.1622 1.98706 39.1622 1.63837C39.1622 1.28967 39.4346 1.01775 39.7872 1.01775C40.1398 1.01775 40.409 1.30246 40.409 1.64156C40.409 1.98706 40.1398 2.26218 39.7872 2.26218L39.784 2.25899ZM39.784 0.93457C39.4026 0.93457 39.082 1.23208 39.082 1.63837C39.082 2.04465 39.4186 2.34216 39.784 2.34216C40.1814 2.34216 40.4891 2.03185 40.4891 1.64156C40.4891 1.25768 40.1911 0.93457 39.784 0.93457ZM39.5244 1.23848H39.7744C39.8769 1.23848 39.9475 1.23848 40.018 1.29607C40.0661 1.33445 40.1045 1.39844 40.1045 1.48801C40.1045 1.63837 39.9955 1.68955 39.9507 1.70235L40.1237 2.01906H39.9571L39.8032 1.72794H39.6718V2.01906H39.5276V1.23848H39.5244ZM39.6686 1.36644V1.60957H39.7199C39.7712 1.60957 39.7872 1.60957 39.816 1.60957C39.8481 1.60957 39.9539 1.60318 39.9539 1.48801C39.9539 1.47201 39.9539 1.41443 39.893 1.38244C39.8609 1.36644 39.8257 1.36644 39.7391 1.36644H39.6718H39.6686Z" fill="white"/>
<path d="M39.6205 17.6397C39.6205 17.6397 39.3448 17.3326 38.8832 16.8367C38.3159 16.2257 38.3448 15.5795 38.3448 15.5795V0.956543H32.7996V12.6523C32.7323 13.7592 31.6457 14.0407 31.0495 14.0215C30.1905 13.996 29.6905 13.5097 29.6905 12.6843V0.956543H24.2896C24.2896 0.956543 22.0363 0.959742 20.4849 0.959742C17.5297 0.959742 14.7379 1.41401 13.7955 3.8709L13.2378 1.69553C13.1 1.26365 12.6352 0.956543 12.1736 0.956543H2.51614C2.37511 0.956543 2.32383 1.00133 2.39434 1.1005C2.39434 1.1005 2.65718 1.35003 3.13156 1.89387C3.79185 2.64565 3.53542 3.65336 3.53542 3.65336L0 17.7773H5.14768L5.8881 14.6774H10.8563L11.6288 17.7773H18.4047C21.1869 17.7773 23.4498 17.4957 24.5653 15.7618C25.3986 17.3422 27.1936 18.0844 30.3636 17.8124C31.4662 17.7197 32.5464 17.2046 33.0112 16.3825L33.2291 17.0639C33.4118 17.4765 33.7901 17.7804 34.3285 17.7804H39.5051C39.6461 17.7804 39.691 17.7389 39.6205 17.6397ZM12.725 3.96687L13.6545 4.5299C13.6256 4.68026 13.5872 4.885 13.5647 5.02896L12.6 4.13322C12.507 4.04684 12.6192 3.89969 12.7282 3.96687H12.725ZM11.7762 5.15052L13.5199 5.85112C13.5199 6.05906 13.5295 6.33738 13.5519 6.54852L11.6832 5.33287C11.5775 5.26569 11.6608 5.10254 11.7794 5.15052H11.7762ZM11.071 6.46214L13.6353 7.03797C13.7026 7.34508 13.8212 7.68099 13.9526 7.93691L11.0069 6.65409C10.8947 6.6061 10.9492 6.43655 11.071 6.46214ZM6.66057 11.6126L8.37219 4.70585L10.0934 11.6126H6.66057ZM20.8568 13.8968C20.3599 14.3478 19.456 14.5654 18.4592 14.4726C17.8983 14.4182 17.3053 14.1303 17.3053 14.1303L15.2283 16.6992C15.1449 16.8015 14.9847 16.6992 15.0456 16.5808L16.4687 13.724C16.4848 13.6888 16.4431 13.6568 16.4142 13.6824L13.8885 15.877C13.7891 15.9634 13.6545 15.8354 13.7314 15.7298L15.6898 13.1354C15.7123 13.1066 15.677 13.0714 15.6482 13.0874L12.7218 14.8629C12.6128 14.9301 12.5038 14.7829 12.5967 14.6965L15.0392 12.4348C15.0648 12.4124 15.0392 12.374 15.0071 12.3836L11.7762 13.6792C11.6608 13.7272 11.5775 13.5641 11.68 13.4969L14.5231 11.6478C14.552 11.6286 14.5327 11.5871 14.5007 11.5934L11.0678 12.3644C10.9492 12.39 10.8915 12.2205 11.0037 12.1725L14.1802 10.7873C14.209 10.7745 14.1994 10.7329 14.1673 10.7329L10.6351 10.96C10.5133 10.9664 10.4845 10.7905 10.6031 10.7617L13.9975 9.89154C14.0263 9.88515 14.0231 9.84036 13.9942 9.83716L10.4716 9.51086C10.3498 9.49806 10.3498 9.32211 10.4716 9.31251L14.0039 8.98301C14.0327 8.98301 14.0359 8.93822 14.0071 8.93182L10.6031 8.06168C10.4845 8.02969 10.5133 7.85694 10.6351 7.86333L14.0263 8.08087C14.8949 9.66441 16.7251 10.2946 18.331 10.8513C19.8952 11.3887 21.2414 11.8526 21.2414 13.0586C21.2414 13.3785 21.1132 13.6632 20.8535 13.8968H20.8568ZM25.6935 15.8802L24.8922 15.1828C24.8922 15.1828 25.0076 14.8981 25.0685 14.6997L25.8474 15.733C25.9243 15.8354 25.7897 15.9634 25.6903 15.877L25.6935 15.8802ZM26.857 14.8629L25.2512 13.8904C25.2512 13.8904 25.3153 13.4201 25.3281 13.1642L26.982 14.6965C27.075 14.7829 26.9628 14.9301 26.857 14.8629ZM27.7994 13.6792L25.3473 12.6971C25.3473 12.6971 25.3538 12.1245 25.2897 11.8046L27.8955 13.5001C28.0013 13.5673 27.918 13.7304 27.7994 13.6824V13.6792ZM29.1007 9.51405L25.5813 9.84036C25.5493 9.84036 25.5461 9.88834 25.5781 9.89474L28.9693 10.7617C29.0879 10.7937 29.0591 10.9696 28.9373 10.96L25.4082 10.7329C25.3762 10.7329 25.3666 10.7745 25.3954 10.7873L28.5719 12.1725C28.684 12.2205 28.6296 12.39 28.5078 12.3644L25.2576 11.6318C25.2576 11.6318 25.1262 10.1795 23.4434 9.0214C22.5652 8.41677 21.4914 8.01049 20.549 7.6522C19.8247 7.38027 19.1419 7.11795 18.6483 6.81084C18.097 6.46214 17.8406 6.08785 17.8406 5.63358C17.8406 5.30088 17.9496 5.02256 18.1707 4.80822C18.549 4.43713 19.2381 4.27078 20.1708 4.27718C21.1709 4.28358 22.2318 4.73464 22.2318 4.73464L24.3473 2.1242C24.4306 2.02183 24.5909 2.1242 24.53 2.24257L23.0908 5.13133C23.078 5.15692 23.1101 5.18571 23.1325 5.16332L25.6871 2.94317C25.7833 2.85999 25.9211 2.98475 25.8442 3.08712L23.8697 5.70716C23.8505 5.73275 23.8793 5.76474 23.905 5.74875L26.8442 3.96687C26.9532 3.89969 27.0654 4.04684 26.9724 4.13642L24.5268 6.40136C24.5044 6.42375 24.5268 6.45894 24.5556 6.44615L27.7962 5.14732C27.9116 5.09934 27.9981 5.26249 27.8923 5.32967L25.0396 7.18193C25.014 7.19793 25.03 7.23952 25.0621 7.23312L28.5078 6.45894C28.6263 6.43335 28.684 6.6029 28.5719 6.65089L25.3954 8.03608C25.3666 8.04888 25.3762 8.09047 25.4082 8.09047L28.9373 7.86333C29.0591 7.85694 29.0879 8.03289 28.9693 8.06168L25.5781 8.92862C25.5493 8.93502 25.5525 8.97981 25.5813 8.98301L29.1007 9.30931C29.2225 9.32211 29.2225 9.49806 29.1007 9.51086V9.51405Z" fill="white"/>
<path d="M49.6691 6.53287C49.403 6.95195 49.1466 7.36143 48.5729 7.76132C48.2651 7.97566 47.5568 8.39473 46.5535 8.39473C44.6368 8.39473 43.0886 7.00314 43.0886 4.55585C43.0886 2.41567 44.5438 0.726562 46.5952 0.726562C47.4254 0.726562 48.1626 1.01448 48.7075 1.44315C49.2107 1.84304 49.4447 2.24292 49.653 2.60122L48.2171 3.31781C48.1145 3.08108 47.9927 2.83795 47.6722 2.56923C47.3228 2.29411 46.9734 2.21093 46.6785 2.21093C45.5086 2.21093 44.8932 3.29542 44.8932 4.50466C44.8932 6.0914 45.7041 6.87837 46.6785 6.87837C47.6529 6.87837 48.0023 6.22256 48.2459 5.80349L49.6723 6.52968L49.6691 6.53287Z" fill="white"/>
<path d="M55.291 6.82063C55.1051 7.09575 54.9224 7.36447 54.6436 7.6204C54.182 8.04907 53.4832 8.37858 52.6242 8.37858C51.0344 8.37858 49.9158 7.36447 49.9158 5.61458C49.9158 4.32536 50.5504 2.66504 52.6659 2.66504C52.9832 2.66504 53.9063 2.69703 54.5955 3.43282C55.2942 4.1814 55.3327 5.22429 55.3551 5.82892H51.528C51.5184 6.49433 51.8966 7.15973 52.7492 7.15973C53.6018 7.15973 53.9095 6.5967 54.1019 6.21921L55.291 6.82383V6.82063ZM53.7204 4.84361C53.6884 4.61967 53.6499 4.32216 53.4223 4.08543C53.2268 3.89028 52.9287 3.78791 52.6531 3.78791C52.2749 3.78791 52.0056 3.97346 51.8518 4.13661C51.637 4.37334 51.5857 4.61647 51.5344 4.84361H53.7204Z" fill="white"/>
<path d="M57.5156 3.31783C57.6695 3.15468 57.7721 3.02992 58.0477 2.89876C58.2945 2.79639 58.6439 2.70361 59.0221 2.70361C59.3394 2.70361 59.6984 2.7644 59.9741 2.91795C60.5382 3.21546 60.6824 3.69533 60.6824 4.52388V8.17722H59.1119V5.1669C59.1119 4.68704 59.1022 4.51109 59.0413 4.36713C58.9195 4.07921 58.6407 3.95765 58.333 3.95765C57.5028 3.95765 57.5028 4.62306 57.5028 5.28846V8.17402H55.9226V2.84757H57.5124V3.31783H57.5156Z" fill="white"/>
<path d="M61.9353 1.29248H63.5059V2.9624H64.5412V3.92532H63.4963V6.33102C63.4867 6.65732 63.4867 6.93564 63.9066 6.93564L64.4707 6.91645V8.14489C64.131 8.19607 63.9258 8.22807 63.6406 8.22807C63.0957 8.22807 62.5027 8.19607 62.1629 7.70662C61.9482 7.38991 61.9386 7.00922 61.9386 6.49737V3.91892H61.1597V2.956H61.9386V1.29248H61.9353Z" fill="white"/>
<path d="M70.1218 6.82063C69.9359 7.09575 69.7532 7.36447 69.4744 7.6204C69.0128 8.04907 68.3141 8.37858 67.455 8.37858C65.8652 8.37858 64.7466 7.36447 64.7466 5.61458C64.7466 4.32536 65.3812 2.66504 67.4967 2.66504C67.814 2.66504 68.7372 2.69703 69.4263 3.43282C70.125 4.1814 70.1635 5.22429 70.1859 5.82892H66.3588C66.3492 6.49433 66.7274 7.15973 67.58 7.15973C68.4327 7.15973 68.7404 6.5967 68.9327 6.21921L70.1218 6.82383V6.82063ZM68.5512 4.84361C68.5192 4.61967 68.4807 4.32216 68.2532 4.08543C68.0576 3.89028 67.7595 3.78791 67.4839 3.78791C67.1057 3.78791 66.8364 3.97346 66.6826 4.13661C66.4678 4.37334 66.4165 4.61647 66.3652 4.84361H68.5512Z" fill="white"/>
<path d="M72.3559 3.39157C72.7053 3.09405 73.0835 2.86052 73.9041 2.77734V4.16894L73.3816 4.25212C72.622 4.38648 72.3976 4.49844 72.3976 5.17345V8.18377H70.8174V2.82853H72.3559V3.39157Z" fill="white"/>
<path d="M76.9525 2.30714C76.9525 2.04162 76.9717 1.68332 77.1768 1.3954C77.3723 1.12988 77.8115 0.851562 78.5519 0.851562C78.8692 0.851562 79.1865 0.902748 79.4942 0.944336V2.12159H79.116C78.5198 2.12159 78.491 2.24316 78.5006 2.95975H79.5551V3.92267H78.5102V8.18063H76.9396V3.92267H76.0999V2.95975H76.9525V2.30394V2.30714Z" fill="white"/>
<path d="M85.4048 5.49948C85.4048 6.84949 84.626 8.33386 82.5329 8.33386C81.0264 8.33386 79.6514 7.47331 79.6514 5.49948C79.6514 3.86156 80.6867 2.56273 82.7381 2.6747C84.9208 2.79627 85.4048 4.52696 85.4048 5.49948ZM81.5072 4.44699C81.3117 4.7541 81.2412 5.12199 81.2412 5.48988C81.2412 6.34084 81.6515 7.08622 82.5329 7.08622C83.4144 7.08622 83.8054 6.40162 83.8054 5.56026C83.8054 4.96524 83.6612 4.50457 83.3631 4.21985C83.0361 3.91274 82.6643 3.90314 82.44 3.92234C81.988 3.95433 81.722 4.10789 81.5072 4.44379V4.44699Z" fill="white"/>
<path d="M87.6386 3.39157C87.988 3.09405 88.3662 2.86052 89.1868 2.77734V4.16894L88.6643 4.25212C87.9047 4.38648 87.6803 4.49844 87.6803 5.17345V8.18377H86.1001V2.82853H87.6386V3.39157Z" fill="white"/>
<path d="M91.7222 0.953613H97.075V2.35481H93.5268V3.66642H96.8378V5.03883H93.5268V6.75993H97.3923V8.18351H91.719V0.953613H91.7222Z" fill="white"/>
<path d="M102.995 0.953613V8.18031H101.559V7.67806C101.313 7.92439 100.902 8.32427 100.114 8.32427C99.5817 8.32427 99.0272 8.11953 98.6073 7.71005C97.8284 6.96147 97.8284 5.88658 97.8284 5.54108C97.8284 3.52567 98.9759 2.69711 100.053 2.69711C100.761 2.69711 101.181 3.02341 101.47 3.24095V0.953613H102.998H102.995ZM101.498 5.50909C101.498 5.26276 101.498 4.59735 101.159 4.18787C101.088 4.0951 100.861 3.87117 100.543 3.87117C99.4246 3.87117 99.4246 5.27236 99.4246 5.50909C99.4246 6.25767 99.6297 7.16621 100.428 7.16621C100.601 7.16621 100.787 7.10542 100.941 7.00305C101.495 6.62556 101.495 5.8066 101.495 5.50909H101.498Z" fill="white"/>
<path d="M107.23 2.83789H108.81V8.18034H107.23V7.66849C107.076 7.84124 106.983 7.94361 106.697 8.08756C106.38 8.25072 106.031 8.33389 105.681 8.33389C105.332 8.33389 104.688 8.28271 104.316 7.77086C104.04 7.38057 103.989 7.06386 103.989 6.19371V2.83789H105.579V6.15533C105.579 6.39206 105.579 6.62559 105.701 6.78874C105.794 6.91031 106.008 7.05426 106.326 7.05426C106.419 7.05426 106.633 7.05426 106.871 6.9199C107.207 6.71516 107.22 6.44964 107.23 6.16172V2.83789Z" fill="white"/>
<path d="M114.493 6.92302C114.297 7.23013 114.082 7.56923 113.653 7.87634C113.242 8.16426 112.72 8.3562 112.114 8.3562C111.089 8.3562 109.457 7.74198 109.457 5.56021C109.457 4.00547 110.361 2.69385 112.143 2.69385C112.739 2.69385 113.752 2.857 114.432 3.97348L113.262 4.63888C113.169 4.44374 113.066 4.26139 112.81 4.07585C112.656 3.97348 112.46 3.8903 112.214 3.8903C111.361 3.8903 111.076 4.86282 111.076 5.50903C111.076 6.21602 111.425 7.10537 112.265 7.10537C112.348 7.10537 112.736 7.10537 113.066 6.73747C113.201 6.58392 113.252 6.46235 113.3 6.3088L114.489 6.92302H114.493Z" fill="white"/>
<path d="M114.977 4.35438C115.009 3.98649 115.06 3.54502 115.541 3.16753C116.035 2.77724 116.669 2.69727 117.294 2.69727C117.951 2.69727 119.541 2.85082 119.541 4.23282V7.34551C119.541 7.91815 119.573 8.00132 119.695 8.18367H118.147V7.69101C117.746 7.98853 117.294 8.32443 116.506 8.32443C115.275 8.32443 114.752 7.44469 114.752 6.6961C114.752 5.83555 115.438 5.3461 115.881 5.16055C116.31 4.975 117.326 4.79266 117.993 4.66789V4.37998C117.974 4.13365 117.951 3.72417 117.387 3.72417C116.688 3.72417 116.599 4.15284 116.557 4.34799H114.977V4.35438ZM116.974 5.96032C116.708 6.06269 116.297 6.21624 116.297 6.62572C116.297 6.88165 116.522 7.16957 116.894 7.16957C117.089 7.16957 117.272 7.09919 117.438 6.99682C117.961 6.67051 117.983 6.17785 117.993 5.62441L116.977 5.96352L116.974 5.96032Z" fill="white"/>
<path d="M120.759 1.29248H122.329V2.9624H123.365V3.92532H122.32V6.33102C122.31 6.65732 122.31 6.93564 122.73 6.93564L123.294 6.91645V8.14489C122.954 8.19607 122.749 8.22807 122.464 8.22807C121.919 8.22807 121.326 8.19607 120.986 7.70662C120.772 7.38991 120.762 7.00922 120.762 6.49737V3.91892H119.983V2.956H120.762V1.29248H120.759Z" fill="white"/>
<path d="M124.115 0.943848H125.673V2.16269H124.115V0.943848ZM124.115 2.8281H125.673V8.18014H124.115V2.8281Z" fill="white"/>
<path d="M132.163 5.49948C132.163 6.84949 131.385 8.33386 129.291 8.33386C127.785 8.33386 126.41 7.47331 126.41 5.49948C126.41 3.86156 127.445 2.56273 129.497 2.6747C131.679 2.79627 132.163 4.52696 132.163 5.49948ZM128.269 4.44699C128.073 4.7541 128.003 5.12199 128.003 5.48988C128.003 6.34084 128.413 7.08622 129.295 7.08622C130.176 7.08622 130.567 6.40162 130.567 5.56026C130.567 4.96524 130.423 4.50457 130.125 4.21985C129.798 3.91274 129.426 3.90314 129.202 3.92234C128.75 3.95433 128.484 4.10789 128.269 4.44379V4.44699Z" fill="white"/>
<path d="M134.391 3.31783C134.545 3.15468 134.647 3.02992 134.923 2.89876C135.17 2.79639 135.519 2.70361 135.897 2.70361C136.215 2.70361 136.574 2.7644 136.852 2.91795C137.417 3.21546 137.561 3.69533 137.561 4.52388V8.17722H135.993V5.1669C135.993 4.68704 135.984 4.51109 135.923 4.36713C135.801 4.07921 135.522 3.95765 135.215 3.95765C134.384 3.95765 134.384 4.62306 134.384 5.28846V8.17402H132.804V2.84757H134.394V3.31783H134.391Z" fill="white"/>
<path d="M43.3579 10.541H48.9383V11.9742H47.06V17.7773H45.2458V11.9742H43.3579V10.541Z" fill="white"/>
<path d="M51.0216 10.541V12.9979C51.2459 12.774 51.7075 12.2909 52.5601 12.2909C52.9512 12.2909 53.3807 12.4029 53.698 12.6684C54.1692 13.0683 54.2525 13.5705 54.2525 14.2647V17.7773H52.6851V14.9813C52.6851 14.5526 52.6755 14.3479 52.6146 14.1624C52.4607 13.6825 52.0409 13.6313 51.8774 13.6313C51.5985 13.6313 51.3645 13.7657 51.2299 13.9384C51.0248 14.2135 51.0248 14.655 51.0248 15.1157V17.7773H49.4446V10.541H51.0248H51.0216Z" fill="white"/>
<path d="M56.6919 12.9887C57.0412 12.6912 57.4194 12.4577 58.24 12.3745V13.7661L57.7175 13.8493C56.9579 13.9836 56.7335 14.0956 56.7335 14.7706V17.7809H55.1533V12.4289H56.6919V12.9919V12.9887Z" fill="white"/>
<path d="M64.2015 15.0966C64.2015 16.4467 63.4226 17.931 61.3295 17.931C59.8199 17.931 58.448 17.0705 58.448 15.0966C58.448 13.4587 59.4833 12.1599 61.5347 12.2719C63.7207 12.3934 64.2015 14.1241 64.2015 15.0966ZM60.3039 14.0442C60.1083 14.3513 60.0378 14.7192 60.0378 15.0871C60.0378 15.938 60.4481 16.6834 61.3295 16.6834C62.211 16.6834 62.602 15.9988 62.602 15.1574C62.602 14.5624 62.4578 14.1017 62.1597 13.817C61.8296 13.5099 61.461 13.5003 61.2366 13.5195C60.7846 13.5515 60.5186 13.7051 60.3039 14.041V14.0442Z" fill="white"/>
<path d="M68.1187 12.4351H69.6989V17.7776H68.1187V17.2657C67.9649 17.4385 67.8719 17.5408 67.5866 17.6848C67.2693 17.8479 66.9199 17.9311 66.5706 17.9311C66.2212 17.9311 65.5769 17.8799 65.2051 17.3681C64.9295 16.9778 64.8782 16.6611 64.8782 15.7909V12.4319H66.468V15.7493C66.468 15.9861 66.468 16.2196 66.5898 16.3828C66.6827 16.5043 66.8975 16.6483 67.2148 16.6483C67.3078 16.6483 67.5225 16.6483 67.7597 16.5139C68.0995 16.3092 68.1091 16.0437 68.1187 15.7557V12.4287V12.4351Z" fill="white"/>
<path d="M74.0579 17.0734C73.7501 17.2782 73.3719 17.5245 72.6411 17.5245C72.1988 17.5245 71.7693 17.4125 71.4199 17.1758C70.7019 16.7151 70.4263 15.8866 70.4263 14.9653C70.4263 13.8904 70.9295 12.3452 72.702 12.3452C73.5226 12.3452 73.9008 12.7035 74.138 12.9274V12.4252H75.6156V17.5629C75.5964 18.1451 75.5739 18.8329 74.7951 19.284C74.2502 19.6103 73.4521 19.6935 72.9681 19.6935C71.9007 19.6935 71.2052 19.3256 70.9167 19.0281C70.4968 18.609 70.5064 18.0652 70.5064 17.7804H72.1379C72.1571 18.0172 72.1796 18.3531 72.5994 18.5482C72.702 18.5994 72.8559 18.6506 73.1027 18.6506C74.0579 18.6506 74.0579 18.0875 74.0579 17.6461V17.0734ZM72.0578 14.9525C72.0578 15.4035 72.0898 16.3345 73.061 16.3345C73.8623 16.3345 74.045 15.7106 74.045 14.9525C74.045 14.6965 74.0258 14.1655 73.8495 13.9096C73.7277 13.7144 73.4392 13.5001 72.9873 13.5193C72.2373 13.5513 72.0546 14.1943 72.0546 14.9525H72.0578Z" fill="white"/>
<path d="M78.1703 10.541V12.9979C78.3946 12.774 78.8562 12.2909 79.7088 12.2909C80.0998 12.2909 80.5293 12.4029 80.8467 12.6684C81.3178 13.0683 81.4012 13.5705 81.4012 14.2647V17.7773H79.8338V14.9813C79.8338 14.5526 79.8242 14.3479 79.7633 14.1624C79.6094 13.6825 79.1895 13.6313 79.0261 13.6313C78.7472 13.6313 78.5132 13.7657 78.3786 13.9384C78.1735 14.2135 78.1735 14.655 78.1735 15.1157V17.7773H76.5933V10.541H78.1735H78.1703Z" fill="white"/>
<path d="M84.6419 10.5508H89.9947V11.952H86.4465V13.2636H89.7575V14.636H86.4465V16.3571H90.312V17.7807H84.6387V10.554L84.6419 10.5508Z" fill="white"/>
<path d="M95.6584 12.4351L94.0397 14.9335L95.8539 17.7807H94.1711L93.155 16.1236L92.2608 17.7807H90.5171L92.3313 14.8823L90.7126 12.4351H92.498L93.2063 13.7979L93.966 12.4351H95.6584Z" fill="white"/>
<path d="M97.7191 12.957C97.7704 12.8962 97.8217 12.8354 97.873 12.7842C98.139 12.5283 98.623 12.314 99.216 12.314C100.53 12.314 101.543 13.3057 101.543 15.0876C101.543 16.1816 101.062 17.8835 99.2256 17.8835C98.6294 17.8835 98.3249 17.6884 97.9018 17.4325V19.6334H96.312V12.4579H97.7159V12.9602L97.7191 12.957ZM98.9692 13.4304C98.6807 13.4304 98.3858 13.552 98.1582 13.8591C97.9307 14.1566 97.8281 14.6173 97.8281 15.1195C97.8281 15.7946 98.0012 16.2136 98.2095 16.4408C98.3922 16.6359 98.6615 16.7479 98.9179 16.7479C99.6872 16.7479 100.027 15.9193 100.027 15.078C100.027 14.371 99.8314 13.6256 99.1871 13.4592C99.1166 13.44 99.0429 13.4272 98.9724 13.4272L98.9692 13.4304Z" fill="white"/>
<path d="M103.822 10.5508V17.7775H102.242V10.5508H103.822Z" fill="white"/>
<path d="M110.367 15.0966C110.367 16.4467 109.589 17.931 107.496 17.931C105.989 17.931 104.614 17.0705 104.614 15.0966C104.614 13.4587 105.649 12.1599 107.701 12.2719C109.883 12.3934 110.367 14.1241 110.367 15.0966ZM106.47 14.0442C106.274 14.3513 106.204 14.7192 106.204 15.0871C106.204 15.938 106.614 16.6834 107.496 16.6834C108.377 16.6834 108.768 15.9988 108.768 15.1574C108.768 14.5624 108.624 14.1017 108.326 13.817C107.999 13.5099 107.627 13.5003 107.403 13.5195C106.951 13.5515 106.685 13.7051 106.47 14.041V14.0442Z" fill="white"/>
<path d="M112.704 12.9887C113.053 12.6912 113.432 12.4577 114.252 12.3745V13.7661L113.73 13.8493C112.97 13.9836 112.746 14.0956 112.746 14.7706V17.7809H111.166V12.4289H112.704V12.9919V12.9887Z" fill="white"/>
<path d="M114.653 13.9516C114.685 13.5837 114.736 13.1422 115.217 12.7647C115.711 12.3744 116.345 12.2944 116.97 12.2944C117.595 12.2944 119.217 12.448 119.217 13.83V16.9427C119.217 17.5153 119.249 17.5985 119.371 17.7808H117.823V17.2882C117.422 17.5857 116.973 17.9216 116.182 17.9216C114.951 17.9216 114.428 17.0419 114.428 16.2933C114.428 15.4327 115.114 14.9433 115.557 14.7577C115.986 14.5722 117.002 14.3898 117.669 14.2651V13.9771C117.65 13.7308 117.627 13.3213 117.063 13.3213C116.364 13.3213 116.275 13.75 116.233 13.9452H114.653V13.9516ZM116.653 15.5575C116.387 15.6599 115.977 15.8134 115.977 16.2229C115.977 16.4788 116.204 16.7667 116.573 16.7667C116.768 16.7667 116.951 16.6964 117.118 16.594C117.64 16.2677 117.663 15.775 117.672 15.2216L116.656 15.5607L116.653 15.5575Z" fill="white"/>
<path d="M120.49 10.8896H122.057V12.5596H123.092V13.5225H122.047V15.9282C122.038 16.2545 122.038 16.5328 122.458 16.5328L123.022 16.5136V17.7421C122.682 17.7932 122.477 17.8252 122.192 17.8252C121.647 17.8252 121.054 17.7932 120.714 17.3038C120.499 16.9871 120.49 16.6064 120.49 16.0945V13.5161H119.711V12.5532H120.49V10.896V10.8896Z" fill="white"/>
<path d="M123.842 10.541H125.4V11.7599H123.842V10.541ZM123.842 12.4253H125.4V17.7773H123.842V12.4253Z" fill="white"/>
<path d="M131.894 15.0966C131.894 16.4467 131.115 17.931 129.022 17.931C127.512 17.931 126.141 17.0705 126.141 15.0966C126.141 13.4587 127.176 12.1599 129.227 12.2719C131.413 12.3934 131.894 14.1241 131.894 15.0966ZM127.996 14.0442C127.801 14.3513 127.73 14.7192 127.73 15.0871C127.73 15.938 128.141 16.6834 129.022 16.6834C129.904 16.6834 130.295 15.9988 130.295 15.1574C130.295 14.5624 130.15 14.1017 129.852 13.817C129.522 13.5099 129.154 13.5003 128.929 13.5195C128.477 13.5515 128.211 13.7051 127.996 14.041V14.0442Z" fill="white"/>
<path d="M134.122 12.915C134.276 12.7519 134.378 12.6271 134.654 12.4959C134.901 12.3936 135.25 12.3008 135.628 12.3008C135.946 12.3008 136.305 12.3616 136.58 12.5151C137.144 12.8126 137.289 13.2925 137.289 14.1211V17.7744H135.718V14.7641C135.718 14.2842 135.708 14.1083 135.648 13.9643C135.526 13.6764 135.247 13.5548 134.939 13.5548C134.109 13.5548 134.109 14.2202 134.109 14.8856V17.7712H132.529V12.4383H134.119V12.9086L134.122 12.915Z" fill="white"/>
</g>
<defs>
<clipPath id="clip0_72_10">
<rect width="137.561" height="30" fill="white"/>
</clipPath>
</defs>
</svg>
